<ttFont>
    <TTGlyph name=".notdef" xMin="193" yMin="0" xMax="1034" yMax="1462">
      <contour>
        <pt x="193" y="1462" on="1"/>
        <pt x="1034" y="1462" on="1"/>
        <pt x="1034" y="0" on="1"/>
        <pt x="193" y="0" on="1"/>
      </contour>
      <contour>
        <pt x="297" y="104" on="1"/>
        <pt x="930" y="104" on="1"/>
        <pt x="930" y="1358" on="1"/>
        <pt x="297" y="1358" on="1"/>
      </contour>
    </TTGlyph>
    <TTGlyph name="A" xMin="0" yMin="0" xMax="1229" yMax="1468">
      <contour>
        <pt x="911" y="516" on="1"/>
        <pt x="317" y="516" on="1"/>
        <pt x="113" y="0" on="1"/>
        <pt x="0" y="0" on="1"/>
        <pt x="588" y="1468" on="1"/>
        <pt x="653" y="1468" on="1"/>
        <pt x="1229" y="0" on="1"/>
        <pt x="1114" y="0" on="1"/>
      </contour>
      <contour>
        <pt x="354" y="608" on="1"/>
        <pt x="877" y="608" on="1"/>
        <pt x="678" y="1135" on="1"/>
        <pt x="653" y="1197" on="0"/>
        <pt x="618" y="1307" on="1"/>
        <pt x="591" y="1211" on="0"/>
        <pt x="559" y="1133" on="1"/>
      </contour>
    </TTGlyph>
    <TTGlyph name="AE" xMin="-2" yMin="0" xMax="1528" yMax="1462">
      <contour>
        <pt x="1528" y="0" on="1"/>
        <pt x="811" y="0" on="1"/>
        <pt x="811" y="516" on="1"/>
        <pt x="336" y="516" on="1"/>
        <pt x="109" y="0" on="1"/>
        <pt x="-2" y="0" on="1"/>
        <pt x="651" y="1462" on="1"/>
        <pt x="1528" y="1462" on="1"/>
        <pt x="1528" y="1368" on="1"/>
        <pt x="913" y="1368" on="1"/>
        <pt x="913" y="815" on="1"/>
        <pt x="1489" y="815" on="1"/>
        <pt x="1489" y="721" on="1"/>
        <pt x="913" y="721" on="1"/>
        <pt x="913" y="94" on="1"/>
        <pt x="1528" y="94" on="1"/>
      </contour>
      <contour>
        <pt x="377" y="608" on="1"/>
        <pt x="811" y="608" on="1"/>
        <pt x="811" y="1368" on="1"/>
        <pt x="711" y="1368" on="1"/>
      </contour>
    </TTGlyph>
    <TTGlyph name="AEacute" xMin="-2" yMin="0" xMax="1528" yMax="1907">
      <component glyphName="AE" x="0" y="0" flags="0x204"/>
      <component glyphName="acute" x="498" y="338" flags="0x4"/>
    </TTGlyph>
    <TTGlyph name="Aacute" xMin="0" yMin="0" xMax="1229" yMax="1907">
      <component glyphName="A" x="0" y="0" flags="0x204"/>
      <component glyphName="acute" x="111" y="338" flags="0x4"/>
    </TTGlyph>
    <TTGlyph name="Abreve" xMin="0" yMin="0" xMax="1229" yMax="1825">
      <component glyphName="A" x="0" y="0" flags="0x204"/>
      <component glyphName="breve" x="31" y="338" flags="0x4"/>
    </TTGlyph>
    <TTGlyph name="Acircumflex" xMin="0" yMin="0" xMax="1229" yMax="1907">
      <component glyphName="A" x="0" y="0" flags="0x204"/>
      <component glyphName="circumflex" x="29" y="338" flags="0x4"/>
    </TTGlyph>
    <TTGlyph name="Adieresis" xMin="0" yMin="0" xMax="1229" yMax="1813">
      <component glyphName="A" x="0" y="0" flags="0x204"/>
      <component glyphName="dieresis" x="31" y="338" flags="0x4"/>
    </TTGlyph>
    <TTGlyph name="Agrave" xMin="0" yMin="0" xMax="1229" yMax="1907">
      <component glyphName="A" x="0" y="0" flags="0x204"/>
      <component glyphName="grave" x="-56" y="338" flags="0x4"/>
    </TTGlyph>
    <TTGlyph name="Alpha" xMin="0" yMin="0" xMax="1229" yMax="1468">
      <component glyphName="A" x="0" y="0" flags="0x204"/>
    </TTGlyph>
    <TTGlyph name="Alphatonos" xMin="0" yMin="0" xMax="1229" yMax="1546">
      <component glyphName="A" x="0" y="0" flags="0x204"/>
      <component glyphName="tonos" x="-454" y="-105" flags="0x4"/>
    </TTGlyph>
    <TTGlyph name="Amacron" xMin="0" yMin="0" xMax="1229" yMax="1671">
      <component glyphName="A" x="0" y="0" flags="0x204"/>
      <component glyphName="macron" x="49" y="338" flags="0x4"/>
    </TTGlyph>
    <TTGlyph name="Aogonek" xMin="0" yMin="-446" xMax="1249" yMax="1468">
      <component glyphName="A" x="0" y="0" flags="0x204"/>
      <component glyphName="ogonek" x="899" y="0" flags="0x4"/>
    </TTGlyph>
    <TTGlyph name="Aring" xMin="0" yMin="0" xMax="1229" yMax="1821">
      <component glyphName="A" x="0" y="0" flags="0x204"/>
      <component glyphName="ring" x="31" y="154" flags="0x4"/>
    </TTGlyph>
    <TTGlyph name="Aringacute" xMin="-12" yMin="0" xMax="1239" yMax="1962">
      <contour>
        <pt x="836" y="1411" on="1"/>
        <pt x="836" y="1330" on="0"/>
        <pt x="754" y="1226" on="0"/>
        <pt x="686" y="1206" on="1"/>
        <pt x="1239" y="0" on="1"/>
        <pt x="1124" y="0" on="1"/>
        <pt x="924" y="446" on="1"/>
        <pt x="307" y="446" on="1"/>
        <pt x="98" y="0" on="1"/>
        <pt x="-12" y="0" on="1"/>
        <pt x="553" y="1206" on="1"/>
        <pt x="485" y="1223" on="0"/>
        <pt x="401" y="1327" on="0"/>
        <pt x="401" y="1411" on="1"/>
        <pt x="401" y="1505" on="0"/>
        <pt x="521" y="1622" on="0"/>
        <pt x="618" y="1622" on="1"/>
        <pt x="716" y="1622" on="0"/>
        <pt x="836" y="1506" on="0"/>
      </contour>
      <contour>
        <pt x="885" y="539" on="1"/>
        <pt x="678" y="993" on="1"/>
        <pt x="654" y="1045" on="0"/>
        <pt x="618" y="1147" on="1"/>
        <pt x="595" y="1077" on="0"/>
        <pt x="555" y="987" on="1"/>
        <pt x="346" y="539" on="1"/>
      </contour>
      <contour>
        <pt x="481" y="1411" on="1"/>
        <pt x="481" y="1345" on="0"/>
        <pt x="557" y="1270" on="0"/>
        <pt x="618" y="1270" on="1"/>
        <pt x="680" y="1270" on="0"/>
        <pt x="756" y="1345" on="0"/>
        <pt x="756" y="1411" on="1"/>
        <pt x="756" y="1475" on="0"/>
        <pt x="678" y="1550" on="0"/>
        <pt x="618" y="1550" on="1"/>
        <pt x="558" y="1550" on="0"/>
        <pt x="481" y="1474" on="0"/>
      </contour>
      <contour>
        <pt x="561" y="1690" on="1"/>
        <pt x="664" y="1801" on="0"/>
        <pt x="752" y="1962" on="1"/>
        <pt x="893" y="1962" on="1"/>
        <pt x="893" y="1946" on="1"/>
        <pt x="849" y="1885" on="0"/>
        <pt x="694" y="1725" on="0"/>
        <pt x="631" y="1673" on="1"/>
        <pt x="561" y="1673" on="1"/>
      </contour>
    </TTGlyph>
    <TTGlyph name="Atilde" xMin="0" yMin="0" xMax="1229" yMax="1819">
      <component glyphName="A" x="0" y="0" flags="0x204"/>
      <component glyphName="tilde" x="4" y="338" flags="0x4"/>
    </TTGlyph>
    <TTGlyph name="B" xMin="207" yMin="0" xMax="1169" yMax="1462">
      <contour>
        <pt x="207" y="1462" on="1"/>
        <pt x="608" y="1462" on="1"/>
        <pt x="879" y="1462" on="0"/>
        <pt x="1133" y="1278" on="0"/>
        <pt x="1133" y="1092" on="1"/>
        <pt x="1133" y="965" on="0"/>
        <pt x="978" y="796" on="0"/>
        <pt x="829" y="772" on="1"/>
        <pt x="829" y="766" on="1"/>
        <pt x="1004" y="740" on="0"/>
        <pt x="1169" y="571" on="0"/>
        <pt x="1169" y="420" on="1"/>
        <pt x="1169" y="218" on="0"/>
        <pt x="901" y="0" on="0"/>
        <pt x="655" y="0" on="1"/>
        <pt x="207" y="0" on="1"/>
      </contour>
      <contour>
        <pt x="309" y="811" on="1"/>
        <pt x="631" y="811" on="1"/>
        <pt x="837" y="811" on="0"/>
        <pt x="1024" y="948" on="0"/>
        <pt x="1024" y="1094" on="1"/>
        <pt x="1024" y="1240" on="0"/>
        <pt x="813" y="1372" on="0"/>
        <pt x="604" y="1372" on="1"/>
        <pt x="309" y="1372" on="1"/>
      </contour>
      <contour>
        <pt x="309" y="721" on="1"/>
        <pt x="309" y="90" on="1"/>
        <pt x="653" y="90" on="1"/>
        <pt x="1059" y="90" on="0"/>
        <pt x="1059" y="420" on="1"/>
        <pt x="1059" y="721" on="0"/>
        <pt x="631" y="721" on="1"/>
      </contour>
    </TTGlyph>
    <TTGlyph name="Beta" xMin="207" yMin="0" xMax="1169" yMax="1462">
      <component glyphName="B" x="0" y="0" flags="0x204"/>
    </TTGlyph>
    <TTGlyph name="C" xMin="129" yMin="-20" xMax="1208" yMax="1483">
      <contour>
        <pt x="831" y="1391" on="1"/>
        <pt x="556" y="1391" on="0"/>
        <pt x="240" y="1039" on="0"/>
        <pt x="240" y="733" on="1"/>
        <pt x="240" y="420" on="0"/>
        <pt x="538" y="74" on="0"/>
        <pt x="815" y="74" on="1"/>
        <pt x="999" y="74" on="0"/>
        <pt x="1153" y="121" on="1"/>
        <pt x="1153" y="31" on="1"/>
        <pt x="1008" y="-20" on="0"/>
        <pt x="791" y="-20" on="1"/>
        <pt x="483" y="-20" on="0"/>
        <pt x="129" y="378" on="0"/>
        <pt x="129" y="735" on="1"/>
        <pt x="129" y="958" on="0"/>
        <pt x="298" y="1298" on="0"/>
        <pt x="615" y="1483" on="0"/>
        <pt x="825" y="1483" on="1"/>
        <pt x="1039" y="1483" on="0"/>
        <pt x="1208" y="1403" on="1"/>
        <pt x="1167" y="1311" on="1"/>
        <pt x="1007" y="1391" on="0"/>
      </contour>
    </TTGlyph>
    <TTGlyph name="Cacute" xMin="129" yMin="-20" xMax="1208" yMax="1907">
      <component glyphName="C" x="0" y="0" flags="0x204"/>
      <component glyphName="acute" x="264" y="338" flags="0x4"/>
    </TTGlyph>
    <TTGlyph name="Ccaron" xMin="129" yMin="-20" xMax="1208" yMax="1907">
      <component glyphName="C" x="0" y="0" flags="0x204"/>
      <component glyphName="caron" x="170" y="338" flags="0x4"/>
    </TTGlyph>
    <TTGlyph name="Ccedilla" xMin="129" yMin="-492" xMax="1208" yMax="1483">
      <component glyphName="C" x="0" y="0" flags="0x204"/>
      <component glyphName="cedilla" x="518" y="0" flags="0x4"/>
    </TTGlyph>
    <TTGlyph name="Ccircumflex" xMin="129" yMin="-20" xMax="1208" yMax="1907">
      <component glyphName="C" x="0" y="0" flags="0x204"/>
      <component glyphName="circumflex" x="174" y="338" flags="0x4"/>
    </TTGlyph>
    <TTGlyph name="Cdot" xMin="129" yMin="-20" xMax="1208" yMax="1823">
      <component glyphName="C" x="0" y="0" flags="0x204"/>
      <component glyphName="dotaccent" x="539" y="338" flags="0x4"/>
    </TTGlyph>
    <TTGlyph name="Chi" xMin="0" yMin="0" xMax="1102" yMax="1462">
      <component glyphName="X" x="0" y="0" flags="0x204"/>
    </TTGlyph>
    <TTGlyph name="D" xMin="207" yMin="0" xMax="1317" yMax="1462">
      <contour>
        <pt x="1317" y="745" on="1"/>
        <pt x="1317" y="377" on="0"/>
        <pt x="931" y="0" on="0"/>
        <pt x="557" y="0" on="1"/>
        <pt x="207" y="0" on="1"/>
        <pt x="207" y="1462" on="1"/>
        <pt x="602" y="1462" on="1"/>
        <pt x="952" y="1462" on="0"/>
        <pt x="1317" y="1096" on="0"/>
      </contour>
      <contour>
        <pt x="1206" y="741" on="1"/>
        <pt x="1206" y="1055" on="0"/>
        <pt x="887" y="1372" on="0"/>
        <pt x="578" y="1372" on="1"/>
        <pt x="309" y="1372" on="1"/>
        <pt x="309" y="90" on="1"/>
        <pt x="551" y="90" on="1"/>
        <pt x="1206" y="90" on="0"/>
      </contour>
    </TTGlyph>
    <TTGlyph name="Dcaron" xMin="207" yMin="0" xMax="1317" yMax="1907">
      <component glyphName="D" x="0" y="0" flags="0x204"/>
      <component glyphName="caron" x="80" y="338" flags="0x4"/>
    </TTGlyph>
    <TTGlyph name="Dcroat" xMin="47" yMin="0" xMax="1317" yMax="1462">
      <component glyphName="Eth" x="0" y="0" flags="0x204"/>
    </TTGlyph>
    <TTGlyph name="Delta" xMin="20" yMin="0" xMax="1149" yMax="1462">
      <contour>
        <pt x="20" y="59" on="1"/>
        <pt x="541" y="1462" on="1"/>
        <pt x="621" y="1462" on="1"/>
        <pt x="1149" y="57" on="1"/>
        <pt x="1149" y="0" on="1"/>
        <pt x="20" y="0" on="1"/>
      </contour>
      <contour>
        <pt x="580" y="1315" on="1"/>
        <pt x="527" y="1162" on="0"/>
        <pt x="139" y="96" on="1"/>
        <pt x="1028" y="96" on="1"/>
        <pt x="637" y="1150" on="0"/>
      </contour>
    </TTGlyph>
    <TTGlyph name="E" xMin="207" yMin="0" xMax="1006" yMax="1462">
      <contour>
        <pt x="1006" y="0" on="1"/>
        <pt x="207" y="0" on="1"/>
        <pt x="207" y="1462" on="1"/>
        <pt x="1006" y="1462" on="1"/>
        <pt x="1006" y="1368" on="1"/>
        <pt x="309" y="1368" on="1"/>
        <pt x="309" y="815" on="1"/>
        <pt x="967" y="815" on="1"/>
        <pt x="967" y="721" on="1"/>
        <pt x="309" y="721" on="1"/>
        <pt x="309" y="94" on="1"/>
        <pt x="1006" y="94" on="1"/>
      </contour>
    </TTGlyph>
    <TTGlyph name="Eacute" xMin="207" yMin="0" xMax="1006" yMax="1907">
      <component glyphName="E" x="0" y="0" flags="0x204"/>
      <component glyphName="acute" x="70" y="338" flags="0x4"/>
    </TTGlyph>
    <TTGlyph name="Ebreve" xMin="207" yMin="0" xMax="1006" yMax="1825">
      <component glyphName="E" x="0" y="0" flags="0x204"/>
      <component glyphName="breve" x="10" y="338" flags="0x4"/>
    </TTGlyph>
    <TTGlyph name="Ecaron" xMin="207" yMin="0" xMax="1006" yMax="1907">
      <component glyphName="E" x="0" y="0" flags="0x204"/>
      <component glyphName="caron" x="8" y="338" flags="0x4"/>
    </TTGlyph>
    <TTGlyph name="Ecircumflex" xMin="207" yMin="0" xMax="1006" yMax="1907">
      <component glyphName="E" x="0" y="0" flags="0x204"/>
      <component glyphName="circumflex" x="16" y="338" flags="0x4"/>
    </TTGlyph>
    <TTGlyph name="Edieresis" xMin="207" yMin="0" xMax="1006" yMax="1813">
      <component glyphName="E" x="0" y="0" flags="0x204"/>
      <component glyphName="dieresis" x="18" y="338" flags="0x4"/>
    </TTGlyph>
    <TTGlyph name="Edotaccent" xMin="207" yMin="0" xMax="1006" yMax="1794">
      <component glyphName="E" x="0" y="0" flags="0x204"/>
      <component glyphName="dotaccent" x="365" y="309" flags="0x4"/>
    </TTGlyph>
    <TTGlyph name="Egrave" xMin="207" yMin="0" xMax="1006" yMax="1907">
      <component glyphName="E" x="0" y="0" flags="0x204"/>
      <component glyphName="grave" x="-79" y="338" flags="0x4"/>
    </TTGlyph>
    <TTGlyph name="Emacron" xMin="207" yMin="0" xMax="1006" yMax="1671">
      <component glyphName="E" x="0" y="0" flags="0x204"/>
      <component glyphName="macron" x="29" y="338" flags="0x4"/>
    </TTGlyph>
    <TTGlyph name="Eng" xMin="207" yMin="-369" xMax="1270" yMax="1462">
      <contour>
        <pt x="1270" y="0" on="1"/>
        <pt x="1270" y="-369" on="0"/>
        <pt x="928" y="-369" on="1"/>
        <pt x="835" y="-369" on="0"/>
        <pt x="776" y="-342" on="1"/>
        <pt x="776" y="-254" on="1"/>
        <pt x="854" y="-274" on="0"/>
        <pt x="926" y="-274" on="1"/>
        <pt x="1167" y="-274" on="0"/>
        <pt x="1167" y="-10" on="1"/>
        <pt x="1167" y="0" on="1"/>
        <pt x="301" y="1298" on="1"/>
        <pt x="293" y="1298" on="1"/>
        <pt x="305" y="1066" on="0"/>
        <pt x="305" y="948" on="1"/>
        <pt x="305" y="0" on="1"/>
        <pt x="207" y="0" on="1"/>
        <pt x="207" y="1462" on="1"/>
        <pt x="309" y="1462" on="1"/>
        <pt x="1174" y="166" on="1"/>
        <pt x="1180" y="166" on="1"/>
        <pt x="1171" y="346" on="0"/>
        <pt x="1171" y="508" on="1"/>
        <pt x="1171" y="1462" on="1"/>
        <pt x="1270" y="1462" on="1"/>
      </contour>
    </TTGlyph>
    <TTGlyph name="Eogonek" xMin="207" yMin="-446" xMax="1006" yMax="1462">
      <component glyphName="E" x="0" y="0" flags="0x204"/>
      <component glyphName="ogonek" x="592" y="0" flags="0x4"/>
    </TTGlyph>
    <TTGlyph name="Epsilon" xMin="207" yMin="0" xMax="1006" yMax="1462">
      <component glyphName="E" x="0" y="0" flags="0x204"/>
    </TTGlyph>
    <TTGlyph name="Epsilontonos" xMin="-40" yMin="0" xMax="1096" yMax="1546">
      <component glyphName="E" x="90" y="0" flags="0x4"/>
      <component glyphName="tonos" x="-570" y="-105" flags="0x4"/>
    </TTGlyph>
    <TTGlyph name="Eta" xMin="207" yMin="0" xMax="1266" yMax="1462">
      <component glyphName="H" x="0" y="0" flags="0x204"/>
    </TTGlyph>
    <TTGlyph name="Etatonos" xMin="-40" yMin="0" xMax="1356" yMax="1546">
      <component glyphName="H" x="90" y="0" flags="0x4"/>
      <component glyphName="tonos" x="-570" y="-105" flags="0x4"/>
    </TTGlyph>
    <TTGlyph name="Eth" xMin="47" yMin="0" xMax="1317" yMax="1462">
      <contour>
        <pt x="1317" y="745" on="1"/>
        <pt x="1317" y="377" on="0"/>
        <pt x="931" y="0" on="0"/>
        <pt x="557" y="0" on="1"/>
        <pt x="207" y="0" on="1"/>
        <pt x="207" y="678" on="1"/>
        <pt x="47" y="678" on="1"/>
        <pt x="47" y="772" on="1"/>
        <pt x="207" y="772" on="1"/>
        <pt x="207" y="1462" on="1"/>
        <pt x="602" y="1462" on="1"/>
        <pt x="952" y="1462" on="0"/>
        <pt x="1317" y="1096" on="0"/>
      </contour>
      <contour>
        <pt x="1206" y="741" on="1"/>
        <pt x="1206" y="1055" on="0"/>
        <pt x="887" y="1372" on="0"/>
        <pt x="578" y="1372" on="1"/>
        <pt x="309" y="1372" on="1"/>
        <pt x="309" y="772" on="1"/>
        <pt x="715" y="772" on="1"/>
        <pt x="715" y="678" on="1"/>
        <pt x="309" y="678" on="1"/>
        <pt x="309" y="90" on="1"/>
        <pt x="551" y="90" on="1"/>
        <pt x="1206" y="90" on="0"/>
      </contour>
    </TTGlyph>
    <TTGlyph name="Euro" xMin="74" yMin="-20" xMax="1112" yMax="1485">
      <contour>
        <pt x="803" y="1397" on="1"/>
        <pt x="629" y="1397" on="0"/>
        <pt x="401" y="1146" on="0"/>
        <pt x="360" y="907" on="1"/>
        <pt x="862" y="907" on="1"/>
        <pt x="862" y="825" on="1"/>
        <pt x="352" y="825" on="1"/>
        <pt x="348" y="721" on="1"/>
        <pt x="348" y="697" on="1"/>
        <pt x="348" y="632" on="0"/>
        <pt x="352" y="610" on="1"/>
        <pt x="801" y="610" on="1"/>
        <pt x="801" y="528" on="1"/>
        <pt x="358" y="528" on="1"/>
        <pt x="388" y="311" on="0"/>
        <pt x="623" y="68" on="0"/>
        <pt x="807" y="68" on="1"/>
        <pt x="955" y="68" on="0"/>
        <pt x="1094" y="133" on="1"/>
        <pt x="1094" y="39" on="1"/>
        <pt x="1013" y="5" on="0"/>
        <pt x="874" y="-20" on="0"/>
        <pt x="803" y="-20" on="1"/>
        <pt x="575" y="-20" on="0"/>
        <pt x="296" y="260" on="0"/>
        <pt x="254" y="528" on="1"/>
        <pt x="74" y="528" on="1"/>
        <pt x="74" y="610" on="1"/>
        <pt x="246" y="610" on="1"/>
        <pt x="242" y="648" on="0"/>
        <pt x="242" y="723" on="1"/>
        <pt x="246" y="825" on="1"/>
        <pt x="74" y="825" on="1"/>
        <pt x="74" y="907" on="1"/>
        <pt x="258" y="907" on="1"/>
        <pt x="297" y="1179" on="0"/>
        <pt x="585" y="1485" on="0"/>
        <pt x="803" y="1485" on="1"/>
        <pt x="891" y="1485" on="0"/>
        <pt x="1037" y="1451" on="0"/>
        <pt x="1112" y="1411" on="1"/>
        <pt x="1073" y="1325" on="1"/>
        <pt x="941" y="1397" on="0"/>
      </contour>
    </TTGlyph>
    <TTGlyph name="F" xMin="207" yMin="0" xMax="1008" yMax="1462">
      <contour>
        <pt x="309" y="0" on="1"/>
        <pt x="207" y="0" on="1"/>
        <pt x="207" y="1462" on="1"/>
        <pt x="1008" y="1462" on="1"/>
        <pt x="1008" y="1368" on="1"/>
        <pt x="309" y="1368" on="1"/>
        <pt x="309" y="748" on="1"/>
        <pt x="969" y="748" on="1"/>
        <pt x="969" y="653" on="1"/>
        <pt x="309" y="653" on="1"/>
      </contour>
    </TTGlyph>
    <TTGlyph name="G" xMin="129" yMin="-20" xMax="1321" yMax="1485">
      <contour>
        <pt x="782" y="737" on="1"/>
        <pt x="1321" y="737" on="1"/>
        <pt x="1321" y="70" on="1"/>
        <pt x="1109" y="-20" on="0"/>
        <pt x="844" y="-20" on="1"/>
        <pt x="498" y="-20" on="0"/>
        <pt x="129" y="371" on="0"/>
        <pt x="129" y="729" on="1"/>
        <pt x="129" y="952" on="0"/>
        <pt x="312" y="1297" on="0"/>
        <pt x="653" y="1485" on="0"/>
        <pt x="874" y="1485" on="1"/>
        <pt x="1113" y="1485" on="0"/>
        <pt x="1303" y="1397" on="1"/>
        <pt x="1262" y="1305" on="1"/>
        <pt x="1072" y="1393" on="0"/>
        <pt x="868" y="1393" on="1"/>
        <pt x="579" y="1393" on="0"/>
        <pt x="240" y="1036" on="0"/>
        <pt x="240" y="733" on="1"/>
        <pt x="240" y="403" on="0"/>
        <pt x="562" y="70" on="0"/>
        <pt x="874" y="70" on="1"/>
        <pt x="1076" y="70" on="0"/>
        <pt x="1217" y="127" on="1"/>
        <pt x="1217" y="641" on="1"/>
        <pt x="782" y="641" on="1"/>
      </contour>
    </TTGlyph>
    <TTGlyph name="Gamma" xMin="207" yMin="0" xMax="1008" yMax="1462">
      <contour>
        <pt x="309" y="0" on="1"/>
        <pt x="207" y="0" on="1"/>
        <pt x="207" y="1462" on="1"/>
        <pt x="1008" y="1462" on="1"/>
        <pt x="1008" y="1368" on="1"/>
        <pt x="309" y="1368" on="1"/>
      </contour>
    </TTGlyph>
    <TTGlyph name="Gbreve" xMin="129" yMin="-20" xMax="1321" yMax="1825">
      <component glyphName="G" x="0" y="0" flags="0x204"/>
      <component glyphName="breve" x="213" y="338" flags="0x4"/>
    </TTGlyph>
    <TTGlyph name="Gcircumflex" xMin="129" yMin="-20" xMax="1321" yMax="1907">
      <component glyphName="G" x="0" y="0" flags="0x204"/>
      <component glyphName="circumflex" x="213" y="338" flags="0x4"/>
    </TTGlyph>
    <TTGlyph name="Gcommaaccent" xMin="129" yMin="-453" xMax="1321" yMax="1485">
      <component glyphName="G" x="0" y="0" flags="0x204"/>
      <component glyphName="commaaccent" x="287" y="0" flags="0x4"/>
    </TTGlyph>
    <TTGlyph name="Gdot" xMin="129" yMin="-20" xMax="1321" yMax="1823">
      <component glyphName="G" x="0" y="0" flags="0x204"/>
      <component glyphName="dotaccent" x="575" y="338" flags="0x4"/>
    </TTGlyph>
    <TTGlyph name="H" xMin="207" yMin="0" xMax="1266" yMax="1462">
      <contour>
        <pt x="1266" y="0" on="1"/>
        <pt x="1163" y="0" on="1"/>
        <pt x="1163" y="719" on="1"/>
        <pt x="309" y="719" on="1"/>
        <pt x="309" y="0" on="1"/>
        <pt x="207" y="0" on="1"/>
        <pt x="207" y="1462" on="1"/>
        <pt x="309" y="1462" on="1"/>
        <pt x="309" y="813" on="1"/>
        <pt x="1163" y="813" on="1"/>
        <pt x="1163" y="1462" on="1"/>
        <pt x="1266" y="1462" on="1"/>
      </contour>
    </TTGlyph>
    <TTGlyph name="Hbar" xMin="0" yMin="0" xMax="1473" yMax="1462">
      <contour>
        <pt x="207" y="1192" on="1"/>
        <pt x="207" y="1462" on="1"/>
        <pt x="309" y="1462" on="1"/>
        <pt x="309" y="1192" on="1"/>
        <pt x="1163" y="1192" on="1"/>
        <pt x="1163" y="1462" on="1"/>
        <pt x="1266" y="1462" on="1"/>
        <pt x="1266" y="1192" on="1"/>
        <pt x="1473" y="1192" on="1"/>
        <pt x="1473" y="1098" on="1"/>
        <pt x="1266" y="1098" on="1"/>
        <pt x="1266" y="0" on="1"/>
        <pt x="1163" y="0" on="1"/>
        <pt x="1163" y="719" on="1"/>
        <pt x="309" y="719" on="1"/>
        <pt x="309" y="0" on="1"/>
        <pt x="207" y="0" on="1"/>
        <pt x="207" y="1098" on="1"/>
        <pt x="0" y="1098" on="1"/>
        <pt x="0" y="1192" on="1"/>
      </contour>
      <contour>
        <pt x="1163" y="813" on="1"/>
        <pt x="1163" y="1098" on="1"/>
        <pt x="309" y="1098" on="1"/>
        <pt x="309" y="813" on="1"/>
      </contour>
    </TTGlyph>
    <TTGlyph name="Hcircumflex" xMin="207" yMin="0" xMax="1266" yMax="1907">
      <component glyphName="H" x="0" y="0" flags="0x204"/>
      <component glyphName="circumflex" x="145" y="338" flags="0x4"/>
    </TTGlyph>
    <TTGlyph name="I" xMin="207" yMin="0" xMax="309" yMax="1462">
      <contour>
        <pt x="207" y="0" on="1"/>
        <pt x="207" y="1462" on="1"/>
        <pt x="309" y="1462" on="1"/>
        <pt x="309" y="0" on="1"/>
      </contour>
    </TTGlyph>
    <TTGlyph name="I.alt" xMin="90" yMin="0" xMax="532" yMax="1462">
      <contour>
        <pt x="532" y="0" on="1"/>
        <pt x="90" y="0" on="1"/>
        <pt x="90" y="66" on="1"/>
        <pt x="260" y="86" on="1"/>
        <pt x="260" y="1376" on="1"/>
        <pt x="90" y="1397" on="1"/>
        <pt x="90" y="1462" on="1"/>
        <pt x="532" y="1462" on="1"/>
        <pt x="532" y="1397" on="1"/>
        <pt x="362" y="1376" on="1"/>
        <pt x="362" y="86" on="1"/>
        <pt x="532" y="66" on="1"/>
      </contour>
    </TTGlyph>
    <TTGlyph name="IJ" xMin="207" yMin="-369" xMax="825" yMax="1462">
      <component glyphName="I" x="0" y="0" flags="0x4"/>
      <component glyphName="J" x="516" y="0" flags="0x4"/>
    </TTGlyph>
    <TTGlyph name="IJ.alt" xMin="90" yMin="-369" xMax="932" yMax="1462">
      <component glyphName="I.alt" x="0" y="0" flags="0x4"/>
      <component glyphName="J" x="623" y="0" flags="0x4"/>
    </TTGlyph>
    <TTGlyph name="Iacute" xMin="191" yMin="0" xMax="574" yMax="1907">
      <component glyphName="I" x="0" y="0" flags="0x204"/>
      <component glyphName="acute" x="-202" y="338" flags="0x4"/>
    </TTGlyph>
    <TTGlyph name="Iacute.alt" xMin="90" yMin="0" xMax="607" yMax="1907">
      <component glyphName="I.alt" x="0" y="0" flags="0x204"/>
      <component glyphName="acute" x="-169" y="338" flags="0x4"/>
    </TTGlyph>
    <TTGlyph name="Ibreve" xMin="-18" yMin="0" xMax="535" yMax="1825">
      <component glyphName="I" x="0" y="0" flags="0x204"/>
      <component glyphName="breve" x="-329" y="338" flags="0x4"/>
    </TTGlyph>
    <TTGlyph name="Ibreve.alt" xMin="36" yMin="0" xMax="589" yMax="1825">
      <component glyphName="I.alt" x="0" y="0" flags="0x204"/>
      <component glyphName="breve" x="-275" y="338" flags="0x4"/>
    </TTGlyph>
    <TTGlyph name="Icircumflex" xMin="-32" yMin="0" xMax="550" yMax="1907">
      <component glyphName="I" x="0" y="0" flags="0x204"/>
      <component glyphName="circumflex" x="-331" y="338" flags="0x4"/>
    </TTGlyph>
    <TTGlyph name="Icircumflex.alt" xMin="21" yMin="0" xMax="603" yMax="1907">
      <component glyphName="I.alt" x="0" y="0" flags="0x204"/>
      <component glyphName="circumflex" x="-278" y="338" flags="0x4"/>
    </TTGlyph>
    <TTGlyph name="Idieresis" xMin="5" yMin="0" xMax="513" yMax="1813">
      <component glyphName="I" x="0" y="0" flags="0x204"/>
      <component glyphName="dieresis" x="-331" y="338" flags="0x4"/>
    </TTGlyph>
    <TTGlyph name="Idieresis.alt" xMin="58" yMin="0" xMax="566" yMax="1813">
      <component glyphName="I.alt" x="0" y="0" flags="0x204"/>
      <component glyphName="dieresis" x="-278" y="338" flags="0x4"/>
    </TTGlyph>
    <TTGlyph name="Idotaccent" xMin="194" yMin="0" xMax="323" yMax="1823">
      <component glyphName="I" x="0" y="0" flags="0x204"/>
      <component glyphName="dotaccent" x="16" y="338" flags="0x4"/>
    </TTGlyph>
    <TTGlyph name="Idotaccent.alt" xMin="90" yMin="0" xMax="532" yMax="1823">
      <component glyphName="I.alt" x="0" y="0" flags="0x204"/>
      <component glyphName="dotaccent" x="70" y="338" flags="0x4"/>
    </TTGlyph>
    <TTGlyph name="Igrave" xMin="-63" yMin="0" xMax="320" yMax="1907">
      <component glyphName="I" x="0" y="0" flags="0x204"/>
      <component glyphName="grave" x="-456" y="338" flags="0x4"/>
    </TTGlyph>
    <TTGlyph name="Igrave.alt" xMin="52" yMin="0" xMax="532" yMax="1907">
      <component glyphName="I.alt" x="0" y="0" flags="0x204"/>
      <component glyphName="grave" x="-341" y="338" flags="0x4"/>
    </TTGlyph>
    <TTGlyph name="Imacron" xMin="-17" yMin="0" xMax="538" yMax="1671">
      <component glyphName="I" x="0" y="0" flags="0x204"/>
      <component glyphName="macron" x="-310" y="338" flags="0x4"/>
    </TTGlyph>
    <TTGlyph name="Imacron.alt" xMin="36" yMin="0" xMax="591" yMax="1671">
      <component glyphName="I.alt" x="0" y="0" flags="0x204"/>
      <component glyphName="macron" x="-257" y="338" flags="0x4"/>
    </TTGlyph>
    <TTGlyph name="Iogonek" xMin="65" yMin="-446" xMax="352" yMax="1462">
      <component glyphName="I" x="0" y="0" flags="0x204"/>
      <component glyphName="ogonek" x="2" y="0" flags="0x4"/>
    </TTGlyph>
    <TTGlyph name="Iogonek.alt" xMin="90" yMin="-446" xMax="532" yMax="1462">
      <component glyphName="I.alt" x="0" y="0" flags="0x204"/>
      <component glyphName="ogonek" x="102" y="0" flags="0x4"/>
    </TTGlyph>
    <TTGlyph name="Iota" xMin="207" yMin="0" xMax="309" yMax="1462">
      <component glyphName="I" x="0" y="0" flags="0x204"/>
    </TTGlyph>
    <TTGlyph name="Iota.alt" xMin="90" yMin="0" xMax="532" yMax="1462">
      <component glyphName="I.alt" x="0" y="0" flags="0x204"/>
    </TTGlyph>
    <TTGlyph name="Iotadieresis" xMin="5" yMin="0" xMax="513" yMax="1813">
      <component glyphName="I" x="0" y="0" flags="0x204"/>
      <component glyphName="dieresis" x="-331" y="338" flags="0x4"/>
    </TTGlyph>
    <TTGlyph name="Iotadieresis.alt" xMin="58" yMin="0" xMax="566" yMax="1813">
      <component glyphName="I.alt" x="0" y="0" flags="0x204"/>
      <component glyphName="dieresis" x="-278" y="338" flags="0x4"/>
    </TTGlyph>
    <TTGlyph name="Iotatonos" xMin="-40" yMin="0" xMax="395" yMax="1546">
      <component glyphName="I" x="86" y="0" flags="0x4"/>
      <component glyphName="tonos" x="-570" y="-105" flags="0x4"/>
    </TTGlyph>
    <TTGlyph name="Iotatonos.alt" xMin="-40" yMin="0" xMax="710" yMax="1546">
      <component glyphName="I.alt" x="178" y="0" flags="0x4"/>
      <component glyphName="tonos" x="-570" y="-105" flags="0x4"/>
    </TTGlyph>
    <TTGlyph name="Itilde" xMin="-78" yMin="0" xMax="620" yMax="1819">
      <component glyphName="I" x="0" y="0" flags="0x204"/>
      <component glyphName="tilde" x="-361" y="338" flags="0x4"/>
    </TTGlyph>
    <TTGlyph name="Itilde.alt" xMin="-25" yMin="0" xMax="673" yMax="1819">
      <component glyphName="I.alt" x="0" y="0" flags="0x204"/>
      <component glyphName="tilde" x="-308" y="338" flags="0x4"/>
    </TTGlyph>
    <TTGlyph name="J" xMin="-184" yMin="-369" xMax="309" yMax="1462">
      <contour>
        <pt x="-33" y="-369" on="1"/>
        <pt x="-125" y="-369" on="0"/>
        <pt x="-184" y="-342" on="1"/>
        <pt x="-184" y="-254" on="1"/>
        <pt x="-106" y="-274" on="0"/>
        <pt x="-35" y="-274" on="1"/>
        <pt x="207" y="-274" on="0"/>
        <pt x="207" y="-10" on="1"/>
        <pt x="207" y="1462" on="1"/>
        <pt x="309" y="1462" on="1"/>
        <pt x="309" y="0" on="1"/>
        <pt x="309" y="-369" on="0"/>
      </contour>
    </TTGlyph>
    <TTGlyph name="Jcircumflex" xMin="-184" yMin="-369" xMax="548" yMax="1907">
      <component glyphName="J" x="0" y="0" flags="0x204"/>
      <component glyphName="circumflex" x="-333" y="338" flags="0x4"/>
    </TTGlyph>
    <TTGlyph name="K" xMin="207" yMin="0" xMax="1190" yMax="1462">
      <contour>
        <pt x="1190" y="0" on="1"/>
        <pt x="1065" y="0" on="1"/>
        <pt x="504" y="772" on="1"/>
        <pt x="309" y="600" on="1"/>
        <pt x="309" y="0" on="1"/>
        <pt x="207" y="0" on="1"/>
        <pt x="207" y="1462" on="1"/>
        <pt x="309" y="1462" on="1"/>
        <pt x="309" y="702" on="1"/>
        <pt x="471" y="864" on="1"/>
        <pt x="1044" y="1462" on="1"/>
        <pt x="1174" y="1462" on="1"/>
        <pt x="575" y="844" on="1"/>
      </contour>
    </TTGlyph>
    <TTGlyph name="Kappa" xMin="207" yMin="0" xMax="1190" yMax="1462">
      <component glyphName="K" x="0" y="0" flags="0x204"/>
    </TTGlyph>
    <TTGlyph name="Kcommaaccent" xMin="207" yMin="-453" xMax="1190" yMax="1462">
      <component glyphName="K" x="0" y="0" flags="0x204"/>
      <component glyphName="commaaccent" x="129" y="0" flags="0x4"/>
    </TTGlyph>
    <TTGlyph name="L" xMin="207" yMin="0" xMax="1006" yMax="1462">
      <contour>
        <pt x="207" y="0" on="1"/>
        <pt x="207" y="1462" on="1"/>
        <pt x="309" y="1462" on="1"/>
        <pt x="309" y="96" on="1"/>
        <pt x="1006" y="96" on="1"/>
        <pt x="1006" y="0" on="1"/>
      </contour>
    </TTGlyph>
    <TTGlyph name="Lacute" xMin="207" yMin="0" xMax="1006" yMax="1907">
      <component glyphName="L" x="0" y="0" flags="0x204"/>
      <component glyphName="acute" x="-167" y="338" flags="0x4"/>
    </TTGlyph>
    <TTGlyph name="Lambda" xMin="0" yMin="0" xMax="1229" yMax="1468">
      <contour>
        <pt x="113" y="0" on="1"/>
        <pt x="0" y="0" on="1"/>
        <pt x="596" y="1468" on="1"/>
        <pt x="645" y="1468" on="1"/>
        <pt x="1229" y="0" on="1"/>
        <pt x="1114" y="0" on="1"/>
        <pt x="678" y="1120" on="1"/>
        <pt x="655" y="1180" on="0"/>
        <pt x="618" y="1292" on="1"/>
        <pt x="589" y="1192" on="0"/>
        <pt x="559" y="1118" on="1"/>
      </contour>
    </TTGlyph>
    <TTGlyph name="Lcaron" xMin="207" yMin="0" xMax="1006" yMax="1463">
      <component glyphName="L" x="0" y="0" flags="0x204"/>
      <component glyphName="caroncommaaccent" x="264" y="-93" flags="0x4"/>
    </TTGlyph>
    <TTGlyph name="Lcommaaccent" xMin="207" yMin="-453" xMax="1006" yMax="1462">
      <component glyphName="L" x="0" y="0" flags="0x204"/>
      <component glyphName="commaaccent" x="66" y="0" flags="0x4"/>
    </TTGlyph>
    <TTGlyph name="Ldot" xMin="207" yMin="0" xMax="1006" yMax="1462">
      <component glyphName="L" x="0" y="0" flags="0x204"/>
      <component glyphName="dotaccent" x="514" y="-661" flags="0x4"/>
    </TTGlyph>
    <TTGlyph name="Lslash" xMin="29" yMin="0" xMax="1006" yMax="1462">
      <contour>
        <pt x="207" y="0" on="1"/>
        <pt x="207" y="551" on="1"/>
        <pt x="70" y="465" on="1"/>
        <pt x="29" y="539" on="1"/>
        <pt x="207" y="651" on="1"/>
        <pt x="207" y="1462" on="1"/>
        <pt x="309" y="1462" on="1"/>
        <pt x="309" y="715" on="1"/>
        <pt x="633" y="920" on="1"/>
        <pt x="680" y="844" on="1"/>
        <pt x="309" y="614" on="1"/>
        <pt x="309" y="96" on="1"/>
        <pt x="1006" y="96" on="1"/>
        <pt x="1006" y="0" on="1"/>
      </contour>
    </TTGlyph>
    <TTGlyph name="M" xMin="207" yMin="0" xMax="1561" yMax="1462">
      <contour>
        <pt x="850" y="0" on="1"/>
        <pt x="305" y="1350" on="1"/>
        <pt x="297" y="1350" on="1"/>
        <pt x="305" y="1226" on="0"/>
        <pt x="305" y="1096" on="1"/>
        <pt x="305" y="0" on="1"/>
        <pt x="207" y="0" on="1"/>
        <pt x="207" y="1462" on="1"/>
        <pt x="365" y="1462" on="1"/>
        <pt x="883" y="176" on="1"/>
        <pt x="889" y="176" on="1"/>
        <pt x="1407" y="1462" on="1"/>
        <pt x="1561" y="1462" on="1"/>
        <pt x="1561" y="0" on="1"/>
        <pt x="1458" y="0" on="1"/>
        <pt x="1458" y="1108" on="1"/>
        <pt x="1458" y="1224" on="0"/>
        <pt x="1470" y="1348" on="1"/>
        <pt x="1462" y="1348" on="1"/>
        <pt x="915" y="0" on="1"/>
      </contour>
    </TTGlyph>
    <TTGlyph name="Mu" xMin="207" yMin="0" xMax="1561" yMax="1462">
      <component glyphName="M" x="0" y="0" flags="0x204"/>
    </TTGlyph>
    <TTGlyph name="N" xMin="207" yMin="0" xMax="1270" yMax="1462">
      <contour>
        <pt x="1270" y="0" on="1"/>
        <pt x="1167" y="0" on="1"/>
        <pt x="301" y="1298" on="1"/>
        <pt x="293" y="1298" on="1"/>
        <pt x="305" y="1066" on="0"/>
        <pt x="305" y="948" on="1"/>
        <pt x="305" y="0" on="1"/>
        <pt x="207" y="0" on="1"/>
        <pt x="207" y="1462" on="1"/>
        <pt x="309" y="1462" on="1"/>
        <pt x="1174" y="166" on="1"/>
        <pt x="1180" y="166" on="1"/>
        <pt x="1171" y="346" on="0"/>
        <pt x="1171" y="508" on="1"/>
        <pt x="1171" y="1462" on="1"/>
        <pt x="1270" y="1462" on="1"/>
      </contour>
    </TTGlyph>
    <TTGlyph name="Nacute" xMin="207" yMin="0" xMax="1270" yMax="1907">
      <component glyphName="N" x="0" y="0" flags="0x204"/>
      <component glyphName="acute" x="225" y="338" flags="0x4"/>
    </TTGlyph>
    <TTGlyph name="Ncaron" xMin="207" yMin="0" xMax="1270" yMax="1907">
      <component glyphName="N" x="0" y="0" flags="0x204"/>
      <component glyphName="caron" x="147" y="338" flags="0x4"/>
    </TTGlyph>
    <TTGlyph name="Ncommaaccent" xMin="207" yMin="-453" xMax="1270" yMax="1462">
      <component glyphName="N" x="0" y="0" flags="0x204"/>
      <component glyphName="commaaccent" x="203" y="0" flags="0x4"/>
    </TTGlyph>
    <TTGlyph name="Ntilde" xMin="207" yMin="0" xMax="1270" yMax="1819">
      <component glyphName="N" x="0" y="0" flags="0x204"/>
      <component glyphName="tilde" x="117" y="338" flags="0x4"/>
    </TTGlyph>
    <TTGlyph name="Nu" xMin="207" yMin="0" xMax="1270" yMax="1462">
      <component glyphName="N" x="0" y="0" flags="0x204"/>
    </TTGlyph>
    <TTGlyph name="O" xMin="129" yMin="-20" xMax="1436" yMax="1485">
      <contour>
        <pt x="1436" y="733" on="1"/>
        <pt x="1436" y="385" on="0"/>
        <pt x="1088" y="-20" on="0"/>
        <pt x="782" y="-20" on="1"/>
        <pt x="477" y="-20" on="0"/>
        <pt x="129" y="385" on="0"/>
        <pt x="129" y="735" on="1"/>
        <pt x="129" y="1084" on="0"/>
        <pt x="480" y="1485" on="0"/>
        <pt x="784" y="1485" on="1"/>
        <pt x="1090" y="1485" on="0"/>
        <pt x="1436" y="1082" on="0"/>
      </contour>
      <contour>
        <pt x="240" y="733" on="1"/>
        <pt x="240" y="419" on="0"/>
        <pt x="520" y="76" on="0"/>
        <pt x="782" y="76" on="1"/>
        <pt x="1046" y="76" on="0"/>
        <pt x="1325" y="416" on="0"/>
        <pt x="1325" y="733" on="1"/>
        <pt x="1325" y="1049" on="0"/>
        <pt x="1046" y="1386" on="0"/>
        <pt x="784" y="1386" on="1"/>
        <pt x="523" y="1386" on="0"/>
        <pt x="240" y="1046" on="0"/>
      </contour>
    </TTGlyph>
    <TTGlyph name="OE" xMin="129" yMin="-16" xMax="1714" yMax="1479">
      <contour>
        <pt x="1714" y="0" on="1"/>
        <pt x="958" y="0" on="1"/>
        <pt x="882" y="-16" on="0"/>
        <pt x="782" y="-16" on="1"/>
        <pt x="477" y="-16" on="0"/>
        <pt x="129" y="384" on="0"/>
        <pt x="129" y="735" on="1"/>
        <pt x="129" y="1082" on="0"/>
        <pt x="478" y="1479" on="0"/>
        <pt x="784" y="1479" on="1"/>
        <pt x="862" y="1479" on="0"/>
        <pt x="967" y="1462" on="1"/>
        <pt x="1714" y="1462" on="1"/>
        <pt x="1714" y="1368" on="1"/>
        <pt x="1059" y="1368" on="1"/>
        <pt x="1059" y="815" on="1"/>
        <pt x="1675" y="815" on="1"/>
        <pt x="1675" y="721" on="1"/>
        <pt x="1059" y="721" on="1"/>
        <pt x="1059" y="94" on="1"/>
        <pt x="1714" y="94" on="1"/>
      </contour>
      <contour>
        <pt x="782" y="80" on="1"/>
        <pt x="891" y="80" on="0"/>
        <pt x="956" y="98" on="1"/>
        <pt x="956" y="1364" on="1"/>
        <pt x="894" y="1380" on="0"/>
        <pt x="784" y="1380" on="1"/>
        <pt x="522" y="1380" on="0"/>
        <pt x="240" y="1045" on="0"/>
        <pt x="240" y="733" on="1"/>
        <pt x="240" y="418" on="0"/>
        <pt x="521" y="80" on="0"/>
      </contour>
    </TTGlyph>
    <TTGlyph name="Oacute" xMin="129" yMin="-20" xMax="1436" yMax="1907">
      <component glyphName="O" x="0" y="0" flags="0x204"/>
      <component glyphName="acute" x="293" y="338" flags="0x4"/>
    </TTGlyph>
    <TTGlyph name="Obreve" xMin="129" yMin="-20" xMax="1436" yMax="1825">
      <component glyphName="O" x="0" y="0" flags="0x204"/>
      <component glyphName="breve" x="195" y="338" flags="0x4"/>
    </TTGlyph>
    <TTGlyph name="Ocircumflex" xMin="129" yMin="-20" xMax="1436" yMax="1907">
      <component glyphName="O" x="0" y="0" flags="0x204"/>
      <component glyphName="circumflex" x="193" y="338" flags="0x4"/>
    </TTGlyph>
    <TTGlyph name="Odieresis" xMin="129" yMin="-20" xMax="1436" yMax="1813">
      <component glyphName="O" x="0" y="0" flags="0x204"/>
      <component glyphName="dieresis" x="193" y="338" flags="0x4"/>
    </TTGlyph>
    <TTGlyph name="Ograve" xMin="129" yMin="-20" xMax="1436" yMax="1907">
      <component glyphName="O" x="0" y="0" flags="0x204"/>
      <component glyphName="grave" x="109" y="338" flags="0x4"/>
    </TTGlyph>
    <TTGlyph name="Ohorn" xMin="129" yMin="-20" xMax="1561" yMax="1556">
      <contour>
        <pt x="1436" y="733" on="1"/>
        <pt x="1436" y="385" on="0"/>
        <pt x="1088" y="-20" on="0"/>
        <pt x="782" y="-20" on="1"/>
        <pt x="477" y="-20" on="0"/>
        <pt x="129" y="385" on="0"/>
        <pt x="129" y="735" on="1"/>
        <pt x="129" y="1084" on="0"/>
        <pt x="480" y="1485" on="0"/>
        <pt x="784" y="1485" on="1"/>
        <pt x="1114" y="1485" on="0"/>
        <pt x="1284" y="1255" on="1"/>
        <pt x="1365" y="1276" on="0"/>
        <pt x="1444" y="1418" on="0"/>
        <pt x="1444" y="1556" on="1"/>
        <pt x="1548" y="1556" on="1"/>
        <pt x="1561" y="1538" on="1"/>
        <pt x="1551" y="1391" on="0"/>
        <pt x="1436" y="1221" on="0"/>
        <pt x="1329" y="1186" on="1"/>
        <pt x="1436" y="1004" on="0"/>
      </contour>
      <contour>
        <pt x="240" y="733" on="1"/>
        <pt x="240" y="419" on="0"/>
        <pt x="520" y="76" on="0"/>
        <pt x="782" y="76" on="1"/>
        <pt x="1046" y="76" on="0"/>
        <pt x="1325" y="416" on="0"/>
        <pt x="1325" y="733" on="1"/>
        <pt x="1325" y="1049" on="0"/>
        <pt x="1046" y="1386" on="0"/>
        <pt x="784" y="1386" on="1"/>
        <pt x="523" y="1386" on="0"/>
        <pt x="240" y="1046" on="0"/>
      </contour>
    </TTGlyph>
    <TTGlyph name="Ohungarumlaut" xMin="129" yMin="-20" xMax="1436" yMax="1907">
      <component glyphName="O" x="0" y="0" flags="0x204"/>
      <component glyphName="hungarumlaut" x="276" y="338" flags="0x4"/>
    </TTGlyph>
    <TTGlyph name="Omacron" xMin="129" yMin="-20" xMax="1436" yMax="1671">
      <component glyphName="O" x="0" y="0" flags="0x204"/>
      <component glyphName="macron" x="213" y="338" flags="0x4"/>
    </TTGlyph>
    <TTGlyph name="Omega" xMin="82" yMin="0" xMax="1505" yMax="1485">
      <component glyphName="uni03A9" x="0" y="0" flags="0x204"/>
    </TTGlyph>
    <TTGlyph name="Omegatonos" xMin="-40" yMin="0" xMax="1525" yMax="1546">
      <component glyphName="uni03A9" x="20" y="0" flags="0x4"/>
      <component glyphName="tonos" x="-570" y="-105" flags="0x4"/>
    </TTGlyph>
    <TTGlyph name="Omicron" xMin="129" yMin="-20" xMax="1436" yMax="1485">
      <component glyphName="O" x="0" y="0" flags="0x204"/>
    </TTGlyph>
    <TTGlyph name="Omicrontonos" xMin="-40" yMin="-20" xMax="1448" yMax="1546">
      <component glyphName="O" x="12" y="0" flags="0x4"/>
      <component glyphName="tonos" x="-570" y="-105" flags="0x4"/>
    </TTGlyph>
    <TTGlyph name="Oslash" xMin="129" yMin="-20" xMax="1436" yMax="1516">
      <contour>
        <pt x="1436" y="733" on="1"/>
        <pt x="1436" y="385" on="0"/>
        <pt x="1088" y="-20" on="0"/>
        <pt x="782" y="-20" on="1"/>
        <pt x="546" y="-20" on="0"/>
        <pt x="387" y="100" on="1"/>
        <pt x="301" y="-20" on="1"/>
        <pt x="227" y="39" on="1"/>
        <pt x="317" y="166" on="1"/>
        <pt x="129" y="366" on="0"/>
        <pt x="129" y="735" on="1"/>
        <pt x="129" y="1084" on="0"/>
        <pt x="480" y="1485" on="0"/>
        <pt x="784" y="1485" on="1"/>
        <pt x="1016" y="1485" on="0"/>
        <pt x="1176" y="1364" on="1"/>
        <pt x="1284" y="1516" on="1"/>
        <pt x="1356" y="1456" on="1"/>
        <pt x="1245" y="1303" on="1"/>
        <pt x="1436" y="1096" on="0"/>
      </contour>
      <contour>
        <pt x="1325" y="733" on="1"/>
        <pt x="1325" y="1048" on="0"/>
        <pt x="1186" y="1219" on="1"/>
        <pt x="444" y="182" on="1"/>
        <pt x="577" y="76" on="0"/>
        <pt x="782" y="76" on="1"/>
        <pt x="1046" y="76" on="0"/>
        <pt x="1325" y="416" on="0"/>
      </contour>
      <contour>
        <pt x="240" y="733" on="1"/>
        <pt x="240" y="421" on="0"/>
        <pt x="379" y="250" on="1"/>
        <pt x="1118" y="1284" on="1"/>
        <pt x="985" y="1386" on="0"/>
        <pt x="784" y="1386" on="1"/>
        <pt x="523" y="1386" on="0"/>
        <pt x="240" y="1046" on="0"/>
      </contour>
    </TTGlyph>
    <TTGlyph name="Oslashacute" xMin="129" yMin="-20" xMax="1436" yMax="1907">
      <component glyphName="Oslash" x="0" y="0" flags="0x204"/>
      <component glyphName="acute" x="293" y="338" flags="0x4"/>
    </TTGlyph>
    <TTGlyph name="Otilde" xMin="129" yMin="-20" xMax="1436" yMax="1819">
      <component glyphName="O" x="0" y="0" flags="0x204"/>
      <component glyphName="tilde" x="160" y="338" flags="0x4"/>
    </TTGlyph>
    <TTGlyph name="P" xMin="207" yMin="0" xMax="1087" yMax="1462">
      <contour>
        <pt x="1087" y="1042" on="1"/>
        <pt x="1087" y="830" on="0"/>
        <pt x="799" y="604" on="0"/>
        <pt x="535" y="604" on="1"/>
        <pt x="309" y="604" on="1"/>
        <pt x="309" y="0" on="1"/>
        <pt x="207" y="0" on="1"/>
        <pt x="207" y="1462" on="1"/>
        <pt x="565" y="1462" on="1"/>
        <pt x="1087" y="1462" on="0"/>
      </contour>
      <contour>
        <pt x="309" y="692" on="1"/>
        <pt x="510" y="692" on="1"/>
        <pt x="757" y="692" on="0"/>
        <pt x="977" y="855" on="0"/>
        <pt x="977" y="1038" on="1"/>
        <pt x="977" y="1207" on="0"/>
        <pt x="769" y="1370" on="0"/>
        <pt x="551" y="1370" on="1"/>
        <pt x="309" y="1370" on="1"/>
      </contour>
    </TTGlyph>
    <TTGlyph name="Phi" xMin="111" yMin="-20" xMax="1450" yMax="1483">
      <contour>
        <pt x="729" y="1483" on="1"/>
        <pt x="831" y="1483" on="1"/>
        <pt x="831" y="1303" on="1"/>
        <pt x="874" y="1303" on="1"/>
        <pt x="1149" y="1303" on="0"/>
        <pt x="1450" y="1021" on="0"/>
        <pt x="1450" y="770" on="1"/>
        <pt x="1450" y="596" on="0"/>
        <pt x="1311" y="342" on="0"/>
        <pt x="1038" y="205" on="0"/>
        <pt x="842" y="205" on="1"/>
        <pt x="831" y="205" on="1"/>
        <pt x="831" y="-20" on="1"/>
        <pt x="729" y="-20" on="1"/>
        <pt x="729" y="205" on="1"/>
        <pt x="711" y="205" on="1"/>
        <pt x="518" y="205" on="0"/>
        <pt x="249" y="341" on="0"/>
        <pt x="111" y="587" on="0"/>
        <pt x="111" y="758" on="1"/>
        <pt x="111" y="914" on="0"/>
        <pt x="251" y="1165" on="0"/>
        <pt x="513" y="1303" on="0"/>
        <pt x="692" y="1303" on="1"/>
        <pt x="729" y="1303" on="1"/>
      </contour>
      <contour>
        <pt x="831" y="289" on="1"/>
        <pt x="846" y="289" on="1"/>
        <pt x="1082" y="289" on="0"/>
        <pt x="1339" y="538" on="0"/>
        <pt x="1339" y="766" on="1"/>
        <pt x="1339" y="985" on="0"/>
        <pt x="1099" y="1219" on="0"/>
        <pt x="874" y="1219" on="1"/>
        <pt x="831" y="1219" on="1"/>
      </contour>
      <contour>
        <pt x="729" y="1219" on="1"/>
        <pt x="688" y="1219" on="1"/>
        <pt x="469" y="1219" on="0"/>
        <pt x="221" y="975" on="0"/>
        <pt x="221" y="764" on="1"/>
        <pt x="221" y="537" on="0"/>
        <pt x="478" y="289" on="0"/>
        <pt x="713" y="289" on="1"/>
        <pt x="729" y="289" on="1"/>
      </contour>
    </TTGlyph>
    <TTGlyph name="Pi" xMin="207" yMin="0" xMax="1255" yMax="1462">
      <contour>
        <pt x="1255" y="0" on="1"/>
        <pt x="1153" y="0" on="1"/>
        <pt x="1153" y="1366" on="1"/>
        <pt x="309" y="1366" on="1"/>
        <pt x="309" y="0" on="1"/>
        <pt x="207" y="0" on="1"/>
        <pt x="207" y="1462" on="1"/>
        <pt x="1255" y="1462" on="1"/>
      </contour>
    </TTGlyph>
    <TTGlyph name="Psi" xMin="123" yMin="0" xMax="1421" yMax="1462">
      <contour>
        <pt x="823" y="0" on="1"/>
        <pt x="721" y="0" on="1"/>
        <pt x="721" y="453" on="1"/>
        <pt x="694" y="453" on="1"/>
        <pt x="414" y="453" on="0"/>
        <pt x="123" y="714" on="0"/>
        <pt x="123" y="979" on="1"/>
        <pt x="123" y="1462" on="1"/>
        <pt x="225" y="1462" on="1"/>
        <pt x="225" y="983" on="1"/>
        <pt x="225" y="757" on="0"/>
        <pt x="459" y="543" on="0"/>
        <pt x="698" y="543" on="1"/>
        <pt x="721" y="543" on="1"/>
        <pt x="721" y="1462" on="1"/>
        <pt x="823" y="1462" on="1"/>
        <pt x="823" y="543" on="1"/>
        <pt x="846" y="543" on="1"/>
        <pt x="1085" y="543" on="0"/>
        <pt x="1319" y="757" on="0"/>
        <pt x="1319" y="983" on="1"/>
        <pt x="1319" y="1462" on="1"/>
        <pt x="1421" y="1462" on="1"/>
        <pt x="1421" y="979" on="1"/>
        <pt x="1421" y="714" on="0"/>
        <pt x="1129" y="453" on="0"/>
        <pt x="850" y="453" on="1"/>
        <pt x="823" y="453" on="1"/>
      </contour>
    </TTGlyph>
    <TTGlyph name="Q" xMin="129" yMin="-348" xMax="1436" yMax="1485">
      <contour>
        <pt x="1436" y="733" on="1"/>
        <pt x="1436" y="439" on="0"/>
        <pt x="1184" y="54" on="0"/>
        <pt x="961" y="0" on="1"/>
        <pt x="1294" y="-348" on="1"/>
        <pt x="1128" y="-348" on="1"/>
        <pt x="846" y="-18" on="1"/>
        <pt x="813" y="-20" on="1"/>
        <pt x="782" y="-20" on="1"/>
        <pt x="477" y="-20" on="0"/>
        <pt x="129" y="385" on="0"/>
        <pt x="129" y="735" on="1"/>
        <pt x="129" y="1084" on="0"/>
        <pt x="480" y="1485" on="0"/>
        <pt x="784" y="1485" on="1"/>
        <pt x="1090" y="1485" on="0"/>
        <pt x="1436" y="1082" on="0"/>
      </contour>
      <contour>
        <pt x="240" y="733" on="1"/>
        <pt x="240" y="419" on="0"/>
        <pt x="520" y="76" on="0"/>
        <pt x="782" y="76" on="1"/>
        <pt x="1046" y="76" on="0"/>
        <pt x="1325" y="416" on="0"/>
        <pt x="1325" y="733" on="1"/>
        <pt x="1325" y="1049" on="0"/>
        <pt x="1046" y="1386" on="0"/>
        <pt x="784" y="1386" on="1"/>
        <pt x="523" y="1386" on="0"/>
        <pt x="240" y="1046" on="0"/>
      </contour>
    </TTGlyph>
    <TTGlyph name="R" xMin="207" yMin="0" xMax="1171" yMax="1462">
      <contour>
        <pt x="309" y="637" on="1"/>
        <pt x="309" y="0" on="1"/>
        <pt x="207" y="0" on="1"/>
        <pt x="207" y="1462" on="1"/>
        <pt x="555" y="1462" on="1"/>
        <pt x="827" y="1462" on="0"/>
        <pt x="1087" y="1261" on="0"/>
        <pt x="1087" y="1059" on="1"/>
        <pt x="1087" y="912" on="0"/>
        <pt x="932" y="710" on="0"/>
        <pt x="774" y="666" on="1"/>
        <pt x="1171" y="0" on="1"/>
        <pt x="1049" y="0" on="1"/>
        <pt x="672" y="637" on="1"/>
      </contour>
      <contour>
        <pt x="309" y="725" on="1"/>
        <pt x="588" y="725" on="1"/>
        <pt x="773" y="725" on="0"/>
        <pt x="977" y="890" on="0"/>
        <pt x="977" y="1051" on="1"/>
        <pt x="977" y="1218" on="0"/>
        <pt x="777" y="1370" on="0"/>
        <pt x="551" y="1370" on="1"/>
        <pt x="309" y="1370" on="1"/>
      </contour>
    </TTGlyph>
    <TTGlyph name="Racute" xMin="207" yMin="0" xMax="1171" yMax="1907">
      <component glyphName="R" x="0" y="0" flags="0x204"/>
      <component glyphName="acute" x="98" y="338" flags="0x4"/>
    </TTGlyph>
    <TTGlyph name="Rcaron" xMin="207" yMin="0" xMax="1171" yMax="1907">
      <component glyphName="R" x="0" y="0" flags="0x204"/>
      <component glyphName="caron" x="14" y="338" flags="0x4"/>
    </TTGlyph>
    <TTGlyph name="Rcommaaccent" xMin="207" yMin="-453" xMax="1171" yMax="1462">
      <component glyphName="R" x="0" y="0" flags="0x204"/>
      <component glyphName="commaaccent" x="129" y="0" flags="0x4"/>
    </TTGlyph>
    <TTGlyph name="Rho" xMin="207" yMin="0" xMax="1087" yMax="1462">
      <component glyphName="P" x="0" y="0" flags="0x204"/>
    </TTGlyph>
    <TTGlyph name="S" xMin="111" yMin="-20" xMax="1014" yMax="1483">
      <contour>
        <pt x="1014" y="377" on="1"/>
        <pt x="1014" y="194" on="0"/>
        <pt x="745" y="-20" on="0"/>
        <pt x="522" y="-20" on="1"/>
        <pt x="254" y="-20" on="0"/>
        <pt x="111" y="39" on="1"/>
        <pt x="111" y="141" on="1"/>
        <pt x="269" y="74" on="0"/>
        <pt x="514" y="74" on="1"/>
        <pt x="694" y="74" on="0"/>
        <pt x="905" y="239" on="0"/>
        <pt x="905" y="373" on="1"/>
        <pt x="905" y="456" on="0"/>
        <pt x="835" y="565" on="0"/>
        <pt x="677" y="655" on="0"/>
        <pt x="524" y="707" on="1"/>
        <pt x="300" y="784" on="0"/>
        <pt x="129" y="963" on="0"/>
        <pt x="129" y="1112" on="1"/>
        <pt x="129" y="1276" on="0"/>
        <pt x="386" y="1483" on="0"/>
        <pt x="588" y="1483" on="1"/>
        <pt x="794" y="1483" on="0"/>
        <pt x="975" y="1405" on="1"/>
        <pt x="938" y="1317" on="1"/>
        <pt x="756" y="1393" on="0"/>
        <pt x="590" y="1393" on="1"/>
        <pt x="428" y="1393" on="0"/>
        <pt x="236" y="1243" on="0"/>
        <pt x="236" y="1114" on="1"/>
        <pt x="236" y="1033" on="0"/>
        <pt x="295" y="929" on="0"/>
        <pt x="429" y="846" on="0"/>
        <pt x="592" y="788" on="1"/>
        <pt x="763" y="729" on="0"/>
        <pt x="935" y="618" on="0"/>
        <pt x="1014" y="477" on="0"/>
      </contour>
    </TTGlyph>
    <TTGlyph name="Sacute" xMin="111" yMin="-20" xMax="1014" yMax="1907">
      <component glyphName="S" x="0" y="0" flags="0x204"/>
      <component glyphName="acute" x="63" y="338" flags="0x4"/>
    </TTGlyph>
    <TTGlyph name="Scaron" xMin="111" yMin="-20" xMax="1014" yMax="1907">
      <component glyphName="S" x="0" y="0" flags="0x204"/>
      <component glyphName="caron" x="-22" y="338" flags="0x4"/>
    </TTGlyph>
    <TTGlyph name="Scedilla" xMin="111" yMin="-492" xMax="1014" yMax="1483">
      <component glyphName="S" x="0" y="0" flags="0x204"/>
      <component glyphName="cedilla" x="326" y="0" flags="0x4"/>
    </TTGlyph>
    <TTGlyph name="Scircumflex" xMin="111" yMin="-20" xMax="1014" yMax="1907">
      <component glyphName="S" x="0" y="0" flags="0x204"/>
      <component glyphName="circumflex" x="-19" y="338" flags="0x4"/>
    </TTGlyph>
    <TTGlyph name="Scommaaccent" xMin="111" yMin="-453" xMax="1014" yMax="1483">
      <component glyphName="S" x="0" y="0" flags="0x204"/>
      <component glyphName="commaaccent" x="33" y="0" flags="0x4"/>
    </TTGlyph>
    <TTGlyph name="Sigma" xMin="61" yMin="0" xMax="1098" yMax="1462">
      <contour>
        <pt x="61" y="0" on="1"/>
        <pt x="61" y="84" on="1"/>
        <pt x="594" y="760" on="1"/>
        <pt x="74" y="1380" on="1"/>
        <pt x="74" y="1462" on="1"/>
        <pt x="1038" y="1462" on="1"/>
        <pt x="1038" y="1368" on="1"/>
        <pt x="391" y="1368" on="1"/>
        <pt x="209" y="1370" on="1"/>
        <pt x="723" y="766" on="1"/>
        <pt x="193" y="94" on="1"/>
        <pt x="1098" y="94" on="1"/>
        <pt x="1098" y="0" on="1"/>
      </contour>
    </TTGlyph>
    <TTGlyph name="T" xMin="10" yMin="0" xMax="1063" yMax="1462">
      <contour>
        <pt x="588" y="0" on="1"/>
        <pt x="485" y="0" on="1"/>
        <pt x="485" y="1366" on="1"/>
        <pt x="10" y="1366" on="1"/>
        <pt x="10" y="1462" on="1"/>
        <pt x="1063" y="1462" on="1"/>
        <pt x="1063" y="1366" on="1"/>
        <pt x="588" y="1366" on="1"/>
      </contour>
    </TTGlyph>
    <TTGlyph name="Tau" xMin="10" yMin="0" xMax="1063" yMax="1462">
      <component glyphName="T" x="0" y="0" flags="0x204"/>
    </TTGlyph>
    <TTGlyph name="Tbar" xMin="10" yMin="0" xMax="1063" yMax="1462">
      <contour>
        <pt x="588" y="793" on="1"/>
        <pt x="942" y="793" on="1"/>
        <pt x="942" y="698" on="1"/>
        <pt x="588" y="698" on="1"/>
        <pt x="588" y="0" on="1"/>
        <pt x="485" y="0" on="1"/>
        <pt x="485" y="698" on="1"/>
        <pt x="127" y="698" on="1"/>
        <pt x="127" y="793" on="1"/>
        <pt x="485" y="793" on="1"/>
        <pt x="485" y="1366" on="1"/>
        <pt x="10" y="1366" on="1"/>
        <pt x="10" y="1462" on="1"/>
        <pt x="1063" y="1462" on="1"/>
        <pt x="1063" y="1366" on="1"/>
        <pt x="588" y="1366" on="1"/>
      </contour>
    </TTGlyph>
    <TTGlyph name="Tcaron" xMin="10" yMin="0" xMax="1063" yMax="1907">
      <component glyphName="T" x="0" y="0" flags="0x204"/>
      <component glyphName="caron" x="-52" y="338" flags="0x4"/>
    </TTGlyph>
    <TTGlyph name="Tcedilla" xMin="10" yMin="-492" xMax="1063" yMax="1462">
      <component glyphName="T" x="0" y="0" flags="0x204"/>
      <component glyphName="cedilla" x="293" y="0" flags="0x4"/>
    </TTGlyph>
    <TTGlyph name="Tcommaaccent" xMin="10" yMin="-453" xMax="1063" yMax="1462">
      <component glyphName="T" x="0" y="0" flags="0x204"/>
      <component glyphName="commaaccent" x="8" y="0" flags="0x4"/>
    </TTGlyph>
    <TTGlyph name="Theta" xMin="129" yMin="-20" xMax="1436" yMax="1485">
      <contour>
        <pt x="449" y="793" on="1"/>
        <pt x="1114" y="793" on="1"/>
        <pt x="1114" y="698" on="1"/>
        <pt x="449" y="698" on="1"/>
      </contour>
      <contour>
        <pt x="1436" y="733" on="1"/>
        <pt x="1436" y="385" on="0"/>
        <pt x="1088" y="-20" on="0"/>
        <pt x="782" y="-20" on="1"/>
        <pt x="477" y="-20" on="0"/>
        <pt x="129" y="385" on="0"/>
        <pt x="129" y="735" on="1"/>
        <pt x="129" y="1084" on="0"/>
        <pt x="480" y="1485" on="0"/>
        <pt x="784" y="1485" on="1"/>
        <pt x="1090" y="1485" on="0"/>
        <pt x="1436" y="1082" on="0"/>
      </contour>
      <contour>
        <pt x="240" y="733" on="1"/>
        <pt x="240" y="419" on="0"/>
        <pt x="520" y="76" on="0"/>
        <pt x="782" y="76" on="1"/>
        <pt x="1046" y="76" on="0"/>
        <pt x="1325" y="416" on="0"/>
        <pt x="1325" y="733" on="1"/>
        <pt x="1325" y="1049" on="0"/>
        <pt x="1046" y="1386" on="0"/>
        <pt x="784" y="1386" on="1"/>
        <pt x="523" y="1386" on="0"/>
        <pt x="240" y="1046" on="0"/>
      </contour>
    </TTGlyph>
    <TTGlyph name="Thorn" xMin="207" yMin="0" xMax="1087" yMax="1462">
      <contour>
        <pt x="1087" y="778" on="1"/>
        <pt x="1087" y="566" on="0"/>
        <pt x="799" y="340" on="0"/>
        <pt x="535" y="340" on="1"/>
        <pt x="309" y="340" on="1"/>
        <pt x="309" y="0" on="1"/>
        <pt x="207" y="0" on="1"/>
        <pt x="207" y="1462" on="1"/>
        <pt x="309" y="1462" on="1"/>
        <pt x="309" y="1198" on="1"/>
        <pt x="565" y="1198" on="1"/>
        <pt x="1087" y="1198" on="0"/>
      </contour>
      <contour>
        <pt x="309" y="428" on="1"/>
        <pt x="510" y="428" on="1"/>
        <pt x="757" y="428" on="0"/>
        <pt x="977" y="591" on="0"/>
        <pt x="977" y="774" on="1"/>
        <pt x="977" y="943" on="0"/>
        <pt x="769" y="1106" on="0"/>
        <pt x="551" y="1106" on="1"/>
        <pt x="309" y="1106" on="1"/>
      </contour>
    </TTGlyph>
    <TTGlyph name="U" xMin="190" yMin="-20" xMax="1282" yMax="1462">
      <contour>
        <pt x="1282" y="1462" on="1"/>
        <pt x="1282" y="516" on="1"/>
        <pt x="1282" y="264" on="0"/>
        <pt x="990" y="-20" on="0"/>
        <pt x="729" y="-20" on="1"/>
        <pt x="475" y="-20" on="0"/>
        <pt x="190" y="265" on="0"/>
        <pt x="190" y="520" on="1"/>
        <pt x="190" y="1462" on="1"/>
        <pt x="293" y="1462" on="1"/>
        <pt x="293" y="516" on="1"/>
        <pt x="293" y="305" on="0"/>
        <pt x="527" y="70" on="0"/>
        <pt x="741" y="70" on="1"/>
        <pt x="950" y="70" on="0"/>
        <pt x="1180" y="301" on="0"/>
        <pt x="1180" y="506" on="1"/>
        <pt x="1180" y="1462" on="1"/>
      </contour>
    </TTGlyph>
    <TTGlyph name="Uacute" xMin="190" yMin="-20" xMax="1282" yMax="1907">
      <component glyphName="U" x="0" y="0" flags="0x204"/>
      <component glyphName="acute" x="240" y="338" flags="0x4"/>
    </TTGlyph>
    <TTGlyph name="Ubreve" xMin="190" yMin="-20" xMax="1282" yMax="1825">
      <component glyphName="U" x="0" y="0" flags="0x204"/>
      <component glyphName="breve" x="147" y="338" flags="0x4"/>
    </TTGlyph>
    <TTGlyph name="Ucircumflex" xMin="190" yMin="-20" xMax="1282" yMax="1907">
      <component glyphName="U" x="0" y="0" flags="0x204"/>
      <component glyphName="circumflex" x="145" y="338" flags="0x4"/>
    </TTGlyph>
    <TTGlyph name="Udieresis" xMin="190" yMin="-20" xMax="1282" yMax="1813">
      <component glyphName="U" x="0" y="0" flags="0x204"/>
      <component glyphName="dieresis" x="145" y="338" flags="0x4"/>
    </TTGlyph>
    <TTGlyph name="Ugrave" xMin="190" yMin="-20" xMax="1282" yMax="1907">
      <component glyphName="U" x="0" y="0" flags="0x204"/>
      <component glyphName="grave" x="57" y="338" flags="0x4"/>
    </TTGlyph>
    <TTGlyph name="Uhorn" xMin="190" yMin="-20" xMax="1571" yMax="1556">
      <contour>
        <pt x="1282" y="1462" on="1"/>
        <pt x="1282" y="1255" on="1"/>
        <pt x="1371" y="1274" on="0"/>
        <pt x="1454" y="1414" on="0"/>
        <pt x="1454" y="1556" on="1"/>
        <pt x="1559" y="1556" on="1"/>
        <pt x="1571" y="1538" on="1"/>
        <pt x="1559" y="1371" on="0"/>
        <pt x="1412" y="1196" on="0"/>
        <pt x="1282" y="1171" on="1"/>
        <pt x="1282" y="516" on="1"/>
        <pt x="1282" y="264" on="0"/>
        <pt x="990" y="-20" on="0"/>
        <pt x="729" y="-20" on="1"/>
        <pt x="475" y="-20" on="0"/>
        <pt x="190" y="265" on="0"/>
        <pt x="190" y="520" on="1"/>
        <pt x="190" y="1462" on="1"/>
        <pt x="293" y="1462" on="1"/>
        <pt x="293" y="516" on="1"/>
        <pt x="293" y="305" on="0"/>
        <pt x="527" y="70" on="0"/>
        <pt x="741" y="70" on="1"/>
        <pt x="950" y="70" on="0"/>
        <pt x="1180" y="301" on="0"/>
        <pt x="1180" y="506" on="1"/>
        <pt x="1180" y="1462" on="1"/>
      </contour>
    </TTGlyph>
    <TTGlyph name="Uhungarumlaut" xMin="190" yMin="-20" xMax="1282" yMax="1907">
      <component glyphName="U" x="0" y="0" flags="0x204"/>
      <component glyphName="hungarumlaut" x="217" y="338" flags="0x4"/>
    </TTGlyph>
    <TTGlyph name="Umacron" xMin="190" yMin="-20" xMax="1282" yMax="1671">
      <component glyphName="U" x="0" y="0" flags="0x204"/>
      <component glyphName="macron" x="166" y="338" flags="0x4"/>
    </TTGlyph>
    <TTGlyph name="Uogonek" xMin="190" yMin="-446" xMax="1282" yMax="1462">
      <component glyphName="U" x="0" y="0" flags="0x204"/>
      <component glyphName="ogonek" x="535" y="0" flags="0x4"/>
    </TTGlyph>
    <TTGlyph name="Upsilon" xMin="0" yMin="0" xMax="1081" yMax="1462">
      <component glyphName="Y" x="0" y="0" flags="0x204"/>
    </TTGlyph>
    <TTGlyph name="Upsilondieresis" xMin="0" yMin="0" xMax="1081" yMax="1813">
      <component glyphName="Y" x="0" y="0" flags="0x204"/>
      <component glyphName="dieresis" x="-48" y="338" flags="0x4"/>
    </TTGlyph>
    <TTGlyph name="Upsilontonos" xMin="-40" yMin="0" xMax="1321" yMax="1546">
      <component glyphName="Y" x="240" y="0" flags="0x4"/>
      <component glyphName="tonos" x="-570" y="-105" flags="0x4"/>
    </TTGlyph>
    <TTGlyph name="Uring" xMin="190" yMin="-20" xMax="1282" yMax="2005">
      <component glyphName="U" x="0" y="0" flags="0x204"/>
      <component glyphName="ring" x="147" y="338" flags="0x4"/>
    </TTGlyph>
    <TTGlyph name="Utilde" xMin="190" yMin="-20" xMax="1282" yMax="1819">
      <component glyphName="U" x="0" y="0" flags="0x204"/>
      <component glyphName="tilde" x="113" y="338" flags="0x4"/>
    </TTGlyph>
    <TTGlyph name="V" xMin="0" yMin="0" xMax="1182" yMax="1462">
      <contour>
        <pt x="1071" y="1462" on="1"/>
        <pt x="1182" y="1462" on="1"/>
        <pt x="635" y="0" on="1"/>
        <pt x="545" y="0" on="1"/>
        <pt x="0" y="1462" on="1"/>
        <pt x="109" y="1462" on="1"/>
        <pt x="477" y="467" on="1"/>
        <pt x="561" y="242" on="0"/>
        <pt x="590" y="129" on="1"/>
        <pt x="610" y="204" on="0"/>
        <pt x="669" y="362" on="1"/>
      </contour>
    </TTGlyph>
    <TTGlyph name="W" xMin="51" yMin="0" xMax="1776" yMax="1462">
      <contour>
        <pt x="1372" y="0" on="1"/>
        <pt x="1288" y="0" on="1"/>
        <pt x="967" y="1128" on="1"/>
        <pt x="927" y="1267" on="0"/>
        <pt x="907" y="1356" on="1"/>
        <pt x="891" y="1269" on="0"/>
        <pt x="832" y="1043" on="0"/>
        <pt x="539" y="0" on="1"/>
        <pt x="453" y="0" on="1"/>
        <pt x="51" y="1462" on="1"/>
        <pt x="158" y="1462" on="1"/>
        <pt x="414" y="520" on="1"/>
        <pt x="429" y="463" on="0"/>
        <pt x="455" y="366" on="0"/>
        <pt x="476" y="281" on="0"/>
        <pt x="493" y="202" on="0"/>
        <pt x="500" y="162" on="1"/>
        <pt x="524" y="298" on="0"/>
        <pt x="602" y="575" on="1"/>
        <pt x="852" y="1462" on="1"/>
        <pt x="965" y="1462" on="1"/>
        <pt x="1258" y="444" on="1"/>
        <pt x="1309" y="268" on="0"/>
        <pt x="1331" y="160" on="1"/>
        <pt x="1344" y="232" on="0"/>
        <pt x="1385" y="394" on="0"/>
        <pt x="1673" y="1462" on="1"/>
        <pt x="1776" y="1462" on="1"/>
      </contour>
    </TTGlyph>
    <TTGlyph name="Wacute" xMin="51" yMin="0" xMax="1776" yMax="1907">
      <component glyphName="W" x="0" y="0" flags="0x204"/>
      <component glyphName="acute" x="422" y="338" flags="0x4"/>
    </TTGlyph>
    <TTGlyph name="Wcircumflex" xMin="51" yMin="0" xMax="1776" yMax="1907">
      <component glyphName="W" x="0" y="0" flags="0x204"/>
      <component glyphName="circumflex" x="319" y="338" flags="0x4"/>
    </TTGlyph>
    <TTGlyph name="Wdieresis" xMin="51" yMin="0" xMax="1776" yMax="1813">
      <component glyphName="W" x="0" y="0" flags="0x204"/>
      <component glyphName="dieresis" x="319" y="338" flags="0x4"/>
    </TTGlyph>
    <TTGlyph name="Wgrave" xMin="51" yMin="0" xMax="1776" yMax="1907">
      <component glyphName="W" x="0" y="0" flags="0x204"/>
      <component glyphName="grave" x="252" y="338" flags="0x4"/>
    </TTGlyph>
    <TTGlyph name="X" xMin="0" yMin="0" xMax="1102" yMax="1462">
      <contour>
        <pt x="1102" y="0" on="1"/>
        <pt x="985" y="0" on="1"/>
        <pt x="553" y="682" on="1"/>
        <pt x="113" y="0" on="1"/>
        <pt x="0" y="0" on="1"/>
        <pt x="492" y="762" on="1"/>
        <pt x="45" y="1462" on="1"/>
        <pt x="160" y="1462" on="1"/>
        <pt x="555" y="836" on="1"/>
        <pt x="956" y="1462" on="1"/>
        <pt x="1065" y="1462" on="1"/>
        <pt x="612" y="764" on="1"/>
      </contour>
    </TTGlyph>
    <TTGlyph name="Xi" xMin="41" yMin="0" xMax="1047" yMax="1462">
      <contour>
        <pt x="164" y="815" on="1"/>
        <pt x="924" y="815" on="1"/>
        <pt x="924" y="721" on="1"/>
        <pt x="164" y="721" on="1"/>
      </contour>
      <contour>
        <pt x="82" y="1462" on="1"/>
        <pt x="1006" y="1462" on="1"/>
        <pt x="1006" y="1368" on="1"/>
        <pt x="82" y="1368" on="1"/>
      </contour>
      <contour>
        <pt x="1047" y="94" on="1"/>
        <pt x="1047" y="0" on="1"/>
        <pt x="41" y="0" on="1"/>
        <pt x="41" y="94" on="1"/>
      </contour>
    </TTGlyph>
    <TTGlyph name="Y" xMin="0" yMin="0" xMax="1081" yMax="1462">
      <contour>
        <pt x="543" y="662" on="1"/>
        <pt x="971" y="1462" on="1"/>
        <pt x="1081" y="1462" on="1"/>
        <pt x="594" y="565" on="1"/>
        <pt x="594" y="0" on="1"/>
        <pt x="489" y="0" on="1"/>
        <pt x="489" y="557" on="1"/>
        <pt x="0" y="1462" on="1"/>
        <pt x="117" y="1462" on="1"/>
      </contour>
    </TTGlyph>
    <TTGlyph name="Yacute" xMin="0" yMin="0" xMax="1081" yMax="1907">
      <component glyphName="Y" x="0" y="0" flags="0x204"/>
      <component glyphName="acute" x="41" y="338" flags="0x4"/>
    </TTGlyph>
    <TTGlyph name="Ycircumflex" xMin="0" yMin="0" xMax="1081" yMax="1907">
      <component glyphName="Y" x="0" y="0" flags="0x204"/>
      <component glyphName="circumflex" x="-48" y="338" flags="0x4"/>
    </TTGlyph>
    <TTGlyph name="Ydieresis" xMin="0" yMin="0" xMax="1081" yMax="1813">
      <component glyphName="Y" x="0" y="0" flags="0x204"/>
      <component glyphName="dieresis" x="-48" y="338" flags="0x4"/>
    </TTGlyph>
    <TTGlyph name="Ygrave" xMin="0" yMin="0" xMax="1081" yMax="1907">
      <component glyphName="Y" x="0" y="0" flags="0x204"/>
      <component glyphName="grave" x="-130" y="338" flags="0x4"/>
    </TTGlyph>
    <TTGlyph name="Z" xMin="82" yMin="0" xMax="1098" yMax="1462">
      <contour>
        <pt x="1098" y="0" on="1"/>
        <pt x="82" y="0" on="1"/>
        <pt x="82" y="76" on="1"/>
        <pt x="938" y="1366" on="1"/>
        <pt x="121" y="1366" on="1"/>
        <pt x="121" y="1462" on="1"/>
        <pt x="1075" y="1462" on="1"/>
        <pt x="1075" y="1386" on="1"/>
        <pt x="217" y="96" on="1"/>
        <pt x="1098" y="96" on="1"/>
      </contour>
    </TTGlyph>
    <TTGlyph name="Zacute" xMin="82" yMin="0" xMax="1098" yMax="1907">
      <component glyphName="Z" x="0" y="0" flags="0x204"/>
      <component glyphName="acute" x="88" y="338" flags="0x4"/>
    </TTGlyph>
    <TTGlyph name="Zcaron" xMin="82" yMin="0" xMax="1098" yMax="1907">
      <component glyphName="Z" x="0" y="0" flags="0x204"/>
      <component glyphName="caron" x="10" y="338" flags="0x4"/>
    </TTGlyph>
    <TTGlyph name="Zdotaccent" xMin="82" yMin="0" xMax="1098" yMax="1823">
      <component glyphName="Z" x="0" y="0" flags="0x204"/>
      <component glyphName="dotaccent" x="348" y="338" flags="0x4"/>
    </TTGlyph>
    <TTGlyph name="Zeta" xMin="82" yMin="0" xMax="1098" yMax="1462">
      <component glyphName="Z" x="0" y="0" flags="0x204"/>
    </TTGlyph>
    <TTGlyph name="a" xMin="98" yMin="-20" xMax="915" yMax="1106">
      <contour>
        <pt x="842" y="0" on="1"/>
        <pt x="817" y="172" on="1"/>
        <pt x="809" y="172" on="1"/>
        <pt x="727" y="67" on="0"/>
        <pt x="554" y="-20" on="0"/>
        <pt x="436" y="-20" on="1"/>
        <pt x="276" y="-20" on="0"/>
        <pt x="98" y="144" on="0"/>
        <pt x="98" y="289" on="1"/>
        <pt x="98" y="448" on="0"/>
        <pt x="363" y="624" on="0"/>
        <pt x="614" y="629" on="1"/>
        <pt x="821" y="635" on="1"/>
        <pt x="821" y="707" on="1"/>
        <pt x="821" y="862" on="0"/>
        <pt x="695" y="1020" on="0"/>
        <pt x="555" y="1020" on="1"/>
        <pt x="404" y="1020" on="0"/>
        <pt x="242" y="936" on="1"/>
        <pt x="205" y="1022" on="1"/>
        <pt x="384" y="1106" on="0"/>
        <pt x="559" y="1106" on="1"/>
        <pt x="738" y="1106" on="0"/>
        <pt x="915" y="920" on="0"/>
        <pt x="915" y="723" on="1"/>
        <pt x="915" y="0" on="1"/>
      </contour>
      <contour>
        <pt x="442" y="70" on="1"/>
        <pt x="616" y="70" on="0"/>
        <pt x="817" y="269" on="0"/>
        <pt x="817" y="446" on="1"/>
        <pt x="817" y="553" on="1"/>
        <pt x="627" y="545" on="1"/>
        <pt x="398" y="534" on="0"/>
        <pt x="203" y="413" on="0"/>
        <pt x="203" y="285" on="1"/>
        <pt x="203" y="183" on="0"/>
        <pt x="328" y="70" on="0"/>
      </contour>
    </TTGlyph>
    <TTGlyph name="aacute" xMin="98" yMin="-20" xMax="915" yMax="1569">
      <component glyphName="a" x="0" y="0" flags="0x204"/>
      <component glyphName="acute" x="29" y="0" flags="0x4"/>
    </TTGlyph>
    <TTGlyph name="abreve" xMin="98" yMin="-20" xMax="915" yMax="1487">
      <component glyphName="a" x="0" y="0" flags="0x204"/>
      <component glyphName="breve" x="-34" y="0" flags="0x4"/>
    </TTGlyph>
    <TTGlyph name="acircumflex" xMin="98" yMin="-20" xMax="915" yMax="1569">
      <component glyphName="a" x="0" y="0" flags="0x204"/>
      <component glyphName="circumflex" x="-48" y="0" flags="0x4"/>
    </TTGlyph>
    <TTGlyph name="acute" xMin="393" yMin="1241" xMax="776" yMax="1569">
      <contour>
        <pt x="393" y="1257" on="1"/>
        <pt x="466" y="1336" on="0"/>
        <pt x="609" y="1521" on="0"/>
        <pt x="635" y="1569" on="1"/>
        <pt x="776" y="1569" on="1"/>
        <pt x="776" y="1552" on="1"/>
        <pt x="740" y="1500" on="0"/>
        <pt x="567" y="1328" on="0"/>
        <pt x="463" y="1241" on="1"/>
        <pt x="393" y="1241" on="1"/>
      </contour>
    </TTGlyph>
    <TTGlyph name="adieresis" xMin="98" yMin="-20" xMax="915" yMax="1475">
      <component glyphName="a" x="0" y="0" flags="0x204"/>
      <component glyphName="dieresis" x="-54" y="0" flags="0x4"/>
    </TTGlyph>
    <TTGlyph name="ae" xMin="98" yMin="-20" xMax="1612" yMax="1108">
      <contour>
        <pt x="1243" y="-20" on="1"/>
        <pt x="948" y="-20" on="0"/>
        <pt x="846" y="236" on="1"/>
        <pt x="778" y="103" on="0"/>
        <pt x="578" y="-20" on="0"/>
        <pt x="426" y="-20" on="1"/>
        <pt x="270" y="-20" on="0"/>
        <pt x="98" y="145" on="0"/>
        <pt x="98" y="289" on="1"/>
        <pt x="98" y="443" on="0"/>
        <pt x="348" y="621" on="0"/>
        <pt x="600" y="629" on="1"/>
        <pt x="801" y="635" on="1"/>
        <pt x="801" y="707" on="1"/>
        <pt x="801" y="862" on="0"/>
        <pt x="678" y="1020" on="0"/>
        <pt x="541" y="1020" on="1"/>
        <pt x="393" y="1020" on="0"/>
        <pt x="236" y="936" on="1"/>
        <pt x="199" y="1022" on="1"/>
        <pt x="372" y="1106" on="0"/>
        <pt x="545" y="1106" on="1"/>
        <pt x="806" y="1106" on="0"/>
        <pt x="870" y="895" on="1"/>
        <pt x="981" y="1108" on="0"/>
        <pt x="1217" y="1108" on="1"/>
        <pt x="1401" y="1108" on="0"/>
        <pt x="1612" y="839" on="0"/>
        <pt x="1612" y="610" on="1"/>
        <pt x="1612" y="530" on="1"/>
        <pt x="897" y="530" on="1"/>
        <pt x="897" y="70" on="0"/>
        <pt x="1245" y="70" on="1"/>
        <pt x="1330" y="70" on="0"/>
        <pt x="1460" y="94" on="0"/>
        <pt x="1569" y="139" on="1"/>
        <pt x="1569" y="49" on="1"/>
        <pt x="1477" y="8" on="0"/>
        <pt x="1331" y="-20" on="0"/>
      </contour>
      <contour>
        <pt x="434" y="70" on="1"/>
        <pt x="603" y="70" on="0"/>
        <pt x="797" y="269" on="0"/>
        <pt x="797" y="446" on="1"/>
        <pt x="797" y="553" on="1"/>
        <pt x="610" y="545" on="1"/>
        <pt x="391" y="534" on="0"/>
        <pt x="203" y="413" on="0"/>
        <pt x="203" y="285" on="1"/>
        <pt x="203" y="183" on="0"/>
        <pt x="325" y="70" on="0"/>
      </contour>
      <contour>
        <pt x="1217" y="1020" on="1"/>
        <pt x="933" y="1020" on="0"/>
        <pt x="903" y="618" on="1"/>
        <pt x="1507" y="618" on="1"/>
        <pt x="1507" y="806" on="0"/>
        <pt x="1352" y="1020" on="0"/>
      </contour>
    </TTGlyph>
    <TTGlyph name="aeacute" xMin="98" yMin="-20" xMax="1612" yMax="1569">
      <component glyphName="ae" x="0" y="0" flags="0x204"/>
      <component glyphName="acute" x="381" y="0" flags="0x4"/>
    </TTGlyph>
    <TTGlyph name="afii00208" xMin="82" yMin="512" xMax="1966" yMax="594">
      <component glyphName="emdash" x="0" y="0" flags="0x204"/>
    </TTGlyph>
    <TTGlyph name="afii08941" xMin="78" yMin="0" xMax="1073" yMax="1481">
      <contour>
        <pt x="412" y="799" on="1"/>
        <pt x="412" y="584" on="1"/>
        <pt x="823" y="584" on="1"/>
        <pt x="823" y="502" on="1"/>
        <pt x="412" y="502" on="1"/>
        <pt x="412" y="420" on="1"/>
        <pt x="412" y="304" on="0"/>
        <pt x="342" y="144" on="0"/>
        <pt x="264" y="96" on="1"/>
        <pt x="1073" y="96" on="1"/>
        <pt x="1073" y="0" on="1"/>
        <pt x="78" y="0" on="1"/>
        <pt x="78" y="84" on="1"/>
        <pt x="188" y="105" on="0"/>
        <pt x="311" y="283" on="0"/>
        <pt x="311" y="418" on="1"/>
        <pt x="311" y="502" on="1"/>
        <pt x="100" y="502" on="1"/>
        <pt x="100" y="584" on="1"/>
        <pt x="311" y="584" on="1"/>
        <pt x="311" y="799" on="1"/>
        <pt x="100" y="799" on="1"/>
        <pt x="100" y="881" on="1"/>
        <pt x="311" y="881" on="1"/>
        <pt x="311" y="1055" on="1"/>
        <pt x="311" y="1259" on="0"/>
        <pt x="507" y="1481" on="0"/>
        <pt x="690" y="1481" on="1"/>
        <pt x="865" y="1481" on="0"/>
        <pt x="1020" y="1413" on="1"/>
        <pt x="985" y="1327" on="1"/>
        <pt x="828" y="1393" on="0"/>
        <pt x="690" y="1393" on="1"/>
        <pt x="549" y="1393" on="0"/>
        <pt x="412" y="1231" on="0"/>
        <pt x="412" y="1059" on="1"/>
        <pt x="412" y="881" on="1"/>
        <pt x="823" y="881" on="1"/>
        <pt x="823" y="799" on="1"/>
      </contour>
    </TTGlyph>
    <TTGlyph name="afii10017" xMin="0" yMin="0" xMax="1229" yMax="1468">
      <component glyphName="A" x="0" y="0" flags="0x204"/>
    </TTGlyph>
    <TTGlyph name="afii10018" xMin="207" yMin="0" xMax="1106" yMax="1462">
      <contour>
        <pt x="602" y="817" on="1"/>
        <pt x="854" y="817" on="0"/>
        <pt x="1106" y="626" on="0"/>
        <pt x="1106" y="420" on="1"/>
        <pt x="1106" y="218" on="0"/>
        <pt x="857" y="0" on="0"/>
        <pt x="625" y="0" on="1"/>
        <pt x="207" y="0" on="1"/>
        <pt x="207" y="1462" on="1"/>
        <pt x="1028" y="1462" on="1"/>
        <pt x="1028" y="1366" on="1"/>
        <pt x="309" y="1366" on="1"/>
        <pt x="309" y="817" on="1"/>
      </contour>
      <contour>
        <pt x="309" y="90" on="1"/>
        <pt x="608" y="90" on="1"/>
        <pt x="805" y="90" on="0"/>
        <pt x="995" y="249" on="0"/>
        <pt x="995" y="420" on="1"/>
        <pt x="995" y="585" on="0"/>
        <pt x="803" y="727" on="0"/>
        <pt x="588" y="727" on="1"/>
        <pt x="309" y="727" on="1"/>
      </contour>
    </TTGlyph>
    <TTGlyph name="afii10019" xMin="207" yMin="0" xMax="1169" yMax="1462">
      <component glyphName="B" x="0" y="0" flags="0x204"/>
    </TTGlyph>
    <TTGlyph name="afii10020" xMin="207" yMin="0" xMax="1008" yMax="1462">
      <component glyphName="Gamma" x="0" y="0" flags="0x204"/>
    </TTGlyph>
    <TTGlyph name="afii10021" xMin="14" yMin="-369" xMax="1276" yMax="1462">
      <contour>
        <pt x="1276" y="-369" on="1"/>
        <pt x="1178" y="-369" on="1"/>
        <pt x="1178" y="0" on="1"/>
        <pt x="113" y="0" on="1"/>
        <pt x="113" y="-369" on="1"/>
        <pt x="14" y="-369" on="1"/>
        <pt x="14" y="96" on="1"/>
        <pt x="119" y="96" on="1"/>
        <pt x="267" y="353" on="0"/>
        <pt x="491" y="1144" on="0"/>
        <pt x="504" y="1462" on="1"/>
        <pt x="1126" y="1462" on="1"/>
        <pt x="1126" y="96" on="1"/>
        <pt x="1276" y="96" on="1"/>
      </contour>
      <contour>
        <pt x="1022" y="96" on="1"/>
        <pt x="1022" y="1366" on="1"/>
        <pt x="592" y="1366" on="1"/>
        <pt x="568" y="1051" on="0"/>
        <pt x="364" y="323" on="0"/>
        <pt x="233" y="96" on="1"/>
      </contour>
    </TTGlyph>
    <TTGlyph name="afii10022" xMin="207" yMin="0" xMax="1006" yMax="1462">
      <component glyphName="E" x="0" y="0" flags="0x204"/>
    </TTGlyph>
    <TTGlyph name="afii10023" xMin="207" yMin="0" xMax="1006" yMax="1813">
      <component glyphName="E" x="0" y="0" flags="0x204"/>
      <component glyphName="dieresis" x="18" y="338" flags="0x4"/>
    </TTGlyph>
    <TTGlyph name="afii10024" xMin="0" yMin="0" xMax="1597" yMax="1462">
      <contour>
        <pt x="625" y="745" on="1"/>
        <pt x="33" y="1462" on="1"/>
        <pt x="160" y="1462" on="1"/>
        <pt x="748" y="754" on="1"/>
        <pt x="748" y="1462" on="1"/>
        <pt x="850" y="1462" on="1"/>
        <pt x="850" y="754" on="1"/>
        <pt x="1438" y="1462" on="1"/>
        <pt x="1565" y="1462" on="1"/>
        <pt x="971" y="752" on="1"/>
        <pt x="1597" y="0" on="1"/>
        <pt x="1462" y="0" on="1"/>
        <pt x="850" y="741" on="1"/>
        <pt x="850" y="0" on="1"/>
        <pt x="748" y="0" on="1"/>
        <pt x="748" y="741" on="1"/>
        <pt x="135" y="0" on="1"/>
        <pt x="0" y="0" on="1"/>
      </contour>
    </TTGlyph>
    <TTGlyph name="afii10025" xMin="82" yMin="-20" xMax="1030" yMax="1483">
      <contour>
        <pt x="1001" y="1120" on="1"/>
        <pt x="1001" y="834" on="0"/>
        <pt x="698" y="768" on="1"/>
        <pt x="698" y="762" on="1"/>
        <pt x="1030" y="691" on="0"/>
        <pt x="1030" y="406" on="1"/>
        <pt x="1030" y="205" on="0"/>
        <pt x="747" y="-20" on="0"/>
        <pt x="489" y="-20" on="1"/>
        <pt x="247" y="-20" on="0"/>
        <pt x="82" y="66" on="1"/>
        <pt x="82" y="170" on="1"/>
        <pt x="177" y="124" on="0"/>
        <pt x="393" y="74" on="0"/>
        <pt x="489" y="74" on="1"/>
        <pt x="689" y="74" on="0"/>
        <pt x="920" y="247" on="0"/>
        <pt x="920" y="403" on="1"/>
        <pt x="920" y="555" on="0"/>
        <pt x="695" y="711" on="0"/>
        <pt x="471" y="711" on="1"/>
        <pt x="254" y="711" on="1"/>
        <pt x="254" y="807" on="1"/>
        <pt x="479" y="807" on="1"/>
        <pt x="691" y="807" on="0"/>
        <pt x="893" y="967" on="0"/>
        <pt x="893" y="1114" on="1"/>
        <pt x="893" y="1239" on="0"/>
        <pt x="708" y="1389" on="0"/>
        <pt x="559" y="1389" on="1"/>
        <pt x="448" y="1389" on="0"/>
        <pt x="262" y="1326" on="0"/>
        <pt x="154" y="1249" on="1"/>
        <pt x="96" y="1329" on="1"/>
        <pt x="298" y="1483" on="0"/>
        <pt x="559" y="1483" on="1"/>
        <pt x="764" y="1483" on="0"/>
        <pt x="1001" y="1287" on="0"/>
      </contour>
    </TTGlyph>
    <TTGlyph name="afii10026" xMin="207" yMin="0" xMax="1270" yMax="1462">
      <contour>
        <pt x="207" y="1462" on="1"/>
        <pt x="305" y="1462" on="1"/>
        <pt x="305" y="506" on="1"/>
        <pt x="305" y="404" on="0"/>
        <pt x="297" y="164" on="1"/>
        <pt x="303" y="164" on="1"/>
        <pt x="1167" y="1462" on="1"/>
        <pt x="1270" y="1462" on="1"/>
        <pt x="1270" y="0" on="1"/>
        <pt x="1171" y="0" on="1"/>
        <pt x="1171" y="950" on="1"/>
        <pt x="1171" y="1112" on="0"/>
        <pt x="1184" y="1300" on="1"/>
        <pt x="1176" y="1300" on="1"/>
        <pt x="309" y="0" on="1"/>
        <pt x="207" y="0" on="1"/>
      </contour>
    </TTGlyph>
    <TTGlyph name="afii10027" xMin="207" yMin="0" xMax="1270" yMax="1860">
      <component glyphName="afii10026" x="0" y="0" flags="0x204"/>
      <component glyphName="cyrillicbreve" x="147" y="338" flags="0x4"/>
    </TTGlyph>
    <TTGlyph name="afii10028" xMin="207" yMin="0" xMax="1171" yMax="1462">
      <contour>
        <pt x="1171" y="0" on="1"/>
        <pt x="1032" y="0" on="1"/>
        <pt x="309" y="745" on="1"/>
        <pt x="309" y="0" on="1"/>
        <pt x="207" y="0" on="1"/>
        <pt x="207" y="1462" on="1"/>
        <pt x="309" y="1462" on="1"/>
        <pt x="309" y="754" on="1"/>
        <pt x="1012" y="1462" on="1"/>
        <pt x="1147" y="1462" on="1"/>
        <pt x="440" y="754" on="1"/>
      </contour>
    </TTGlyph>
    <TTGlyph name="afii10029" xMin="0" yMin="-23" xMax="1188" yMax="1462">
      <contour>
        <pt x="1188" y="0" on="1"/>
        <pt x="1085" y="0" on="1"/>
        <pt x="1085" y="1366" on="1"/>
        <pt x="555" y="1366" on="1"/>
        <pt x="514" y="1027" on="0"/>
        <pt x="422" y="419" on="0"/>
        <pt x="359" y="161" on="0"/>
        <pt x="290" y="36" on="0"/>
        <pt x="192" y="-23" on="0"/>
        <pt x="117" y="-23" on="1"/>
        <pt x="50" y="-23" on="0"/>
        <pt x="0" y="2" on="1"/>
        <pt x="0" y="94" on="1"/>
        <pt x="61" y="72" on="0"/>
        <pt x="113" y="72" on="1"/>
        <pt x="200" y="72" on="0"/>
        <pt x="297" y="288" on="0"/>
        <pt x="412" y="1004" on="0"/>
        <pt x="469" y="1462" on="1"/>
        <pt x="1188" y="1462" on="1"/>
      </contour>
    </TTGlyph>
    <TTGlyph name="afii10030" xMin="207" yMin="0" xMax="1561" yMax="1462">
      <component glyphName="M" x="0" y="0" flags="0x204"/>
    </TTGlyph>
    <TTGlyph name="afii10031" xMin="207" yMin="0" xMax="1266" yMax="1462">
      <component glyphName="H" x="0" y="0" flags="0x204"/>
    </TTGlyph>
    <TTGlyph name="afii10032" xMin="129" yMin="-20" xMax="1436" yMax="1485">
      <component glyphName="O" x="0" y="0" flags="0x204"/>
    </TTGlyph>
    <TTGlyph name="afii10033" xMin="207" yMin="0" xMax="1255" yMax="1462">
      <component glyphName="Pi" x="0" y="0" flags="0x204"/>
    </TTGlyph>
    <TTGlyph name="afii10034" xMin="207" yMin="0" xMax="1087" yMax="1462">
      <component glyphName="P" x="0" y="0" flags="0x204"/>
    </TTGlyph>
    <TTGlyph name="afii10035" xMin="129" yMin="-20" xMax="1208" yMax="1483">
      <component glyphName="C" x="0" y="0" flags="0x204"/>
    </TTGlyph>
    <TTGlyph name="afii10036" xMin="10" yMin="0" xMax="1063" yMax="1462">
      <component glyphName="T" x="0" y="0" flags="0x204"/>
    </TTGlyph>
    <TTGlyph name="afii10037" xMin="10" yMin="-20" xMax="1204" yMax="1462">
      <contour>
        <pt x="276" y="-20" on="1"/>
        <pt x="157" y="-20" on="0"/>
        <pt x="84" y="10" on="1"/>
        <pt x="84" y="113" on="1"/>
        <pt x="170" y="76" on="0"/>
        <pt x="266" y="76" on="1"/>
        <pt x="338" y="76" on="0"/>
        <pt x="441" y="125" on="0"/>
        <pt x="529" y="234" on="0"/>
        <pt x="592" y="362" on="1"/>
        <pt x="10" y="1462" on="1"/>
        <pt x="131" y="1462" on="1"/>
        <pt x="578" y="608" on="1"/>
        <pt x="613" y="539" on="0"/>
        <pt x="641" y="465" on="1"/>
        <pt x="645" y="465" on="1"/>
        <pt x="670" y="526" on="1"/>
        <pt x="1090" y="1462" on="1"/>
        <pt x="1204" y="1462" on="1"/>
        <pt x="735" y="434" on="1"/>
        <pt x="690" y="335" on="0"/>
        <pt x="608" y="168" on="0"/>
        <pt x="508" y="48" on="0"/>
        <pt x="374" y="-20" on="0"/>
      </contour>
    </TTGlyph>
    <TTGlyph name="afii10038" xMin="111" yMin="-20" xMax="1450" yMax="1483">
      <component glyphName="Phi" x="0" y="0" flags="0x204"/>
    </TTGlyph>
    <TTGlyph name="afii10039" xMin="0" yMin="0" xMax="1102" yMax="1462">
      <component glyphName="X" x="0" y="0" flags="0x204"/>
    </TTGlyph>
    <TTGlyph name="afii10040" xMin="207" yMin="-369" xMax="1411" yMax="1462">
      <contour>
        <pt x="1255" y="96" on="1"/>
        <pt x="1411" y="96" on="1"/>
        <pt x="1411" y="-369" on="1"/>
        <pt x="1313" y="-369" on="1"/>
        <pt x="1313" y="0" on="1"/>
        <pt x="207" y="0" on="1"/>
        <pt x="207" y="1462" on="1"/>
        <pt x="309" y="1462" on="1"/>
        <pt x="309" y="96" on="1"/>
        <pt x="1153" y="96" on="1"/>
        <pt x="1153" y="1462" on="1"/>
        <pt x="1255" y="1462" on="1"/>
      </contour>
    </TTGlyph>
    <TTGlyph name="afii10041" xMin="182" yMin="0" xMax="1165" yMax="1462">
      <contour>
        <pt x="1165" y="0" on="1"/>
        <pt x="1063" y="0" on="1"/>
        <pt x="1063" y="635" on="1"/>
        <pt x="802" y="532" on="0"/>
        <pt x="602" y="532" on="1"/>
        <pt x="398" y="532" on="0"/>
        <pt x="182" y="713" on="0"/>
        <pt x="182" y="899" on="1"/>
        <pt x="182" y="1462" on="1"/>
        <pt x="285" y="1462" on="1"/>
        <pt x="285" y="895" on="1"/>
        <pt x="285" y="629" on="0"/>
        <pt x="610" y="629" on="1"/>
        <pt x="706" y="629" on="0"/>
        <pt x="898" y="664" on="0"/>
        <pt x="1063" y="723" on="1"/>
        <pt x="1063" y="1462" on="1"/>
        <pt x="1165" y="1462" on="1"/>
      </contour>
    </TTGlyph>
    <TTGlyph name="afii10042" xMin="207" yMin="0" xMax="1853" yMax="1462">
      <contour>
        <pt x="1853" y="0" on="1"/>
        <pt x="207" y="0" on="1"/>
        <pt x="207" y="1462" on="1"/>
        <pt x="309" y="1462" on="1"/>
        <pt x="309" y="96" on="1"/>
        <pt x="979" y="96" on="1"/>
        <pt x="979" y="1462" on="1"/>
        <pt x="1081" y="1462" on="1"/>
        <pt x="1081" y="96" on="1"/>
        <pt x="1751" y="96" on="1"/>
        <pt x="1751" y="1462" on="1"/>
        <pt x="1853" y="1462" on="1"/>
      </contour>
    </TTGlyph>
    <TTGlyph name="afii10043" xMin="207" yMin="-369" xMax="2009" yMax="1462">
      <contour>
        <pt x="207" y="0" on="1"/>
        <pt x="207" y="1462" on="1"/>
        <pt x="309" y="1462" on="1"/>
        <pt x="309" y="96" on="1"/>
        <pt x="979" y="96" on="1"/>
        <pt x="979" y="1462" on="1"/>
        <pt x="1081" y="1462" on="1"/>
        <pt x="1081" y="96" on="1"/>
        <pt x="1751" y="96" on="1"/>
        <pt x="1751" y="1462" on="1"/>
        <pt x="1853" y="1462" on="1"/>
        <pt x="1853" y="96" on="1"/>
        <pt x="2009" y="96" on="1"/>
        <pt x="2009" y="-369" on="1"/>
        <pt x="1911" y="-369" on="1"/>
        <pt x="1911" y="0" on="1"/>
      </contour>
    </TTGlyph>
    <TTGlyph name="afii10044" xMin="10" yMin="0" xMax="1235" yMax="1462">
      <contour>
        <pt x="346" y="0" on="1"/>
        <pt x="346" y="1366" on="1"/>
        <pt x="10" y="1366" on="1"/>
        <pt x="10" y="1462" on="1"/>
        <pt x="449" y="1462" on="1"/>
        <pt x="449" y="817" on="1"/>
        <pt x="731" y="817" on="1"/>
        <pt x="983" y="817" on="0"/>
        <pt x="1235" y="626" on="0"/>
        <pt x="1235" y="420" on="1"/>
        <pt x="1235" y="218" on="0"/>
        <pt x="986" y="0" on="0"/>
        <pt x="754" y="0" on="1"/>
      </contour>
      <contour>
        <pt x="449" y="90" on="1"/>
        <pt x="737" y="90" on="1"/>
        <pt x="934" y="90" on="0"/>
        <pt x="1124" y="249" on="0"/>
        <pt x="1124" y="420" on="1"/>
        <pt x="1124" y="585" on="0"/>
        <pt x="932" y="727" on="0"/>
        <pt x="717" y="727" on="1"/>
        <pt x="449" y="727" on="1"/>
      </contour>
    </TTGlyph>
    <TTGlyph name="afii10045" xMin="207" yMin="0" xMax="1462" yMax="1462">
      <contour>
        <pt x="1462" y="0" on="1"/>
        <pt x="1360" y="0" on="1"/>
        <pt x="1360" y="1462" on="1"/>
        <pt x="1462" y="1462" on="1"/>
      </contour>
      <contour>
        <pt x="309" y="817" on="1"/>
        <pt x="592" y="817" on="1"/>
        <pt x="843" y="817" on="0"/>
        <pt x="1096" y="626" on="0"/>
        <pt x="1096" y="420" on="1"/>
        <pt x="1096" y="218" on="0"/>
        <pt x="848" y="0" on="0"/>
        <pt x="614" y="0" on="1"/>
        <pt x="207" y="0" on="1"/>
        <pt x="207" y="1462" on="1"/>
        <pt x="309" y="1462" on="1"/>
      </contour>
      <contour>
        <pt x="309" y="90" on="1"/>
        <pt x="598" y="90" on="1"/>
        <pt x="802" y="90" on="0"/>
        <pt x="985" y="256" on="0"/>
        <pt x="985" y="420" on="1"/>
        <pt x="985" y="583" on="0"/>
        <pt x="795" y="727" on="0"/>
        <pt x="578" y="727" on="1"/>
        <pt x="309" y="727" on="1"/>
      </contour>
    </TTGlyph>
    <TTGlyph name="afii10046" xMin="207" yMin="0" xMax="1108" yMax="1462">
      <contour>
        <pt x="309" y="817" on="1"/>
        <pt x="604" y="817" on="1"/>
        <pt x="856" y="817" on="0"/>
        <pt x="1108" y="626" on="0"/>
        <pt x="1108" y="420" on="1"/>
        <pt x="1108" y="217" on="0"/>
        <pt x="860" y="0" on="0"/>
        <pt x="627" y="0" on="1"/>
        <pt x="207" y="0" on="1"/>
        <pt x="207" y="1462" on="1"/>
        <pt x="309" y="1462" on="1"/>
      </contour>
      <contour>
        <pt x="309" y="90" on="1"/>
        <pt x="610" y="90" on="1"/>
        <pt x="807" y="90" on="0"/>
        <pt x="997" y="249" on="0"/>
        <pt x="997" y="420" on="1"/>
        <pt x="997" y="585" on="0"/>
        <pt x="805" y="727" on="0"/>
        <pt x="590" y="727" on="1"/>
        <pt x="309" y="727" on="1"/>
      </contour>
    </TTGlyph>
    <TTGlyph name="afii10047" xMin="70" yMin="-20" xMax="1137" yMax="1483">
      <contour>
        <pt x="434" y="1391" on="1"/>
        <pt x="354" y="1391" on="0"/>
        <pt x="205" y="1356" on="0"/>
        <pt x="117" y="1313" on="1"/>
        <pt x="76" y="1405" on="1"/>
        <pt x="240" y="1483" on="0"/>
        <pt x="444" y="1483" on="1"/>
        <pt x="768" y="1483" on="0"/>
        <pt x="1137" y="1099" on="0"/>
        <pt x="1137" y="766" on="1"/>
        <pt x="1137" y="527" on="0"/>
        <pt x="971" y="171" on="0"/>
        <pt x="658" y="-20" on="0"/>
        <pt x="453" y="-20" on="1"/>
        <pt x="215" y="-20" on="0"/>
        <pt x="70" y="31" on="1"/>
        <pt x="70" y="125" on="1"/>
        <pt x="237" y="74" on="0"/>
        <pt x="434" y="74" on="1"/>
        <pt x="704" y="74" on="0"/>
        <pt x="1014" y="412" on="0"/>
        <pt x="1028" y="719" on="1"/>
        <pt x="254" y="719" on="1"/>
        <pt x="254" y="813" on="1"/>
        <pt x="1026" y="813" on="1"/>
        <pt x="1004" y="1091" on="0"/>
        <pt x="699" y="1391" on="0"/>
      </contour>
    </TTGlyph>
    <TTGlyph name="afii10048" xMin="207" yMin="-20" xMax="1976" yMax="1485">
      <contour>
        <pt x="1976" y="733" on="1"/>
        <pt x="1976" y="385" on="0"/>
        <pt x="1644" y="-20" on="0"/>
        <pt x="1350" y="-20" on="1"/>
        <pt x="1057" y="-20" on="0"/>
        <pt x="725" y="379" on="0"/>
        <pt x="723" y="719" on="1"/>
        <pt x="309" y="719" on="1"/>
        <pt x="309" y="0" on="1"/>
        <pt x="207" y="0" on="1"/>
        <pt x="207" y="1462" on="1"/>
        <pt x="309" y="1462" on="1"/>
        <pt x="309" y="813" on="1"/>
        <pt x="725" y="813" on="1"/>
        <pt x="744" y="1125" on="0"/>
        <pt x="1076" y="1485" on="0"/>
        <pt x="1352" y="1485" on="1"/>
        <pt x="1645" y="1485" on="0"/>
        <pt x="1976" y="1082" on="0"/>
      </contour>
      <contour>
        <pt x="834" y="733" on="1"/>
        <pt x="834" y="420" on="0"/>
        <pt x="1100" y="76" on="0"/>
        <pt x="1350" y="76" on="1"/>
        <pt x="1600" y="76" on="0"/>
        <pt x="1866" y="417" on="0"/>
        <pt x="1866" y="733" on="1"/>
        <pt x="1866" y="1048" on="0"/>
        <pt x="1601" y="1386" on="0"/>
        <pt x="1352" y="1386" on="1"/>
        <pt x="1104" y="1386" on="0"/>
        <pt x="834" y="1046" on="0"/>
      </contour>
    </TTGlyph>
    <TTGlyph name="afii10049" xMin="31" yMin="0" xMax="995" yMax="1462">
      <contour>
        <pt x="545" y="637" on="1"/>
        <pt x="154" y="0" on="1"/>
        <pt x="31" y="0" on="1"/>
        <pt x="442" y="657" on="1"/>
        <pt x="289" y="687" on="0"/>
        <pt x="121" y="889" on="0"/>
        <pt x="121" y="1042" on="1"/>
        <pt x="121" y="1462" on="0"/>
        <pt x="647" y="1462" on="1"/>
        <pt x="995" y="1462" on="1"/>
        <pt x="995" y="0" on="1"/>
        <pt x="893" y="0" on="1"/>
        <pt x="893" y="637" on="1"/>
      </contour>
      <contour>
        <pt x="893" y="1370" on="1"/>
        <pt x="651" y="1370" on="1"/>
        <pt x="430" y="1370" on="0"/>
        <pt x="231" y="1217" on="0"/>
        <pt x="231" y="1047" on="1"/>
        <pt x="231" y="887" on="0"/>
        <pt x="427" y="725" on="0"/>
        <pt x="616" y="725" on="1"/>
        <pt x="893" y="725" on="1"/>
      </contour>
    </TTGlyph>
    <TTGlyph name="afii10050" xMin="207" yMin="0" xMax="1008" yMax="1763">
      <contour>
        <pt x="909" y="1462" on="1"/>
        <pt x="909" y="1763" on="1"/>
        <pt x="1008" y="1763" on="1"/>
        <pt x="1008" y="1368" on="1"/>
        <pt x="309" y="1368" on="1"/>
        <pt x="309" y="0" on="1"/>
        <pt x="207" y="0" on="1"/>
        <pt x="207" y="1462" on="1"/>
      </contour>
    </TTGlyph>
    <TTGlyph name="afii10051" xMin="10" yMin="-20" xMax="1260" yMax="1462">
      <contour>
        <pt x="928" y="-20" on="1"/>
        <pt x="834" y="-20" on="0"/>
        <pt x="786" y="-2" on="1"/>
        <pt x="786" y="98" on="1"/>
        <pt x="844" y="80" on="0"/>
        <pt x="928" y="80" on="1"/>
        <pt x="1037" y="80" on="0"/>
        <pt x="1155" y="223" on="0"/>
        <pt x="1155" y="356" on="1"/>
        <pt x="1155" y="516" on="1"/>
        <pt x="1155" y="662" on="0"/>
        <pt x="1016" y="784" on="0"/>
        <pt x="858" y="784" on="1"/>
        <pt x="449" y="784" on="1"/>
        <pt x="449" y="0" on="1"/>
        <pt x="346" y="0" on="1"/>
        <pt x="346" y="1366" on="1"/>
        <pt x="10" y="1366" on="1"/>
        <pt x="10" y="1462" on="1"/>
        <pt x="965" y="1462" on="1"/>
        <pt x="965" y="1366" on="1"/>
        <pt x="449" y="1366" on="1"/>
        <pt x="449" y="879" on="1"/>
        <pt x="887" y="879" on="1"/>
        <pt x="1077" y="879" on="0"/>
        <pt x="1260" y="703" on="0"/>
        <pt x="1260" y="520" on="1"/>
        <pt x="1260" y="360" on="1"/>
        <pt x="1260" y="177" on="0"/>
        <pt x="1088" y="-20" on="0"/>
      </contour>
    </TTGlyph>
    <TTGlyph name="afii10052" xMin="207" yMin="0" xMax="1008" yMax="1907">
      <component glyphName="Gamma" x="0" y="0" flags="0x204"/>
      <component glyphName="acute" x="90" y="338" flags="0x4"/>
    </TTGlyph>
    <TTGlyph name="afii10053" xMin="129" yMin="-20" xMax="1208" yMax="1483">
      <contour>
        <pt x="831" y="1391" on="1"/>
        <pt x="575" y="1391" on="0"/>
        <pt x="262" y="1085" on="0"/>
        <pt x="242" y="813" on="1"/>
        <pt x="1018" y="813" on="1"/>
        <pt x="1018" y="719" on="1"/>
        <pt x="238" y="719" on="1"/>
        <pt x="244" y="408" on="0"/>
        <pt x="544" y="74" on="0"/>
        <pt x="815" y="74" on="1"/>
        <pt x="999" y="74" on="0"/>
        <pt x="1153" y="121" on="1"/>
        <pt x="1153" y="31" on="1"/>
        <pt x="1008" y="-20" on="0"/>
        <pt x="791" y="-20" on="1"/>
        <pt x="483" y="-20" on="0"/>
        <pt x="129" y="378" on="0"/>
        <pt x="129" y="735" on="1"/>
        <pt x="129" y="958" on="0"/>
        <pt x="298" y="1298" on="0"/>
        <pt x="615" y="1483" on="0"/>
        <pt x="825" y="1483" on="1"/>
        <pt x="1039" y="1483" on="0"/>
        <pt x="1208" y="1403" on="1"/>
        <pt x="1167" y="1311" on="1"/>
        <pt x="1007" y="1391" on="0"/>
      </contour>
    </TTGlyph>
    <TTGlyph name="afii10054" xMin="111" yMin="-20" xMax="1014" yMax="1483">
      <component glyphName="S" x="0" y="0" flags="0x204"/>
    </TTGlyph>
    <TTGlyph name="afii10055" xMin="207" yMin="0" xMax="309" yMax="1462">
      <component glyphName="I" x="0" y="0" flags="0x204"/>
    </TTGlyph>
    <TTGlyph name="afii10055.alt" xMin="90" yMin="0" xMax="532" yMax="1462">
      <component glyphName="I.alt" x="0" y="0" flags="0x204"/>
    </TTGlyph>
    <TTGlyph name="afii10056" xMin="5" yMin="0" xMax="513" yMax="1813">
      <component glyphName="I" x="0" y="0" flags="0x204"/>
      <component glyphName="dieresis" x="-331" y="338" flags="0x4"/>
    </TTGlyph>
    <TTGlyph name="afii10056.alt" xMin="58" yMin="0" xMax="566" yMax="1813">
      <component glyphName="I.alt" x="0" y="0" flags="0x204"/>
      <component glyphName="dieresis" x="-278" y="338" flags="0x4"/>
    </TTGlyph>
    <TTGlyph name="afii10057" xMin="-184" yMin="-369" xMax="309" yMax="1462">
      <component glyphName="J" x="0" y="0" flags="0x204"/>
    </TTGlyph>
    <TTGlyph name="afii10058" xMin="0" yMin="-23" xMax="1761" yMax="1462">
      <contour>
        <pt x="1761" y="424" on="1"/>
        <pt x="1761" y="219" on="0"/>
        <pt x="1509" y="0" on="0"/>
        <pt x="1280" y="0" on="1"/>
        <pt x="965" y="0" on="1"/>
        <pt x="965" y="1366" on="1"/>
        <pt x="563" y="1366" on="1"/>
        <pt x="492" y="859" on="0"/>
        <pt x="410" y="346" on="0"/>
        <pt x="333" y="88" on="0"/>
        <pt x="215" y="-23" on="0"/>
        <pt x="117" y="-23" on="1"/>
        <pt x="55" y="-23" on="0"/>
        <pt x="0" y="2" on="1"/>
        <pt x="0" y="94" on="1"/>
        <pt x="61" y="72" on="0"/>
        <pt x="109" y="72" on="1"/>
        <pt x="177" y="72" on="0"/>
        <pt x="255" y="174" on="0"/>
        <pt x="323" y="441" on="0"/>
        <pt x="415" y="1004" on="0"/>
        <pt x="477" y="1462" on="1"/>
        <pt x="1067" y="1462" on="1"/>
        <pt x="1067" y="817" on="1"/>
        <pt x="1262" y="817" on="1"/>
        <pt x="1512" y="817" on="0"/>
        <pt x="1761" y="629" on="0"/>
      </contour>
      <contour>
        <pt x="1067" y="90" on="1"/>
        <pt x="1257" y="90" on="1"/>
        <pt x="1459" y="90" on="0"/>
        <pt x="1651" y="251" on="0"/>
        <pt x="1651" y="424" on="1"/>
        <pt x="1651" y="585" on="0"/>
        <pt x="1463" y="727" on="0"/>
        <pt x="1243" y="727" on="1"/>
        <pt x="1067" y="727" on="1"/>
      </contour>
    </TTGlyph>
    <TTGlyph name="afii10059" xMin="207" yMin="0" xMax="1827" yMax="1462">
      <contour>
        <pt x="1133" y="817" on="1"/>
        <pt x="1327" y="817" on="1"/>
        <pt x="1576" y="817" on="0"/>
        <pt x="1827" y="629" on="0"/>
        <pt x="1827" y="424" on="1"/>
        <pt x="1827" y="220" on="0"/>
        <pt x="1575" y="0" on="0"/>
        <pt x="1346" y="0" on="1"/>
        <pt x="1030" y="0" on="1"/>
        <pt x="1030" y="723" on="1"/>
        <pt x="309" y="723" on="1"/>
        <pt x="309" y="0" on="1"/>
        <pt x="207" y="0" on="1"/>
        <pt x="207" y="1462" on="1"/>
        <pt x="309" y="1462" on="1"/>
        <pt x="309" y="817" on="1"/>
        <pt x="1030" y="817" on="1"/>
        <pt x="1030" y="1462" on="1"/>
        <pt x="1133" y="1462" on="1"/>
      </contour>
      <contour>
        <pt x="1133" y="90" on="1"/>
        <pt x="1323" y="90" on="1"/>
        <pt x="1524" y="90" on="0"/>
        <pt x="1716" y="249" on="0"/>
        <pt x="1716" y="424" on="1"/>
        <pt x="1716" y="585" on="0"/>
        <pt x="1528" y="727" on="0"/>
        <pt x="1309" y="727" on="1"/>
        <pt x="1133" y="727" on="1"/>
      </contour>
    </TTGlyph>
    <TTGlyph name="afii10060" xMin="10" yMin="0" xMax="1260" yMax="1462">
      <contour>
        <pt x="449" y="879" on="1"/>
        <pt x="899" y="879" on="1"/>
        <pt x="1088" y="879" on="0"/>
        <pt x="1260" y="709" on="0"/>
        <pt x="1260" y="520" on="1"/>
        <pt x="1260" y="0" on="1"/>
        <pt x="1155" y="0" on="1"/>
        <pt x="1155" y="526" on="1"/>
        <pt x="1155" y="671" on="0"/>
        <pt x="1035" y="784" on="0"/>
        <pt x="885" y="784" on="1"/>
        <pt x="449" y="784" on="1"/>
        <pt x="449" y="0" on="1"/>
        <pt x="346" y="0" on="1"/>
        <pt x="346" y="1366" on="1"/>
        <pt x="10" y="1366" on="1"/>
        <pt x="10" y="1462" on="1"/>
        <pt x="991" y="1462" on="1"/>
        <pt x="991" y="1366" on="1"/>
        <pt x="449" y="1366" on="1"/>
      </contour>
    </TTGlyph>
    <TTGlyph name="afii10061" xMin="207" yMin="0" xMax="1171" yMax="1907">
      <component glyphName="afii10028" x="0" y="0" flags="0x204"/>
      <component glyphName="acute" x="160" y="338" flags="0x4"/>
    </TTGlyph>
    <TTGlyph name="afii10062" xMin="10" yMin="-20" xMax="1204" yMax="1860">
      <component glyphName="afii10037" x="0" y="0" flags="0x204"/>
      <component glyphName="cyrillicbreve" x="33" y="338" flags="0x4"/>
    </TTGlyph>
    <TTGlyph name="afii10065" xMin="98" yMin="-20" xMax="915" yMax="1106">
      <component glyphName="a" x="0" y="0" flags="0x204"/>
    </TTGlyph>
    <TTGlyph name="afii10066" xMin="123" yMin="-20" xMax="1059" yMax="1563">
      <contour>
        <pt x="123" y="653" on="1"/>
        <pt x="123" y="1361" on="0"/>
        <pt x="522" y="1460" on="1"/>
        <pt x="662" y="1495" on="0"/>
        <pt x="919" y="1544" on="0"/>
        <pt x="1018" y="1563" on="1"/>
        <pt x="1036" y="1477" on="1"/>
        <pt x="916" y="1454" on="1"/>
        <pt x="619" y="1398" on="0"/>
        <pt x="524" y="1368" on="1"/>
        <pt x="389" y="1329" on="0"/>
        <pt x="236" y="1033" on="0"/>
        <pt x="225" y="776" on="1"/>
        <pt x="231" y="776" on="1"/>
        <pt x="338" y="903" on="0"/>
        <pt x="540" y="1012" on="0"/>
        <pt x="647" y="1012" on="1"/>
        <pt x="847" y="1012" on="0"/>
        <pt x="1059" y="754" on="0"/>
        <pt x="1059" y="516" on="1"/>
        <pt x="1059" y="263" on="0"/>
        <pt x="815" y="-20" on="0"/>
        <pt x="594" y="-20" on="1"/>
        <pt x="370" y="-20" on="0"/>
        <pt x="123" y="330" on="0"/>
      </contour>
      <contour>
        <pt x="602" y="70" on="1"/>
        <pt x="773" y="70" on="0"/>
        <pt x="954" y="298" on="0"/>
        <pt x="954" y="512" on="1"/>
        <pt x="954" y="715" on="0"/>
        <pt x="793" y="922" on="0"/>
        <pt x="637" y="922" on="1"/>
        <pt x="521" y="922" on="0"/>
        <pt x="304" y="777" on="0"/>
        <pt x="223" y="649" on="1"/>
        <pt x="223" y="470" on="0"/>
        <pt x="312" y="200" on="0"/>
        <pt x="482" y="70" on="0"/>
      </contour>
    </TTGlyph>
    <TTGlyph name="afii10067" xMin="182" yMin="0" xMax="1047" yMax="1087">
      <contour>
        <pt x="1016" y="825" on="1"/>
        <pt x="1016" y="722" on="0"/>
        <pt x="914" y="605" on="0"/>
        <pt x="799" y="582" on="1"/>
        <pt x="799" y="575" on="1"/>
        <pt x="930" y="560" on="0"/>
        <pt x="1047" y="439" on="0"/>
        <pt x="1047" y="326" on="1"/>
        <pt x="1047" y="169" on="0"/>
        <pt x="840" y="0" on="0"/>
        <pt x="641" y="0" on="1"/>
        <pt x="182" y="0" on="1"/>
        <pt x="182" y="1087" on="1"/>
        <pt x="643" y="1087" on="1"/>
        <pt x="829" y="1087" on="0"/>
        <pt x="1016" y="953" on="0"/>
      </contour>
      <contour>
        <pt x="942" y="328" on="1"/>
        <pt x="942" y="528" on="0"/>
        <pt x="635" y="528" on="1"/>
        <pt x="281" y="528" on="1"/>
        <pt x="281" y="94" on="1"/>
        <pt x="649" y="94" on="1"/>
        <pt x="942" y="94" on="0"/>
      </contour>
      <contour>
        <pt x="911" y="817" on="1"/>
        <pt x="911" y="912" on="0"/>
        <pt x="775" y="993" on="0"/>
        <pt x="639" y="993" on="1"/>
        <pt x="281" y="993" on="1"/>
        <pt x="281" y="621" on="1"/>
        <pt x="627" y="621" on="1"/>
        <pt x="779" y="621" on="0"/>
        <pt x="911" y="715" on="0"/>
      </contour>
    </TTGlyph>
    <TTGlyph name="afii10068" xMin="182" yMin="0" xMax="821" yMax="1087">
      <contour>
        <pt x="821" y="1001" on="1"/>
        <pt x="281" y="1001" on="1"/>
        <pt x="281" y="0" on="1"/>
        <pt x="182" y="0" on="1"/>
        <pt x="182" y="1087" on="1"/>
        <pt x="821" y="1087" on="1"/>
      </contour>
    </TTGlyph>
    <TTGlyph name="afii10069" xMin="41" yMin="-369" xMax="1069" yMax="1087">
      <contour>
        <pt x="1069" y="-369" on="1"/>
        <pt x="971" y="-369" on="1"/>
        <pt x="971" y="0" on="1"/>
        <pt x="139" y="0" on="1"/>
        <pt x="139" y="-369" on="1"/>
        <pt x="41" y="-369" on="1"/>
        <pt x="41" y="94" on="1"/>
        <pt x="113" y="94" on="1"/>
        <pt x="249" y="285" on="0"/>
        <pt x="397" y="789" on="0"/>
        <pt x="401" y="1087" on="1"/>
        <pt x="924" y="1087" on="1"/>
        <pt x="924" y="94" on="1"/>
        <pt x="1069" y="94" on="1"/>
      </contour>
      <contour>
        <pt x="825" y="94" on="1"/>
        <pt x="825" y="995" on="1"/>
        <pt x="487" y="995" on="1"/>
        <pt x="463" y="454" on="0"/>
        <pt x="225" y="94" on="1"/>
      </contour>
    </TTGlyph>
    <TTGlyph name="afii10070" xMin="119" yMin="-20" xMax="1006" yMax="1108">
      <component glyphName="e" x="0" y="0" flags="0x204"/>
    </TTGlyph>
    <TTGlyph name="afii10071" xMin="119" yMin="-20" xMax="1006" yMax="1475">
      <component glyphName="e" x="0" y="0" flags="0x204"/>
      <component glyphName="dieresis" x="-5" y="0" flags="0x4"/>
    </TTGlyph>
    <TTGlyph name="afii10072" xMin="6" yMin="0" xMax="1356" yMax="1087">
      <contour>
        <pt x="631" y="1087" on="1"/>
        <pt x="731" y="1087" on="1"/>
        <pt x="731" y="559" on="1"/>
        <pt x="1198" y="1087" on="1"/>
        <pt x="1319" y="1087" on="1"/>
        <pt x="848" y="559" on="1"/>
        <pt x="1356" y="0" on="1"/>
        <pt x="1229" y="0" on="1"/>
        <pt x="731" y="551" on="1"/>
        <pt x="731" y="0" on="1"/>
        <pt x="631" y="0" on="1"/>
        <pt x="631" y="551" on="1"/>
        <pt x="133" y="0" on="1"/>
        <pt x="6" y="0" on="1"/>
        <pt x="512" y="555" on="1"/>
        <pt x="43" y="1087" on="1"/>
        <pt x="164" y="1087" on="1"/>
        <pt x="631" y="559" on="1"/>
      </contour>
    </TTGlyph>
    <TTGlyph name="afii10073" xMin="68" yMin="-20" xMax="823" yMax="1108">
      <contour>
        <pt x="387" y="618" on="1"/>
        <pt x="682" y="618" on="0"/>
        <pt x="682" y="821" on="1"/>
        <pt x="682" y="918" on="0"/>
        <pt x="546" y="1020" on="0"/>
        <pt x="420" y="1020" on="1"/>
        <pt x="340" y="1020" on="0"/>
        <pt x="202" y="983" on="0"/>
        <pt x="123" y="948" on="1"/>
        <pt x="86" y="1030" on="1"/>
        <pt x="260" y="1108" on="0"/>
        <pt x="424" y="1108" on="1"/>
        <pt x="602" y="1108" on="0"/>
        <pt x="786" y="960" on="0"/>
        <pt x="786" y="829" on="1"/>
        <pt x="786" y="640" on="0"/>
        <pt x="592" y="588" on="1"/>
        <pt x="592" y="582" on="1"/>
        <pt x="713" y="552" on="0"/>
        <pt x="823" y="413" on="0"/>
        <pt x="823" y="305" on="1"/>
        <pt x="823" y="154" on="0"/>
        <pt x="602" y="-20" on="0"/>
        <pt x="406" y="-20" on="1"/>
        <pt x="300" y="-20" on="0"/>
        <pt x="125" y="21" on="0"/>
        <pt x="68" y="55" on="1"/>
        <pt x="68" y="154" on="1"/>
        <pt x="171" y="105" on="0"/>
        <pt x="321" y="70" on="0"/>
        <pt x="406" y="70" on="1"/>
        <pt x="554" y="70" on="0"/>
        <pt x="719" y="195" on="0"/>
        <pt x="719" y="311" on="1"/>
        <pt x="719" y="424" on="0"/>
        <pt x="561" y="532" on="0"/>
        <pt x="403" y="532" on="1"/>
        <pt x="252" y="532" on="1"/>
        <pt x="252" y="618" on="1"/>
      </contour>
    </TTGlyph>
    <TTGlyph name="afii10074" xMin="182" yMin="0" xMax="1047" yMax="1087">
      <contour>
        <pt x="276" y="1087" on="1"/>
        <pt x="276" y="301" on="1"/>
        <pt x="270" y="96" on="1"/>
        <pt x="915" y="1087" on="1"/>
        <pt x="1047" y="1087" on="1"/>
        <pt x="1047" y="0" on="1"/>
        <pt x="952" y="0" on="1"/>
        <pt x="952" y="781" on="1"/>
        <pt x="956" y="991" on="1"/>
        <pt x="311" y="0" on="1"/>
        <pt x="182" y="0" on="1"/>
        <pt x="182" y="1087" on="1"/>
      </contour>
    </TTGlyph>
    <TTGlyph name="afii10075" xMin="182" yMin="0" xMax="1047" yMax="1522">
      <component glyphName="afii10074" x="0" y="0" flags="0x204"/>
      <component glyphName="cyrillicbreve" x="25" y="0" flags="0x4"/>
    </TTGlyph>
    <TTGlyph name="afii10076" xMin="182" yMin="0" xMax="930" yMax="1087">
      <contour>
        <pt x="772" y="1087" on="1"/>
        <pt x="895" y="1087" on="1"/>
        <pt x="408" y="561" on="1"/>
        <pt x="930" y="0" on="1"/>
        <pt x="797" y="0" on="1"/>
        <pt x="283" y="551" on="1"/>
        <pt x="283" y="0" on="1"/>
        <pt x="182" y="0" on="1"/>
        <pt x="182" y="1087" on="1"/>
        <pt x="283" y="1087" on="1"/>
        <pt x="283" y="559" on="1"/>
      </contour>
    </TTGlyph>
    <TTGlyph name="afii10077" xMin="20" yMin="-10" xMax="934" yMax="1087">
      <contour>
        <pt x="934" y="0" on="1"/>
        <pt x="836" y="0" on="1"/>
        <pt x="836" y="995" on="1"/>
        <pt x="451" y="995" on="1"/>
        <pt x="421" y="600" on="0"/>
        <pt x="334" y="185" on="0"/>
        <pt x="197" y="-10" on="0"/>
        <pt x="88" y="-10" on="1"/>
        <pt x="49" y="-10" on="0"/>
        <pt x="20" y="-2" on="1"/>
        <pt x="20" y="88" on="1"/>
        <pt x="39" y="82" on="0"/>
        <pt x="74" y="82" on="1"/>
        <pt x="187" y="82" on="0"/>
        <pt x="326" y="559" on="0"/>
        <pt x="362" y="1087" on="1"/>
        <pt x="934" y="1087" on="1"/>
      </contour>
    </TTGlyph>
    <TTGlyph name="afii10078" xMin="182" yMin="0" xMax="1200" yMax="1087">
      <contour>
        <pt x="688" y="106" on="1"/>
        <pt x="750" y="281" on="1"/>
        <pt x="1063" y="1087" on="1"/>
        <pt x="1200" y="1087" on="1"/>
        <pt x="1200" y="0" on="1"/>
        <pt x="1106" y="0" on="1"/>
        <pt x="1106" y="967" on="1"/>
        <pt x="1084" y="904" on="0"/>
        <pt x="1035" y="772" on="0"/>
        <pt x="733" y="0" on="1"/>
        <pt x="645" y="0" on="1"/>
        <pt x="344" y="764" on="1"/>
        <pt x="325" y="810" on="0"/>
        <pt x="292" y="912" on="0"/>
        <pt x="272" y="971" on="1"/>
        <pt x="272" y="0" on="1"/>
        <pt x="182" y="0" on="1"/>
        <pt x="182" y="1087" on="1"/>
        <pt x="313" y="1087" on="1"/>
        <pt x="627" y="287" on="1"/>
        <pt x="664" y="190" on="0"/>
      </contour>
    </TTGlyph>
    <TTGlyph name="afii10079" xMin="182" yMin="0" xMax="1069" yMax="1087">
      <contour>
        <pt x="281" y="1087" on="1"/>
        <pt x="281" y="610" on="1"/>
        <pt x="971" y="610" on="1"/>
        <pt x="971" y="1087" on="1"/>
        <pt x="1069" y="1087" on="1"/>
        <pt x="1069" y="0" on="1"/>
        <pt x="971" y="0" on="1"/>
        <pt x="971" y="524" on="1"/>
        <pt x="281" y="524" on="1"/>
        <pt x="281" y="0" on="1"/>
        <pt x="182" y="0" on="1"/>
        <pt x="182" y="1087" on="1"/>
      </contour>
    </TTGlyph>
    <TTGlyph name="afii10080" xMin="119" yMin="-20" xMax="1081" yMax="1108">
      <component glyphName="o" x="0" y="0" flags="0x204"/>
    </TTGlyph>
    <TTGlyph name="afii10081" xMin="182" yMin="0" xMax="1049" yMax="1087">
      <contour>
        <pt x="281" y="0" on="1"/>
        <pt x="182" y="0" on="1"/>
        <pt x="182" y="1087" on="1"/>
        <pt x="1049" y="1087" on="1"/>
        <pt x="1049" y="0" on="1"/>
        <pt x="950" y="0" on="1"/>
        <pt x="950" y="993" on="1"/>
        <pt x="281" y="993" on="1"/>
      </contour>
    </TTGlyph>
    <TTGlyph name="afii10082" xMin="182" yMin="-492" xMax="1100" yMax="1108">
      <component glyphName="p" x="0" y="0" flags="0x204"/>
    </TTGlyph>
    <TTGlyph name="afii10083" xMin="119" yMin="-20" xMax="901" yMax="1108">
      <component glyphName="c" x="0" y="0" flags="0x204"/>
    </TTGlyph>
    <TTGlyph name="afii10084" xMin="41" yMin="0" xMax="872" yMax="1087">
      <contour>
        <pt x="872" y="1001" on="1"/>
        <pt x="510" y="1001" on="1"/>
        <pt x="510" y="0" on="1"/>
        <pt x="412" y="0" on="1"/>
        <pt x="412" y="1001" on="1"/>
        <pt x="41" y="1001" on="1"/>
        <pt x="41" y="1087" on="1"/>
        <pt x="872" y="1087" on="1"/>
      </contour>
    </TTGlyph>
    <TTGlyph name="afii10085" xMin="0" yMin="-492" xMax="940" yMax="1087">
      <component glyphName="y" x="0" y="0" flags="0x204"/>
    </TTGlyph>
    <TTGlyph name="afii10086" xMin="119" yMin="-492" xMax="1253" yMax="1556">
      <contour>
        <pt x="1253" y="545" on="1"/>
        <pt x="1253" y="294" on="0"/>
        <pt x="982" y="-2" on="0"/>
        <pt x="737" y="-20" on="1"/>
        <pt x="737" y="-492" on="1"/>
        <pt x="639" y="-492" on="1"/>
        <pt x="639" y="-20" on="1"/>
        <pt x="395" y="-6" on="0"/>
        <pt x="119" y="290" on="0"/>
        <pt x="119" y="545" on="1"/>
        <pt x="119" y="796" on="0"/>
        <pt x="391" y="1090" on="0"/>
        <pt x="639" y="1108" on="1"/>
        <pt x="639" y="1556" on="1"/>
        <pt x="737" y="1556" on="1"/>
        <pt x="737" y="1108" on="1"/>
        <pt x="983" y="1090" on="0"/>
        <pt x="1253" y="796" on="0"/>
      </contour>
      <contour>
        <pt x="223" y="545" on="1"/>
        <pt x="223" y="332" on="0"/>
        <pt x="440" y="87" on="0"/>
        <pt x="639" y="72" on="1"/>
        <pt x="639" y="1016" on="1"/>
        <pt x="434" y="999" on="0"/>
        <pt x="223" y="756" on="0"/>
      </contour>
      <contour>
        <pt x="1149" y="545" on="1"/>
        <pt x="1149" y="754" on="0"/>
        <pt x="935" y="999" on="0"/>
        <pt x="737" y="1016" on="1"/>
        <pt x="737" y="72" on="1"/>
        <pt x="937" y="89" on="0"/>
        <pt x="1149" y="339" on="0"/>
      </contour>
    </TTGlyph>
    <TTGlyph name="afii10087" xMin="55" yMin="0" xMax="965" yMax="1087">
      <component glyphName="x" x="0" y="0" flags="0x204"/>
    </TTGlyph>
    <TTGlyph name="afii10088" xMin="182" yMin="-369" xMax="1174" yMax="1087">
      <contour>
        <pt x="1174" y="-369" on="1"/>
        <pt x="1075" y="-369" on="1"/>
        <pt x="1075" y="0" on="1"/>
        <pt x="182" y="0" on="1"/>
        <pt x="182" y="1087" on="1"/>
        <pt x="281" y="1087" on="1"/>
        <pt x="281" y="94" on="1"/>
        <pt x="930" y="94" on="1"/>
        <pt x="930" y="1087" on="1"/>
        <pt x="1028" y="1087" on="1"/>
        <pt x="1028" y="94" on="1"/>
        <pt x="1174" y="94" on="1"/>
      </contour>
    </TTGlyph>
    <TTGlyph name="afii10089" xMin="164" yMin="0" xMax="1006" yMax="1087">
      <contour>
        <pt x="262" y="1087" on="1"/>
        <pt x="262" y="723" on="1"/>
        <pt x="262" y="585" on="0"/>
        <pt x="396" y="463" on="0"/>
        <pt x="535" y="463" on="1"/>
        <pt x="633" y="463" on="0"/>
        <pt x="811" y="533" on="0"/>
        <pt x="907" y="610" on="1"/>
        <pt x="907" y="1087" on="1"/>
        <pt x="1006" y="1087" on="1"/>
        <pt x="1006" y="0" on="1"/>
        <pt x="907" y="0" on="1"/>
        <pt x="907" y="516" on="1"/>
        <pt x="807" y="439" on="0"/>
        <pt x="614" y="373" on="0"/>
        <pt x="502" y="373" on="1"/>
        <pt x="335" y="373" on="0"/>
        <pt x="164" y="547" on="0"/>
        <pt x="164" y="711" on="1"/>
        <pt x="164" y="1087" on="1"/>
      </contour>
    </TTGlyph>
    <TTGlyph name="afii10090" xMin="182" yMin="0" xMax="1563" yMax="1087">
      <contour>
        <pt x="922" y="94" on="1"/>
        <pt x="1464" y="94" on="1"/>
        <pt x="1464" y="1087" on="1"/>
        <pt x="1563" y="1087" on="1"/>
        <pt x="1563" y="0" on="1"/>
        <pt x="182" y="0" on="1"/>
        <pt x="182" y="1087" on="1"/>
        <pt x="281" y="1087" on="1"/>
        <pt x="281" y="94" on="1"/>
        <pt x="823" y="94" on="1"/>
        <pt x="823" y="1087" on="1"/>
        <pt x="922" y="1087" on="1"/>
      </contour>
    </TTGlyph>
    <TTGlyph name="afii10091" xMin="182" yMin="-369" xMax="1708" yMax="1087">
      <contour>
        <pt x="922" y="94" on="1"/>
        <pt x="1464" y="94" on="1"/>
        <pt x="1464" y="1087" on="1"/>
        <pt x="1563" y="1087" on="1"/>
        <pt x="1563" y="94" on="1"/>
        <pt x="1708" y="94" on="1"/>
        <pt x="1708" y="-369" on="1"/>
        <pt x="1610" y="-369" on="1"/>
        <pt x="1610" y="0" on="1"/>
        <pt x="182" y="0" on="1"/>
        <pt x="182" y="1087" on="1"/>
        <pt x="281" y="1087" on="1"/>
        <pt x="281" y="94" on="1"/>
        <pt x="823" y="94" on="1"/>
        <pt x="823" y="1087" on="1"/>
        <pt x="922" y="1087" on="1"/>
      </contour>
    </TTGlyph>
    <TTGlyph name="afii10092" xMin="41" yMin="0" xMax="1204" yMax="1087">
      <contour>
        <pt x="469" y="629" on="1"/>
        <pt x="821" y="629" on="1"/>
        <pt x="1204" y="629" on="0"/>
        <pt x="1204" y="328" on="1"/>
        <pt x="1204" y="173" on="0"/>
        <pt x="990" y="0" on="0"/>
        <pt x="791" y="0" on="1"/>
        <pt x="371" y="0" on="1"/>
        <pt x="371" y="1001" on="1"/>
        <pt x="41" y="1001" on="1"/>
        <pt x="41" y="1087" on="1"/>
        <pt x="469" y="1087" on="1"/>
      </contour>
      <contour>
        <pt x="469" y="535" on="1"/>
        <pt x="469" y="94" on="1"/>
        <pt x="807" y="94" on="1"/>
        <pt x="951" y="94" on="0"/>
        <pt x="1100" y="218" on="0"/>
        <pt x="1100" y="332" on="1"/>
        <pt x="1100" y="438" on="0"/>
        <pt x="966" y="535" on="0"/>
        <pt x="801" y="535" on="1"/>
      </contour>
    </TTGlyph>
    <TTGlyph name="afii10093" xMin="182" yMin="0" xMax="1298" yMax="1087">
      <contour>
        <pt x="281" y="629" on="1"/>
        <pt x="627" y="629" on="1"/>
        <pt x="1010" y="629" on="0"/>
        <pt x="1010" y="328" on="1"/>
        <pt x="1010" y="173" on="0"/>
        <pt x="796" y="0" on="0"/>
        <pt x="596" y="0" on="1"/>
        <pt x="182" y="0" on="1"/>
        <pt x="182" y="1087" on="1"/>
        <pt x="281" y="1087" on="1"/>
      </contour>
      <contour>
        <pt x="281" y="535" on="1"/>
        <pt x="281" y="94" on="1"/>
        <pt x="612" y="94" on="1"/>
        <pt x="753" y="94" on="0"/>
        <pt x="905" y="212" on="0"/>
        <pt x="905" y="330" on="1"/>
        <pt x="905" y="438" on="0"/>
        <pt x="771" y="535" on="0"/>
        <pt x="606" y="535" on="1"/>
      </contour>
      <contour>
        <pt x="1298" y="0" on="1"/>
        <pt x="1200" y="0" on="1"/>
        <pt x="1200" y="1087" on="1"/>
        <pt x="1298" y="1087" on="1"/>
      </contour>
    </TTGlyph>
    <TTGlyph name="afii10094" xMin="182" yMin="0" xMax="1047" yMax="1087">
      <contour>
        <pt x="281" y="629" on="1"/>
        <pt x="664" y="629" on="1"/>
        <pt x="1047" y="629" on="0"/>
        <pt x="1047" y="328" on="1"/>
        <pt x="1047" y="173" on="0"/>
        <pt x="833" y="0" on="0"/>
        <pt x="633" y="0" on="1"/>
        <pt x="182" y="0" on="1"/>
        <pt x="182" y="1087" on="1"/>
        <pt x="281" y="1087" on="1"/>
      </contour>
      <contour>
        <pt x="281" y="535" on="1"/>
        <pt x="281" y="94" on="1"/>
        <pt x="649" y="94" on="1"/>
        <pt x="791" y="94" on="0"/>
        <pt x="942" y="214" on="0"/>
        <pt x="942" y="330" on="1"/>
        <pt x="942" y="438" on="0"/>
        <pt x="808" y="535" on="0"/>
        <pt x="643" y="535" on="1"/>
      </contour>
    </TTGlyph>
    <TTGlyph name="afii10095" xMin="68" yMin="-20" xMax="887" yMax="1108">
      <contour>
        <pt x="358" y="-20" on="1"/>
        <pt x="266" y="-20" on="0"/>
        <pt x="108" y="10" on="0"/>
        <pt x="68" y="31" on="1"/>
        <pt x="68" y="123" on="1"/>
        <pt x="195" y="70" on="0"/>
        <pt x="352" y="70" on="1"/>
        <pt x="548" y="70" on="0"/>
        <pt x="782" y="319" on="0"/>
        <pt x="784" y="530" on="1"/>
        <pt x="164" y="530" on="1"/>
        <pt x="164" y="618" on="1"/>
        <pt x="780" y="618" on="1"/>
        <pt x="763" y="815" on="0"/>
        <pt x="558" y="1018" on="0"/>
        <pt x="379" y="1018" on="1"/>
        <pt x="273" y="1018" on="0"/>
        <pt x="113" y="958" on="1"/>
        <pt x="84" y="1047" on="1"/>
        <pt x="140" y="1070" on="0"/>
        <pt x="308" y="1108" on="0"/>
        <pt x="377" y="1108" on="1"/>
        <pt x="621" y="1108" on="0"/>
        <pt x="887" y="820" on="0"/>
        <pt x="887" y="557" on="1"/>
        <pt x="887" y="288" on="0"/>
        <pt x="604" y="-20" on="0"/>
      </contour>
    </TTGlyph>
    <TTGlyph name="afii10096" xMin="182" yMin="-20" xMax="1516" yMax="1108">
      <contour>
        <pt x="1516" y="545" on="1"/>
        <pt x="1516" y="279" on="0"/>
        <pt x="1277" y="-20" on="0"/>
        <pt x="1069" y="-20" on="1"/>
        <pt x="873" y="-20" on="0"/>
        <pt x="634" y="274" on="0"/>
        <pt x="631" y="524" on="1"/>
        <pt x="281" y="524" on="1"/>
        <pt x="281" y="0" on="1"/>
        <pt x="182" y="0" on="1"/>
        <pt x="182" y="1087" on="1"/>
        <pt x="281" y="1087" on="1"/>
        <pt x="281" y="610" on="1"/>
        <pt x="633" y="610" on="1"/>
        <pt x="647" y="845" on="0"/>
        <pt x="880" y="1108" on="0"/>
        <pt x="1075" y="1108" on="1"/>
        <pt x="1279" y="1108" on="0"/>
        <pt x="1516" y="807" on="0"/>
      </contour>
      <contour>
        <pt x="735" y="545" on="1"/>
        <pt x="735" y="321" on="0"/>
        <pt x="912" y="70" on="0"/>
        <pt x="1073" y="70" on="1"/>
        <pt x="1234" y="70" on="0"/>
        <pt x="1411" y="322" on="0"/>
        <pt x="1411" y="545" on="1"/>
        <pt x="1411" y="769" on="0"/>
        <pt x="1233" y="1018" on="0"/>
        <pt x="1071" y="1018" on="1"/>
        <pt x="910" y="1018" on="0"/>
        <pt x="735" y="771" on="0"/>
      </contour>
    </TTGlyph>
    <TTGlyph name="afii10097" xMin="41" yMin="0" xMax="901" yMax="1087">
      <contour>
        <pt x="166" y="0" on="1"/>
        <pt x="41" y="0" on="1"/>
        <pt x="369" y="469" on="1"/>
        <pt x="219" y="497" on="0"/>
        <pt x="86" y="649" on="0"/>
        <pt x="86" y="768" on="1"/>
        <pt x="86" y="916" on="0"/>
        <pt x="285" y="1087" on="0"/>
        <pt x="453" y="1087" on="1"/>
        <pt x="901" y="1087" on="1"/>
        <pt x="901" y="0" on="1"/>
        <pt x="803" y="0" on="1"/>
        <pt x="803" y="457" on="1"/>
        <pt x="471" y="457" on="1"/>
      </contour>
      <contour>
        <pt x="190" y="772" on="1"/>
        <pt x="190" y="660" on="0"/>
        <pt x="335" y="551" on="0"/>
        <pt x="481" y="551" on="1"/>
        <pt x="803" y="551" on="1"/>
        <pt x="803" y="993" on="1"/>
        <pt x="451" y="993" on="1"/>
        <pt x="327" y="993" on="0"/>
        <pt x="190" y="880" on="0"/>
      </contour>
    </TTGlyph>
    <TTGlyph name="afii10098" xMin="182" yMin="0" xMax="821" yMax="1417">
      <contour>
        <pt x="821" y="1001" on="1"/>
        <pt x="281" y="1001" on="1"/>
        <pt x="281" y="0" on="1"/>
        <pt x="182" y="0" on="1"/>
        <pt x="182" y="1087" on="1"/>
        <pt x="725" y="1087" on="1"/>
        <pt x="725" y="1417" on="1"/>
        <pt x="821" y="1417" on="1"/>
      </contour>
    </TTGlyph>
    <TTGlyph name="afii10099" xMin="27" yMin="-492" xMax="1038" yMax="1556">
      <contour>
        <pt x="795" y="-492" on="1"/>
        <pt x="716" y="-492" on="0"/>
        <pt x="659" y="-467" on="1"/>
        <pt x="659" y="-381" on="1"/>
        <pt x="728" y="-401" on="0"/>
        <pt x="788" y="-401" on="1"/>
        <pt x="940" y="-401" on="0"/>
        <pt x="940" y="-225" on="1"/>
        <pt x="940" y="674" on="1"/>
        <pt x="940" y="838" on="0"/>
        <pt x="803" y="987" on="0"/>
        <pt x="657" y="987" on="1"/>
        <pt x="460" y="987" on="0"/>
        <pt x="281" y="790" on="0"/>
        <pt x="281" y="569" on="1"/>
        <pt x="281" y="0" on="1"/>
        <pt x="182" y="0" on="1"/>
        <pt x="182" y="1272" on="1"/>
        <pt x="27" y="1272" on="1"/>
        <pt x="27" y="1354" on="1"/>
        <pt x="182" y="1354" on="1"/>
        <pt x="182" y="1556" on="1"/>
        <pt x="281" y="1556" on="1"/>
        <pt x="281" y="1354" on="1"/>
        <pt x="754" y="1354" on="1"/>
        <pt x="754" y="1272" on="1"/>
        <pt x="281" y="1272" on="1"/>
        <pt x="281" y="1030" on="1"/>
        <pt x="276" y="891" on="1"/>
        <pt x="283" y="891" on="1"/>
        <pt x="344" y="989" on="0"/>
        <pt x="530" y="1077" on="0"/>
        <pt x="668" y="1077" on="1"/>
        <pt x="1038" y="1077" on="0"/>
        <pt x="1038" y="680" on="1"/>
        <pt x="1038" y="-211" on="1"/>
        <pt x="1038" y="-345" on="0"/>
        <pt x="913" y="-492" on="0"/>
      </contour>
    </TTGlyph>
    <TTGlyph name="afii10100" xMin="182" yMin="0" xMax="821" yMax="1569">
      <component glyphName="afii10068" x="0" y="0" flags="0x204"/>
      <component glyphName="acute" x="-15" y="0" flags="0x4"/>
    </TTGlyph>
    <TTGlyph name="afii10101" xMin="119" yMin="-20" xMax="922" yMax="1108">
      <contour>
        <pt x="627" y="-20" on="1"/>
        <pt x="390" y="-20" on="0"/>
        <pt x="119" y="279" on="0"/>
        <pt x="119" y="537" on="1"/>
        <pt x="119" y="802" on="0"/>
        <pt x="400" y="1108" on="0"/>
        <pt x="641" y="1108" on="1"/>
        <pt x="703" y="1108" on="0"/>
        <pt x="864" y="1082" on="0"/>
        <pt x="922" y="1059" on="1"/>
        <pt x="893" y="971" on="1"/>
        <pt x="834" y="992" on="0"/>
        <pt x="687" y="1018" on="0"/>
        <pt x="639" y="1018" on="1"/>
        <pt x="454" y="1018" on="0"/>
        <pt x="242" y="808" on="0"/>
        <pt x="225" y="618" on="1"/>
        <pt x="850" y="618" on="1"/>
        <pt x="850" y="530" on="1"/>
        <pt x="221" y="530" on="1"/>
        <pt x="223" y="313" on="0"/>
        <pt x="441" y="70" on="0"/>
        <pt x="625" y="70" on="1"/>
        <pt x="782" y="70" on="0"/>
        <pt x="909" y="123" on="1"/>
        <pt x="909" y="31" on="1"/>
        <pt x="863" y="8" on="0"/>
        <pt x="713" y="-20" on="0"/>
      </contour>
    </TTGlyph>
    <TTGlyph name="afii10102" xMin="84" yMin="-20" xMax="856" yMax="1108">
      <component glyphName="s" x="0" y="0" flags="0x204"/>
    </TTGlyph>
    <TTGlyph name="afii10103" xMin="168" yMin="0" xMax="297" yMax="1485">
      <component glyphName="i" x="0" y="0" flags="0x204"/>
    </TTGlyph>
    <TTGlyph name="afii10104" xMin="-21" yMin="0" xMax="487" yMax="1475">
      <component glyphName="dotlessi" x="0" y="0" flags="0x204"/>
      <component glyphName="dieresis" x="-357" y="0" flags="0x4"/>
    </TTGlyph>
    <TTGlyph name="afii10105" xMin="-98" yMin="-492" xMax="297" yMax="1485">
      <component glyphName="j" x="0" y="0" flags="0x204"/>
    </TTGlyph>
    <TTGlyph name="afii10106" xMin="20" yMin="-10" xMax="1536" yMax="1087">
      <contour>
        <pt x="862" y="621" on="1"/>
        <pt x="1147" y="621" on="1"/>
        <pt x="1352" y="621" on="0"/>
        <pt x="1536" y="478" on="0"/>
        <pt x="1536" y="324" on="1"/>
        <pt x="1536" y="0" on="0"/>
        <pt x="1116" y="0" on="1"/>
        <pt x="764" y="0" on="1"/>
        <pt x="764" y="995" on="1"/>
        <pt x="451" y="995" on="1"/>
        <pt x="422" y="601" on="0"/>
        <pt x="335" y="183" on="0"/>
        <pt x="195" y="-10" on="0"/>
        <pt x="84" y="-10" on="1"/>
        <pt x="47" y="-10" on="0"/>
        <pt x="20" y="-2" on="1"/>
        <pt x="20" y="88" on="1"/>
        <pt x="40" y="82" on="0"/>
        <pt x="72" y="82" on="1"/>
        <pt x="186" y="82" on="0"/>
        <pt x="324" y="544" on="0"/>
        <pt x="362" y="1087" on="1"/>
        <pt x="862" y="1087" on="1"/>
      </contour>
      <contour>
        <pt x="862" y="526" on="1"/>
        <pt x="862" y="94" on="1"/>
        <pt x="1133" y="94" on="1"/>
        <pt x="1287" y="94" on="0"/>
        <pt x="1432" y="209" on="0"/>
        <pt x="1432" y="328" on="1"/>
        <pt x="1432" y="402" on="0"/>
        <pt x="1376" y="487" on="0"/>
        <pt x="1259" y="526" on="0"/>
        <pt x="1126" y="526" on="1"/>
      </contour>
    </TTGlyph>
    <TTGlyph name="afii10107" xMin="182" yMin="0" xMax="1640" yMax="1087">
      <contour>
        <pt x="967" y="1087" on="1"/>
        <pt x="967" y="621" on="1"/>
        <pt x="1262" y="621" on="1"/>
        <pt x="1458" y="621" on="0"/>
        <pt x="1640" y="479" on="0"/>
        <pt x="1640" y="324" on="1"/>
        <pt x="1640" y="163" on="0"/>
        <pt x="1431" y="0" on="0"/>
        <pt x="1231" y="0" on="1"/>
        <pt x="868" y="0" on="1"/>
        <pt x="868" y="526" on="1"/>
        <pt x="281" y="526" on="1"/>
        <pt x="281" y="0" on="1"/>
        <pt x="182" y="0" on="1"/>
        <pt x="182" y="1087" on="1"/>
        <pt x="281" y="1087" on="1"/>
        <pt x="281" y="621" on="1"/>
        <pt x="868" y="621" on="1"/>
        <pt x="868" y="1087" on="1"/>
      </contour>
      <contour>
        <pt x="967" y="526" on="1"/>
        <pt x="967" y="94" on="1"/>
        <pt x="1247" y="94" on="1"/>
        <pt x="1389" y="94" on="0"/>
        <pt x="1536" y="203" on="0"/>
        <pt x="1536" y="326" on="1"/>
        <pt x="1536" y="401" on="0"/>
        <pt x="1480" y="488" on="0"/>
        <pt x="1363" y="526" on="0"/>
        <pt x="1241" y="526" on="1"/>
      </contour>
    </TTGlyph>
    <TTGlyph name="afii10108" xMin="27" yMin="0" xMax="1038" yMax="1556">
      <component glyphName="hbar" x="0" y="0" flags="0x204"/>
    </TTGlyph>
    <TTGlyph name="afii10109" xMin="182" yMin="0" xMax="930" yMax="1569">
      <component glyphName="afii10076" x="0" y="0" flags="0x204"/>
      <component glyphName="acute" x="29" y="0" flags="0x4"/>
    </TTGlyph>
    <TTGlyph name="afii10110" xMin="0" yMin="-492" xMax="940" yMax="1522">
      <component glyphName="y" x="0" y="0" flags="0x204"/>
      <component glyphName="cyrillicbreve" x="-120" y="0" flags="0x4"/>
    </TTGlyph>
    <TTGlyph name="afii10145" xMin="207" yMin="-369" xMax="1255" yMax="1462">
      <contour>
        <pt x="1255" y="0" on="1"/>
        <pt x="780" y="0" on="1"/>
        <pt x="780" y="-369" on="1"/>
        <pt x="682" y="-369" on="1"/>
        <pt x="682" y="0" on="1"/>
        <pt x="207" y="0" on="1"/>
        <pt x="207" y="1462" on="1"/>
        <pt x="309" y="1462" on="1"/>
        <pt x="309" y="96" on="1"/>
        <pt x="1153" y="96" on="1"/>
        <pt x="1153" y="1462" on="1"/>
        <pt x="1255" y="1462" on="1"/>
      </contour>
    </TTGlyph>
    <TTGlyph name="afii10193" xMin="182" yMin="-369" xMax="1049" yMax="1087">
      <contour>
        <pt x="567" y="0" on="1"/>
        <pt x="182" y="0" on="1"/>
        <pt x="182" y="1087" on="1"/>
        <pt x="281" y="1087" on="1"/>
        <pt x="281" y="94" on="1"/>
        <pt x="950" y="94" on="1"/>
        <pt x="950" y="1087" on="1"/>
        <pt x="1049" y="1087" on="1"/>
        <pt x="1049" y="0" on="1"/>
        <pt x="666" y="0" on="1"/>
        <pt x="666" y="-369" on="1"/>
        <pt x="567" y="-369" on="1"/>
      </contour>
    </TTGlyph>
    <TTGlyph name="afii61248" xMin="143" yMin="-8" xMax="1501" yMax="1473">
      <contour>
        <pt x="1501" y="334" on="1"/>
        <pt x="1501" y="174" on="0"/>
        <pt x="1344" y="-8" on="0"/>
        <pt x="1202" y="-8" on="1"/>
        <pt x="1062" y="-8" on="0"/>
        <pt x="907" y="175" on="0"/>
        <pt x="907" y="334" on="1"/>
        <pt x="907" y="496" on="0"/>
        <pt x="1068" y="676" on="0"/>
        <pt x="1208" y="676" on="1"/>
        <pt x="1348" y="676" on="0"/>
        <pt x="1501" y="493" on="0"/>
      </contour>
      <contour>
        <pt x="1006" y="334" on="1"/>
        <pt x="1006" y="210" on="0"/>
        <pt x="1109" y="80" on="0"/>
        <pt x="1206" y="80" on="1"/>
        <pt x="1301" y="80" on="0"/>
        <pt x="1403" y="212" on="0"/>
        <pt x="1403" y="334" on="1"/>
        <pt x="1403" y="458" on="0"/>
        <pt x="1302" y="588" on="0"/>
        <pt x="1206" y="588" on="1"/>
        <pt x="1107" y="588" on="0"/>
        <pt x="1006" y="458" on="0"/>
      </contour>
      <contour>
        <pt x="475" y="788" on="1"/>
        <pt x="315" y="788" on="0"/>
        <pt x="143" y="968" on="0"/>
        <pt x="143" y="1128" on="1"/>
        <pt x="143" y="1287" on="0"/>
        <pt x="330" y="1473" on="0"/>
        <pt x="489" y="1473" on="1"/>
        <pt x="589" y="1473" on="0"/>
        <pt x="682" y="1442" on="1"/>
        <pt x="653" y="1354" on="1"/>
        <pt x="568" y="1384" on="0"/>
        <pt x="492" y="1384" on="1"/>
        <pt x="371" y="1384" on="0"/>
        <pt x="242" y="1254" on="0"/>
        <pt x="242" y="1130" on="1"/>
        <pt x="242" y="999" on="0"/>
        <pt x="360" y="877" on="0"/>
        <pt x="485" y="877" on="1"/>
        <pt x="585" y="877" on="0"/>
        <pt x="670" y="909" on="1"/>
        <pt x="670" y="825" on="1"/>
        <pt x="584" y="788" on="0"/>
      </contour>
      <contour>
        <pt x="1272" y="1462" on="1"/>
        <pt x="461" y="0" on="1"/>
        <pt x="367" y="0" on="1"/>
        <pt x="1178" y="1462" on="1"/>
      </contour>
    </TTGlyph>
    <TTGlyph name="afii61289" xMin="115" yMin="-18" xMax="877" yMax="1483">
      <contour>
        <pt x="602" y="72" on="1"/>
        <pt x="773" y="72" on="0"/>
        <pt x="799" y="301" on="1"/>
        <pt x="877" y="301" on="1"/>
        <pt x="872" y="155" on="0"/>
        <pt x="717" y="-18" on="0"/>
        <pt x="590" y="-18" on="1"/>
        <pt x="447" y="-18" on="0"/>
        <pt x="313" y="147" on="0"/>
        <pt x="313" y="311" on="1"/>
        <pt x="313" y="596" on="1"/>
        <pt x="209" y="553" on="0"/>
        <pt x="115" y="532" on="1"/>
        <pt x="115" y="616" on="1"/>
        <pt x="221" y="644" on="0"/>
        <pt x="313" y="682" on="1"/>
        <pt x="313" y="1188" on="1"/>
        <pt x="313" y="1332" on="0"/>
        <pt x="438" y="1483" on="0"/>
        <pt x="553" y="1483" on="1"/>
        <pt x="669" y="1483" on="0"/>
        <pt x="799" y="1330" on="0"/>
        <pt x="799" y="1190" on="1"/>
        <pt x="799" y="1002" on="0"/>
        <pt x="601" y="717" on="0"/>
        <pt x="412" y="631" on="1"/>
        <pt x="412" y="330" on="1"/>
        <pt x="412" y="196" on="0"/>
        <pt x="500" y="72" on="0"/>
      </contour>
      <contour>
        <pt x="705" y="1188" on="1"/>
        <pt x="705" y="1293" on="0"/>
        <pt x="624" y="1399" on="0"/>
        <pt x="553" y="1399" on="1"/>
        <pt x="480" y="1399" on="0"/>
        <pt x="412" y="1303" on="0"/>
        <pt x="412" y="1188" on="1"/>
        <pt x="412" y="725" on="1"/>
        <pt x="564" y="802" on="0"/>
        <pt x="705" y="1028" on="0"/>
      </contour>
    </TTGlyph>
    <TTGlyph name="afii61352" xMin="207" yMin="0" xMax="1958" yMax="1462">
      <contour>
        <pt x="1208" y="0" on="1"/>
        <pt x="1104" y="0" on="1"/>
        <pt x="301" y="1296" on="1"/>
        <pt x="293" y="1296" on="1"/>
        <pt x="305" y="1064" on="0"/>
        <pt x="305" y="948" on="1"/>
        <pt x="305" y="0" on="1"/>
        <pt x="207" y="0" on="1"/>
        <pt x="207" y="1462" on="1"/>
        <pt x="309" y="1462" on="1"/>
        <pt x="1112" y="172" on="1"/>
        <pt x="1118" y="172" on="1"/>
        <pt x="1110" y="404" on="0"/>
        <pt x="1110" y="508" on="1"/>
        <pt x="1110" y="1462" on="1"/>
        <pt x="1208" y="1462" on="1"/>
      </contour>
      <contour>
        <pt x="1958" y="610" on="1"/>
        <pt x="1958" y="444" on="0"/>
        <pt x="1799" y="274" on="0"/>
        <pt x="1661" y="274" on="1"/>
        <pt x="1526" y="274" on="0"/>
        <pt x="1370" y="444" on="0"/>
        <pt x="1370" y="610" on="1"/>
        <pt x="1370" y="774" on="0"/>
        <pt x="1528" y="952" on="0"/>
        <pt x="1667" y="952" on="1"/>
        <pt x="1805" y="952" on="0"/>
        <pt x="1958" y="772" on="0"/>
      </contour>
      <contour>
        <pt x="1468" y="610" on="1"/>
        <pt x="1468" y="487" on="0"/>
        <pt x="1568" y="362" on="0"/>
        <pt x="1665" y="362" on="1"/>
        <pt x="1759" y="362" on="0"/>
        <pt x="1860" y="489" on="0"/>
        <pt x="1860" y="610" on="1"/>
        <pt x="1860" y="734" on="0"/>
        <pt x="1761" y="864" on="0"/>
        <pt x="1665" y="864" on="1"/>
        <pt x="1468" y="864" on="0"/>
      </contour>
      <contour>
        <pt x="1425" y="0" on="1"/>
        <pt x="1425" y="86" on="1"/>
        <pt x="1898" y="86" on="1"/>
        <pt x="1898" y="0" on="1"/>
      </contour>
    </TTGlyph>
    <TTGlyph name="agrave" xMin="98" yMin="-20" xMax="915" yMax="1569">
      <component glyphName="a" x="0" y="0" flags="0x204"/>
      <component glyphName="grave" x="-138" y="0" flags="0x4"/>
    </TTGlyph>
    <TTGlyph name="alpha" xMin="119" yMin="-20" xMax="1180" yMax="1108">
      <contour>
        <pt x="578" y="68" on="1"/>
        <pt x="758" y="68" on="0"/>
        <pt x="928" y="285" on="0"/>
        <pt x="928" y="530" on="1"/>
        <pt x="928" y="565" on="1"/>
        <pt x="928" y="802" on="0"/>
        <pt x="757" y="1018" on="0"/>
        <pt x="575" y="1018" on="1"/>
        <pt x="406" y="1018" on="0"/>
        <pt x="223" y="771" on="0"/>
        <pt x="223" y="541" on="1"/>
        <pt x="223" y="68" on="0"/>
      </contour>
      <contour>
        <pt x="578" y="-20" on="1"/>
        <pt x="352" y="-20" on="0"/>
        <pt x="119" y="266" on="0"/>
        <pt x="119" y="539" on="1"/>
        <pt x="119" y="814" on="0"/>
        <pt x="360" y="1108" on="0"/>
        <pt x="586" y="1108" on="1"/>
        <pt x="714" y="1108" on="0"/>
        <pt x="890" y="995" on="0"/>
        <pt x="944" y="874" on="1"/>
        <pt x="950" y="874" on="1"/>
        <pt x="954" y="926" on="0"/>
        <pt x="983" y="1061" on="0"/>
        <pt x="993" y="1087" on="1"/>
        <pt x="1067" y="1087" on="1"/>
        <pt x="1026" y="953" on="0"/>
        <pt x="1026" y="696" on="1"/>
        <pt x="1026" y="201" on="1"/>
        <pt x="1026" y="59" on="0"/>
        <pt x="1116" y="59" on="1"/>
        <pt x="1153" y="59" on="0"/>
        <pt x="1180" y="70" on="1"/>
        <pt x="1180" y="-2" on="1"/>
        <pt x="1151" y="-20" on="0"/>
        <pt x="1098" y="-20" on="1"/>
        <pt x="952" y="-20" on="0"/>
        <pt x="934" y="168" on="1"/>
        <pt x="926" y="168" on="1"/>
        <pt x="863" y="70" on="0"/>
        <pt x="693" y="-20" on="0"/>
      </contour>
    </TTGlyph>
    <TTGlyph name="alphatonos" xMin="119" yMin="-20" xMax="1180" yMax="1651">
      <component glyphName="alpha" x="0" y="0" flags="0x204"/>
      <component glyphName="tonos" x="37" y="0" flags="0x4"/>
    </TTGlyph>
    <TTGlyph name="amacron" xMin="98" yMin="-20" xMax="915" yMax="1333">
      <component glyphName="a" x="0" y="0" flags="0x204"/>
      <component glyphName="macron" x="-19" y="0" flags="0x4"/>
    </TTGlyph>
    <TTGlyph name="ampersand" xMin="123" yMin="-20" xMax="1415" yMax="1485">
      <contour>
        <pt x="123" y="371" on="1"/>
        <pt x="123" y="509" on="0"/>
        <pt x="270" y="703" on="0"/>
        <pt x="471" y="811" on="1"/>
        <pt x="396" y="893" on="1"/>
        <pt x="330" y="964" on="0"/>
        <pt x="266" y="1100" on="0"/>
        <pt x="266" y="1174" on="1"/>
        <pt x="266" y="1317" on="0"/>
        <pt x="457" y="1485" on="0"/>
        <pt x="618" y="1485" on="1"/>
        <pt x="773" y="1485" on="0"/>
        <pt x="954" y="1323" on="0"/>
        <pt x="954" y="1180" on="1"/>
        <pt x="954" y="1075" on="0"/>
        <pt x="814" y="900" on="0"/>
        <pt x="631" y="793" on="1"/>
        <pt x="1083" y="336" on="1"/>
        <pt x="1144" y="408" on="0"/>
        <pt x="1230" y="578" on="0"/>
        <pt x="1262" y="694" on="1"/>
        <pt x="1358" y="694" on="1"/>
        <pt x="1295" y="448" on="0"/>
        <pt x="1149" y="268" on="1"/>
        <pt x="1415" y="0" on="1"/>
        <pt x="1280" y="0" on="1"/>
        <pt x="1087" y="197" on="1"/>
        <pt x="995" y="107" on="0"/>
        <pt x="851" y="24" on="0"/>
        <pt x="680" y="-20" on="0"/>
        <pt x="571" y="-20" on="1"/>
        <pt x="362" y="-20" on="0"/>
        <pt x="123" y="186" on="0"/>
      </contour>
      <contour>
        <pt x="578" y="70" on="1"/>
        <pt x="706" y="70" on="0"/>
        <pt x="919" y="157" on="0"/>
        <pt x="1022" y="260" on="1"/>
        <pt x="539" y="745" on="1"/>
        <pt x="403" y="673" on="0"/>
        <pt x="282" y="572" on="0"/>
        <pt x="227" y="454" on="0"/>
        <pt x="227" y="375" on="1"/>
        <pt x="227" y="232" on="0"/>
        <pt x="413" y="70" on="0"/>
      </contour>
      <contour>
        <pt x="373" y="1176" on="1"/>
        <pt x="373" y="1097" on="0"/>
        <pt x="453" y="963" on="0"/>
        <pt x="565" y="856" on="1"/>
        <pt x="724" y="941" on="0"/>
        <pt x="848" y="1089" on="0"/>
        <pt x="848" y="1184" on="1"/>
        <pt x="848" y="1278" on="0"/>
        <pt x="724" y="1395" on="0"/>
        <pt x="618" y="1395" on="1"/>
        <pt x="504" y="1395" on="0"/>
        <pt x="373" y="1279" on="0"/>
      </contour>
    </TTGlyph>
    <TTGlyph name="anoteleia" xMin="162" yMin="623" xMax="324" yMax="819">
      <component glyphName="period" x="0" y="643" flags="0x4"/>
    </TTGlyph>
    <TTGlyph name="aogonek" xMin="98" yMin="-446" xMax="960" yMax="1106">
      <contour>
        <pt x="772" y="-248" on="1"/>
        <pt x="772" y="-358" on="0"/>
        <pt x="878" y="-358" on="1"/>
        <pt x="927" y="-358" on="0"/>
        <pt x="960" y="-346" on="1"/>
        <pt x="960" y="-430" on="1"/>
        <pt x="920" y="-446" on="0"/>
        <pt x="856" y="-446" on="1"/>
        <pt x="772" y="-446" on="0"/>
        <pt x="673" y="-351" on="0"/>
        <pt x="673" y="-264" on="1"/>
        <pt x="673" y="-194" on="0"/>
        <pt x="713" y="-125" on="1"/>
        <pt x="751" y="-58" on="0"/>
        <pt x="840" y="13" on="1"/>
        <pt x="817" y="172" on="1"/>
        <pt x="809" y="172" on="1"/>
        <pt x="727" y="67" on="0"/>
        <pt x="554" y="-20" on="0"/>
        <pt x="436" y="-20" on="1"/>
        <pt x="276" y="-20" on="0"/>
        <pt x="98" y="144" on="0"/>
        <pt x="98" y="289" on="1"/>
        <pt x="98" y="448" on="0"/>
        <pt x="363" y="624" on="0"/>
        <pt x="614" y="629" on="1"/>
        <pt x="821" y="635" on="1"/>
        <pt x="821" y="707" on="1"/>
        <pt x="821" y="862" on="0"/>
        <pt x="695" y="1020" on="0"/>
        <pt x="555" y="1020" on="1"/>
        <pt x="404" y="1020" on="0"/>
        <pt x="242" y="936" on="1"/>
        <pt x="205" y="1022" on="1"/>
        <pt x="384" y="1106" on="0"/>
        <pt x="559" y="1106" on="1"/>
        <pt x="738" y="1106" on="0"/>
        <pt x="915" y="920" on="0"/>
        <pt x="915" y="723" on="1"/>
        <pt x="915" y="0" on="1"/>
        <pt x="843" y="-63" on="0"/>
        <pt x="772" y="-176" on="0"/>
      </contour>
      <contour>
        <pt x="442" y="70" on="1"/>
        <pt x="616" y="70" on="0"/>
        <pt x="817" y="269" on="0"/>
        <pt x="817" y="446" on="1"/>
        <pt x="817" y="553" on="1"/>
        <pt x="627" y="545" on="1"/>
        <pt x="398" y="534" on="0"/>
        <pt x="203" y="413" on="0"/>
        <pt x="203" y="285" on="1"/>
        <pt x="203" y="183" on="0"/>
        <pt x="328" y="70" on="0"/>
      </contour>
    </TTGlyph>
    <TTGlyph name="approxequal" xMin="111" yMin="442" xMax="1059" yMax="1024">
      <contour>
        <pt x="334" y="940" on="1"/>
        <pt x="286" y="940" on="0"/>
        <pt x="171" y="882" on="0"/>
        <pt x="111" y="819" on="1"/>
        <pt x="111" y="913" on="1"/>
        <pt x="218" y="1024" on="0"/>
        <pt x="344" y="1024" on="1"/>
        <pt x="408" y="1024" on="0"/>
        <pt x="522" y="994" on="0"/>
        <pt x="614" y="952" on="1"/>
        <pt x="738" y="895" on="0"/>
        <pt x="834" y="895" on="1"/>
        <pt x="944" y="895" on="0"/>
        <pt x="1059" y="1020" on="1"/>
        <pt x="1059" y="924" on="1"/>
        <pt x="951" y="811" on="0"/>
        <pt x="825" y="811" on="1"/>
        <pt x="709" y="811" on="0"/>
        <pt x="555" y="883" on="1"/>
        <pt x="431" y="940" on="0"/>
      </contour>
      <contour>
        <pt x="334" y="571" on="1"/>
        <pt x="285" y="571" on="0"/>
        <pt x="167" y="510" on="0"/>
        <pt x="111" y="451" on="1"/>
        <pt x="111" y="545" on="1"/>
        <pt x="219" y="655" on="0"/>
        <pt x="344" y="655" on="1"/>
        <pt x="405" y="655" on="0"/>
        <pt x="513" y="628" on="0"/>
        <pt x="614" y="584" on="1"/>
        <pt x="740" y="526" on="0"/>
        <pt x="834" y="526" on="1"/>
        <pt x="890" y="526" on="0"/>
        <pt x="997" y="587" on="0"/>
        <pt x="1059" y="651" on="1"/>
        <pt x="1059" y="555" on="1"/>
        <pt x="951" y="442" on="0"/>
        <pt x="825" y="442" on="1"/>
        <pt x="709" y="442" on="0"/>
        <pt x="555" y="514" on="1"/>
        <pt x="431" y="571" on="0"/>
      </contour>
    </TTGlyph>
    <TTGlyph name="aring" xMin="98" yMin="-20" xMax="915" yMax="1667">
      <component glyphName="a" x="0" y="0" flags="0x204"/>
      <component glyphName="ring" x="-46" y="0" flags="0x4"/>
    </TTGlyph>
    <TTGlyph name="aringacute" xMin="98" yMin="-20" xMax="915" yMax="1962">
      <contour>
        <pt x="842" y="0" on="1"/>
        <pt x="817" y="172" on="1"/>
        <pt x="809" y="172" on="1"/>
        <pt x="727" y="67" on="0"/>
        <pt x="554" y="-20" on="0"/>
        <pt x="436" y="-20" on="1"/>
        <pt x="276" y="-20" on="0"/>
        <pt x="98" y="144" on="0"/>
        <pt x="98" y="289" on="1"/>
        <pt x="98" y="448" on="0"/>
        <pt x="363" y="624" on="0"/>
        <pt x="614" y="629" on="1"/>
        <pt x="821" y="635" on="1"/>
        <pt x="821" y="707" on="1"/>
        <pt x="821" y="862" on="0"/>
        <pt x="695" y="1020" on="0"/>
        <pt x="555" y="1020" on="1"/>
        <pt x="404" y="1020" on="0"/>
        <pt x="242" y="936" on="1"/>
        <pt x="205" y="1022" on="1"/>
        <pt x="384" y="1106" on="0"/>
        <pt x="559" y="1106" on="1"/>
        <pt x="738" y="1106" on="0"/>
        <pt x="915" y="920" on="0"/>
        <pt x="915" y="723" on="1"/>
        <pt x="915" y="0" on="1"/>
      </contour>
      <contour>
        <pt x="442" y="70" on="1"/>
        <pt x="616" y="70" on="0"/>
        <pt x="817" y="269" on="0"/>
        <pt x="817" y="446" on="1"/>
        <pt x="817" y="553" on="1"/>
        <pt x="627" y="545" on="1"/>
        <pt x="398" y="534" on="0"/>
        <pt x="203" y="413" on="0"/>
        <pt x="203" y="285" on="1"/>
        <pt x="203" y="183" on="0"/>
        <pt x="328" y="70" on="0"/>
      </contour>
      <contour>
        <pt x="467" y="1712" on="1"/>
        <pt x="515" y="1762" on="0"/>
        <pt x="622" y="1908" on="0"/>
        <pt x="655" y="1962" on="1"/>
        <pt x="793" y="1962" on="1"/>
        <pt x="793" y="1948" on="1"/>
        <pt x="758" y="1903" on="0"/>
        <pt x="603" y="1753" on="0"/>
        <pt x="535" y="1700" on="1"/>
        <pt x="467" y="1700" on="1"/>
      </contour>
      <contour>
        <pt x="758" y="1413" on="1"/>
        <pt x="758" y="1316" on="0"/>
        <pt x="638" y="1200" on="0"/>
        <pt x="541" y="1200" on="1"/>
        <pt x="444" y="1200" on="0"/>
        <pt x="324" y="1316" on="0"/>
        <pt x="324" y="1413" on="1"/>
        <pt x="324" y="1507" on="0"/>
        <pt x="444" y="1624" on="0"/>
        <pt x="541" y="1624" on="1"/>
        <pt x="638" y="1624" on="0"/>
        <pt x="758" y="1506" on="0"/>
      </contour>
      <contour>
        <pt x="403" y="1413" on="1"/>
        <pt x="403" y="1347" on="0"/>
        <pt x="479" y="1272" on="0"/>
        <pt x="541" y="1272" on="1"/>
        <pt x="603" y="1272" on="0"/>
        <pt x="678" y="1347" on="0"/>
        <pt x="678" y="1413" on="1"/>
        <pt x="678" y="1477" on="0"/>
        <pt x="600" y="1552" on="0"/>
        <pt x="541" y="1552" on="1"/>
        <pt x="481" y="1552" on="0"/>
        <pt x="403" y="1477" on="0"/>
      </contour>
    </TTGlyph>
    <TTGlyph name="asciicircum" xMin="88" yMin="561" xMax="1081" yMax="1473">
      <contour>
        <pt x="88" y="561" on="1"/>
        <pt x="553" y="1473" on="1"/>
        <pt x="621" y="1473" on="1"/>
        <pt x="1081" y="561" on="1"/>
        <pt x="981" y="561" on="1"/>
        <pt x="586" y="1352" on="1"/>
        <pt x="188" y="561" on="1"/>
      </contour>
    </TTGlyph>
    <TTGlyph name="asciitilde" xMin="111" yMin="616" xMax="1059" yMax="829">
      <contour>
        <pt x="334" y="745" on="1"/>
        <pt x="285" y="745" on="0"/>
        <pt x="167" y="684" on="0"/>
        <pt x="111" y="625" on="1"/>
        <pt x="111" y="719" on="1"/>
        <pt x="219" y="829" on="0"/>
        <pt x="344" y="829" on="1"/>
        <pt x="405" y="829" on="0"/>
        <pt x="513" y="802" on="0"/>
        <pt x="614" y="758" on="1"/>
        <pt x="740" y="700" on="0"/>
        <pt x="834" y="700" on="1"/>
        <pt x="890" y="700" on="0"/>
        <pt x="997" y="761" on="0"/>
        <pt x="1059" y="825" on="1"/>
        <pt x="1059" y="729" on="1"/>
        <pt x="1011" y="680" on="0"/>
        <pt x="898" y="616" on="0"/>
        <pt x="825" y="616" on="1"/>
        <pt x="709" y="616" on="0"/>
        <pt x="555" y="688" on="1"/>
        <pt x="431" y="745" on="0"/>
      </contour>
    </TTGlyph>
    <TTGlyph name="asterisk" xMin="104" yMin="674" xMax="1020" yMax="1556">
      <contour>
        <pt x="631" y="1556" on="1"/>
        <pt x="594" y="1151" on="1"/>
        <pt x="999" y="1255" on="1"/>
        <pt x="1020" y="1124" on="1"/>
        <pt x="625" y="1085" on="1"/>
        <pt x="872" y="745" on="1"/>
        <pt x="748" y="674" on="1"/>
        <pt x="557" y="1053" on="1"/>
        <pt x="377" y="674" on="1"/>
        <pt x="252" y="745" on="1"/>
        <pt x="494" y="1085" on="1"/>
        <pt x="104" y="1124" on="1"/>
        <pt x="123" y="1255" on="1"/>
        <pt x="524" y="1151" on="1"/>
        <pt x="485" y="1556" on="1"/>
      </contour>
    </TTGlyph>
    <TTGlyph name="at" xMin="113" yMin="-197" xMax="1702" yMax="1452">
      <contour>
        <pt x="1702" y="725" on="1"/>
        <pt x="1702" y="497" on="0"/>
        <pt x="1521" y="221" on="0"/>
        <pt x="1366" y="221" on="1"/>
        <pt x="1277" y="221" on="0"/>
        <pt x="1166" y="329" on="0"/>
        <pt x="1157" y="422" on="1"/>
        <pt x="1153" y="422" on="1"/>
        <pt x="1110" y="322" on="0"/>
        <pt x="948" y="221" on="0"/>
        <pt x="840" y="221" on="1"/>
        <pt x="692" y="221" on="0"/>
        <pt x="530" y="414" on="0"/>
        <pt x="530" y="588" on="1"/>
        <pt x="530" y="790" on="0"/>
        <pt x="771" y="1047" on="0"/>
        <pt x="965" y="1047" on="1"/>
        <pt x="1103" y="1047" on="0"/>
        <pt x="1251" y="1006" on="1"/>
        <pt x="1229" y="542" on="1"/>
        <pt x="1229" y="512" on="1"/>
        <pt x="1229" y="408" on="0"/>
        <pt x="1299" y="303" on="0"/>
        <pt x="1380" y="303" on="1"/>
        <pt x="1483" y="303" on="0"/>
        <pt x="1614" y="536" on="0"/>
        <pt x="1614" y="723" on="1"/>
        <pt x="1614" y="917" on="0"/>
        <pt x="1456" y="1209" on="0"/>
        <pt x="1163" y="1366" on="0"/>
        <pt x="975" y="1366" on="1"/>
        <pt x="745" y="1366" on="0"/>
        <pt x="394" y="1167" on="0"/>
        <pt x="205" y="803" on="0"/>
        <pt x="205" y="567" on="1"/>
        <pt x="205" y="245" on="0"/>
        <pt x="539" y="-106" on="0"/>
        <pt x="846" y="-106" on="1"/>
        <pt x="939" y="-106" on="0"/>
        <pt x="1130" y="-70" on="0"/>
        <pt x="1266" y="-18" on="1"/>
        <pt x="1266" y="-117" on="1"/>
        <pt x="1063" y="-197" on="0"/>
        <pt x="852" y="-197" on="1"/>
        <pt x="503" y="-197" on="0"/>
        <pt x="113" y="204" on="0"/>
        <pt x="113" y="561" on="1"/>
        <pt x="113" y="817" on="0"/>
        <pt x="330" y="1226" on="0"/>
        <pt x="727" y="1452" on="0"/>
        <pt x="977" y="1452" on="1"/>
        <pt x="1192" y="1452" on="0"/>
        <pt x="1523" y="1274" on="0"/>
        <pt x="1702" y="943" on="0"/>
      </contour>
      <contour>
        <pt x="633" y="590" on="1"/>
        <pt x="633" y="447" on="0"/>
        <pt x="743" y="303" on="0"/>
        <pt x="862" y="303" on="1"/>
        <pt x="1117" y="303" on="0"/>
        <pt x="1135" y="649" on="1"/>
        <pt x="1151" y="940" on="1"/>
        <pt x="1072" y="967" on="0"/>
        <pt x="958" y="967" on="1"/>
        <pt x="809" y="967" on="0"/>
        <pt x="633" y="762" on="0"/>
      </contour>
    </TTGlyph>
    <TTGlyph name="atilde" xMin="98" yMin="-20" xMax="915" yMax="1481">
      <component glyphName="a" x="0" y="0" flags="0x204"/>
      <component glyphName="tilde" x="-83" y="0" flags="0x4"/>
    </TTGlyph>
    <TTGlyph name="b" xMin="182" yMin="-20" xMax="1100" yMax="1556">
      <contour>
        <pt x="641" y="1108" on="1"/>
        <pt x="869" y="1108" on="0"/>
        <pt x="1100" y="821" on="0"/>
        <pt x="1100" y="545" on="1"/>
        <pt x="1100" y="274" on="0"/>
        <pt x="857" y="-20" on="0"/>
        <pt x="637" y="-20" on="1"/>
        <pt x="521" y="-20" on="0"/>
        <pt x="335" y="76" on="0"/>
        <pt x="281" y="164" on="1"/>
        <pt x="272" y="164" on="1"/>
        <pt x="244" y="0" on="1"/>
        <pt x="182" y="0" on="1"/>
        <pt x="182" y="1556" on="1"/>
        <pt x="281" y="1556" on="1"/>
        <pt x="281" y="1165" on="1"/>
        <pt x="281" y="1077" on="0"/>
        <pt x="277" y="1003" on="1"/>
        <pt x="274" y="918" on="1"/>
        <pt x="281" y="918" on="1"/>
        <pt x="343" y="1016" on="0"/>
        <pt x="518" y="1108" on="0"/>
      </contour>
      <contour>
        <pt x="639" y="1018" on="1"/>
        <pt x="447" y="1018" on="0"/>
        <pt x="281" y="798" on="0"/>
        <pt x="281" y="545" on="1"/>
        <pt x="281" y="528" on="1"/>
        <pt x="281" y="282" on="0"/>
        <pt x="454" y="68" on="0"/>
        <pt x="637" y="68" on="1"/>
        <pt x="815" y="68" on="0"/>
        <pt x="995" y="317" on="0"/>
        <pt x="995" y="547" on="1"/>
        <pt x="995" y="1018" on="0"/>
      </contour>
    </TTGlyph>
    <TTGlyph name="backslash" xMin="25" yMin="0" xMax="674" yMax="1462">
      <contour>
        <pt x="127" y="1462" on="1"/>
        <pt x="674" y="0" on="1"/>
        <pt x="571" y="0" on="1"/>
        <pt x="25" y="1462" on="1"/>
      </contour>
    </TTGlyph>
    <TTGlyph name="bar" xMin="508" yMin="-506" xMax="600" yMax="1561">
      <contour>
        <pt x="508" y="1561" on="1"/>
        <pt x="600" y="1561" on="1"/>
        <pt x="600" y="-506" on="1"/>
        <pt x="508" y="-506" on="1"/>
      </contour>
    </TTGlyph>
    <TTGlyph name="beta" xMin="182" yMin="-492" xMax="1143" yMax="1567">
      <contour>
        <pt x="649" y="1567" on="1"/>
        <pt x="853" y="1567" on="0"/>
        <pt x="1083" y="1363" on="0"/>
        <pt x="1083" y="1182" on="1"/>
        <pt x="1083" y="1042" on="0"/>
        <pt x="938" y="857" on="0"/>
        <pt x="797" y="831" on="1"/>
        <pt x="797" y="825" on="1"/>
        <pt x="973" y="801" on="0"/>
        <pt x="1143" y="601" on="0"/>
        <pt x="1143" y="414" on="1"/>
        <pt x="1143" y="213" on="0"/>
        <pt x="879" y="-12" on="0"/>
        <pt x="653" y="-12" on="1"/>
        <pt x="470" y="-12" on="0"/>
        <pt x="281" y="88" on="1"/>
        <pt x="281" y="-492" on="1"/>
        <pt x="182" y="-492" on="1"/>
        <pt x="182" y="1094" on="1"/>
        <pt x="182" y="1318" on="0"/>
        <pt x="424" y="1567" on="0"/>
      </contour>
      <contour>
        <pt x="647" y="1479" on="1"/>
        <pt x="465" y="1479" on="0"/>
        <pt x="281" y="1285" on="0"/>
        <pt x="281" y="1098" on="1"/>
        <pt x="281" y="170" on="1"/>
        <pt x="390" y="112" on="0"/>
        <pt x="560" y="66" on="0"/>
        <pt x="651" y="66" on="1"/>
        <pt x="838" y="66" on="0"/>
        <pt x="1049" y="248" on="0"/>
        <pt x="1049" y="412" on="1"/>
        <pt x="1049" y="776" on="0"/>
        <pt x="657" y="776" on="1"/>
        <pt x="539" y="776" on="1"/>
        <pt x="539" y="864" on="1"/>
        <pt x="645" y="864" on="1"/>
        <pt x="809" y="864" on="0"/>
        <pt x="979" y="1027" on="0"/>
        <pt x="979" y="1184" on="1"/>
        <pt x="979" y="1323" on="0"/>
        <pt x="805" y="1479" on="0"/>
      </contour>
    </TTGlyph>
    <TTGlyph name="braceleft" xMin="61" yMin="-324" xMax="651" yMax="1462">
      <contour>
        <pt x="389" y="-27" on="1"/>
        <pt x="389" y="-129" on="0"/>
        <pt x="508" y="-230" on="0"/>
        <pt x="651" y="-233" on="1"/>
        <pt x="651" y="-324" on="1"/>
        <pt x="456" y="-324" on="0"/>
        <pt x="291" y="-174" on="0"/>
        <pt x="291" y="-18" on="1"/>
        <pt x="291" y="319" on="1"/>
        <pt x="291" y="524" on="0"/>
        <pt x="61" y="528" on="1"/>
        <pt x="61" y="608" on="1"/>
        <pt x="183" y="610" on="0"/>
        <pt x="291" y="708" on="0"/>
        <pt x="291" y="807" on="1"/>
        <pt x="291" y="1157" on="1"/>
        <pt x="291" y="1456" on="0"/>
        <pt x="651" y="1462" on="1"/>
        <pt x="651" y="1372" on="1"/>
        <pt x="513" y="1367" on="0"/>
        <pt x="389" y="1261" on="0"/>
        <pt x="389" y="1157" on="1"/>
        <pt x="389" y="852" on="1"/>
        <pt x="389" y="722" on="0"/>
        <pt x="301" y="594" on="0"/>
        <pt x="203" y="573" on="1"/>
        <pt x="203" y="565" on="1"/>
        <pt x="300" y="545" on="0"/>
        <pt x="389" y="418" on="0"/>
        <pt x="389" y="295" on="1"/>
      </contour>
    </TTGlyph>
    <TTGlyph name="braceright" xMin="72" yMin="-324" xMax="662" yMax="1462">
      <contour>
        <pt x="334" y="295" on="1"/>
        <pt x="334" y="418" on="0"/>
        <pt x="423" y="545" on="0"/>
        <pt x="520" y="565" on="1"/>
        <pt x="520" y="573" on="1"/>
        <pt x="423" y="593" on="0"/>
        <pt x="334" y="721" on="0"/>
        <pt x="334" y="852" on="1"/>
        <pt x="334" y="1157" on="1"/>
        <pt x="334" y="1260" on="0"/>
        <pt x="211" y="1367" on="0"/>
        <pt x="72" y="1372" on="1"/>
        <pt x="72" y="1462" on="1"/>
        <pt x="246" y="1462" on="0"/>
        <pt x="432" y="1307" on="0"/>
        <pt x="432" y="1157" on="1"/>
        <pt x="432" y="807" on="1"/>
        <pt x="432" y="707" on="0"/>
        <pt x="541" y="610" on="0"/>
        <pt x="662" y="608" on="1"/>
        <pt x="662" y="528" on="1"/>
        <pt x="432" y="524" on="0"/>
        <pt x="432" y="319" on="1"/>
        <pt x="432" y="-18" on="1"/>
        <pt x="432" y="-173" on="0"/>
        <pt x="267" y="-324" on="0"/>
        <pt x="72" y="-324" on="1"/>
        <pt x="72" y="-233" on="1"/>
        <pt x="213" y="-231" on="0"/>
        <pt x="334" y="-130" on="0"/>
        <pt x="334" y="-27" on="1"/>
      </contour>
    </TTGlyph>
    <TTGlyph name="bracketleft" xMin="174" yMin="-324" xMax="602" yMax="1462">
      <contour>
        <pt x="602" y="-324" on="1"/>
        <pt x="174" y="-324" on="1"/>
        <pt x="174" y="1462" on="1"/>
        <pt x="602" y="1462" on="1"/>
        <pt x="602" y="1368" on="1"/>
        <pt x="272" y="1368" on="1"/>
        <pt x="272" y="-229" on="1"/>
        <pt x="602" y="-229" on="1"/>
      </contour>
    </TTGlyph>
    <TTGlyph name="bracketright" xMin="51" yMin="-324" xMax="479" yMax="1462">
      <contour>
        <pt x="51" y="-229" on="1"/>
        <pt x="381" y="-229" on="1"/>
        <pt x="381" y="1368" on="1"/>
        <pt x="51" y="1368" on="1"/>
        <pt x="51" y="1462" on="1"/>
        <pt x="479" y="1462" on="1"/>
        <pt x="479" y="-324" on="1"/>
        <pt x="51" y="-324" on="1"/>
      </contour>
    </TTGlyph>
    <TTGlyph name="breve" xMin="311" yMin="1241" xMax="864" yMax="1487">
      <contour>
        <pt x="586" y="1241" on="1"/>
        <pt x="333" y="1241" on="0"/>
        <pt x="311" y="1487" on="1"/>
        <pt x="393" y="1487" on="1"/>
        <pt x="407" y="1400" on="0"/>
        <pt x="500" y="1325" on="0"/>
        <pt x="588" y="1325" on="1"/>
        <pt x="676" y="1325" on="0"/>
        <pt x="769" y="1400" on="0"/>
        <pt x="784" y="1487" on="1"/>
        <pt x="864" y="1487" on="1"/>
        <pt x="834" y="1241" on="0"/>
      </contour>
    </TTGlyph>
    <TTGlyph name="breveacutecomb" xMin="-887" yMin="1241" xMax="-334" yMax="1729">
      <contour>
        <pt x="-612" y="1241" on="1"/>
        <pt x="-865" y="1241" on="0"/>
        <pt x="-887" y="1487" on="1"/>
        <pt x="-805" y="1487" on="1"/>
        <pt x="-791" y="1400" on="0"/>
        <pt x="-698" y="1325" on="0"/>
        <pt x="-610" y="1325" on="1"/>
        <pt x="-522" y="1325" on="0"/>
        <pt x="-429" y="1400" on="0"/>
        <pt x="-414" y="1487" on="1"/>
        <pt x="-334" y="1487" on="1"/>
        <pt x="-364" y="1241" on="0"/>
      </contour>
      <contour>
        <pt x="-674" y="1518" on="1"/>
        <pt x="-640" y="1560" on="0"/>
        <pt x="-589" y="1636" on="0"/>
        <pt x="-539" y="1729" on="1"/>
        <pt x="-414" y="1729" on="1"/>
        <pt x="-414" y="1712" on="1"/>
        <pt x="-451" y="1659" on="0"/>
        <pt x="-563" y="1538" on="0"/>
        <pt x="-606" y="1501" on="1"/>
        <pt x="-674" y="1501" on="1"/>
      </contour>
    </TTGlyph>
    <TTGlyph name="brevegravecomb" xMin="-887" yMin="1241" xMax="-334" yMax="1729">
      <contour>
        <pt x="-559" y="1501" on="1"/>
        <pt x="-627" y="1501" on="1"/>
        <pt x="-669" y="1538" on="0"/>
        <pt x="-783" y="1661" on="0"/>
        <pt x="-819" y="1712" on="1"/>
        <pt x="-819" y="1729" on="1"/>
        <pt x="-694" y="1729" on="1"/>
        <pt x="-643" y="1635" on="0"/>
        <pt x="-605" y="1578" on="0"/>
        <pt x="-559" y="1518" on="1"/>
      </contour>
      <contour>
        <pt x="-612" y="1241" on="1"/>
        <pt x="-865" y="1241" on="0"/>
        <pt x="-887" y="1487" on="1"/>
        <pt x="-805" y="1487" on="1"/>
        <pt x="-791" y="1400" on="0"/>
        <pt x="-698" y="1325" on="0"/>
        <pt x="-610" y="1325" on="1"/>
        <pt x="-522" y="1325" on="0"/>
        <pt x="-429" y="1400" on="0"/>
        <pt x="-414" y="1487" on="1"/>
        <pt x="-334" y="1487" on="1"/>
        <pt x="-364" y="1241" on="0"/>
      </contour>
    </TTGlyph>
    <TTGlyph name="brevehookcomb" xMin="-887" yMin="1241" xMax="-334" yMax="1798">
      <contour>
        <pt x="-469" y="1661" on="1"/>
        <pt x="-469" y="1554" on="0"/>
        <pt x="-596" y="1530" on="1"/>
        <pt x="-602" y="1487" on="1"/>
        <pt x="-672" y="1487" on="1"/>
        <pt x="-682" y="1577" on="1"/>
        <pt x="-620" y="1588" on="0"/>
        <pt x="-557" y="1623" on="0"/>
        <pt x="-557" y="1661" on="1"/>
        <pt x="-557" y="1724" on="0"/>
        <pt x="-655" y="1724" on="1"/>
        <pt x="-694" y="1724" on="0"/>
        <pt x="-733" y="1718" on="1"/>
        <pt x="-733" y="1790" on="1"/>
        <pt x="-699" y="1798" on="0"/>
        <pt x="-643" y="1798" on="1"/>
        <pt x="-563" y="1798" on="0"/>
        <pt x="-469" y="1724" on="0"/>
      </contour>
      <contour>
        <pt x="-612" y="1241" on="1"/>
        <pt x="-865" y="1241" on="0"/>
        <pt x="-887" y="1487" on="1"/>
        <pt x="-805" y="1487" on="1"/>
        <pt x="-791" y="1400" on="0"/>
        <pt x="-698" y="1325" on="0"/>
        <pt x="-610" y="1325" on="1"/>
        <pt x="-522" y="1325" on="0"/>
        <pt x="-429" y="1400" on="0"/>
        <pt x="-414" y="1487" on="1"/>
        <pt x="-334" y="1487" on="1"/>
        <pt x="-364" y="1241" on="0"/>
      </contour>
    </TTGlyph>
    <TTGlyph name="brevetildecomb" xMin="-907" yMin="1241" xMax="-291" yMax="1798">
      <contour>
        <pt x="-612" y="1241" on="1"/>
        <pt x="-865" y="1241" on="0"/>
        <pt x="-887" y="1487" on="1"/>
        <pt x="-805" y="1487" on="1"/>
        <pt x="-791" y="1400" on="0"/>
        <pt x="-698" y="1325" on="0"/>
        <pt x="-610" y="1325" on="1"/>
        <pt x="-522" y="1325" on="0"/>
        <pt x="-429" y="1400" on="0"/>
        <pt x="-414" y="1487" on="1"/>
        <pt x="-334" y="1487" on="1"/>
        <pt x="-364" y="1241" on="0"/>
      </contour>
      <contour>
        <pt x="-471" y="1587" on="1"/>
        <pt x="-510" y="1587" on="0"/>
        <pt x="-581" y="1627" on="0"/>
        <pt x="-645" y="1674" on="0"/>
        <pt x="-703" y="1714" on="0"/>
        <pt x="-729" y="1714" on="1"/>
        <pt x="-809" y="1714" on="0"/>
        <pt x="-834" y="1585" on="1"/>
        <pt x="-907" y="1585" on="1"/>
        <pt x="-893" y="1682" on="0"/>
        <pt x="-801" y="1796" on="0"/>
        <pt x="-723" y="1796" on="1"/>
        <pt x="-684" y="1796" on="0"/>
        <pt x="-615" y="1757" on="0"/>
        <pt x="-552" y="1710" on="0"/>
        <pt x="-494" y="1671" on="0"/>
        <pt x="-465" y="1671" on="1"/>
        <pt x="-420" y="1671" on="0"/>
        <pt x="-378" y="1741" on="0"/>
        <pt x="-367" y="1798" on="1"/>
        <pt x="-291" y="1798" on="1"/>
        <pt x="-302" y="1697" on="0"/>
        <pt x="-397" y="1587" on="0"/>
      </contour>
    </TTGlyph>
    <TTGlyph name="brokenbar" xMin="508" yMin="-506" xMax="600" yMax="1561">
      <contour>
        <pt x="508" y="1561" on="1"/>
        <pt x="600" y="1561" on="1"/>
        <pt x="600" y="797" on="1"/>
        <pt x="508" y="797" on="1"/>
      </contour>
      <contour>
        <pt x="508" y="258" on="1"/>
        <pt x="600" y="258" on="1"/>
        <pt x="600" y="-506" on="1"/>
        <pt x="508" y="-506" on="1"/>
      </contour>
    </TTGlyph>
    <TTGlyph name="bullet" xMin="231" yMin="567" xMax="539" yMax="928">
      <contour>
        <pt x="231" y="748" on="1"/>
        <pt x="231" y="837" on="0"/>
        <pt x="312" y="928" on="0"/>
        <pt x="385" y="928" on="1"/>
        <pt x="458" y="928" on="0"/>
        <pt x="539" y="834" on="0"/>
        <pt x="539" y="748" on="1"/>
        <pt x="539" y="663" on="0"/>
        <pt x="457" y="567" on="0"/>
        <pt x="385" y="567" on="1"/>
        <pt x="313" y="567" on="0"/>
        <pt x="231" y="661" on="0"/>
      </contour>
    </TTGlyph>
    <TTGlyph name="c" xMin="119" yMin="-20" xMax="901" yMax="1108">
      <contour>
        <pt x="616" y="-20" on="1"/>
        <pt x="383" y="-20" on="0"/>
        <pt x="119" y="274" on="0"/>
        <pt x="119" y="537" on="1"/>
        <pt x="119" y="807" on="0"/>
        <pt x="393" y="1108" on="0"/>
        <pt x="631" y="1108" on="1"/>
        <pt x="772" y="1108" on="0"/>
        <pt x="901" y="1059" on="1"/>
        <pt x="874" y="971" on="1"/>
        <pt x="733" y="1018" on="0"/>
        <pt x="629" y="1018" on="1"/>
        <pt x="429" y="1018" on="0"/>
        <pt x="223" y="771" on="0"/>
        <pt x="223" y="539" on="1"/>
        <pt x="223" y="319" on="0"/>
        <pt x="429" y="70" on="0"/>
        <pt x="614" y="70" on="1"/>
        <pt x="762" y="70" on="0"/>
        <pt x="889" y="123" on="1"/>
        <pt x="889" y="31" on="1"/>
        <pt x="785" y="-20" on="0"/>
      </contour>
    </TTGlyph>
    <TTGlyph name="cacute" xMin="119" yMin="-20" xMax="901" yMax="1569">
      <component glyphName="c" x="0" y="0" flags="0x204"/>
      <component glyphName="acute" x="51" y="0" flags="0x4"/>
    </TTGlyph>
    <TTGlyph name="caron" xMin="299" yMin="1241" xMax="881" yMax="1569">
      <contour>
        <pt x="881" y="1552" on="1"/>
        <pt x="711" y="1364" on="0"/>
        <pt x="639" y="1241" on="1"/>
        <pt x="541" y="1241" on="1"/>
        <pt x="465" y="1369" on="0"/>
        <pt x="299" y="1552" on="1"/>
        <pt x="299" y="1569" on="1"/>
        <pt x="369" y="1569" on="1"/>
        <pt x="483" y="1475" on="0"/>
        <pt x="590" y="1362" on="1"/>
        <pt x="698" y="1476" on="0"/>
        <pt x="811" y="1569" on="1"/>
        <pt x="881" y="1569" on="1"/>
      </contour>
    </TTGlyph>
    <TTGlyph name="caroncommaaccent" xMin="412" yMin="1229" xMax="610" yMax="1556">
      <contour>
        <pt x="412" y="1245" on="1"/>
        <pt x="433" y="1290" on="0"/>
        <pt x="487" y="1479" on="0"/>
        <pt x="498" y="1556" on="1"/>
        <pt x="610" y="1556" on="1"/>
        <pt x="610" y="1542" on="1"/>
        <pt x="595" y="1482" on="0"/>
        <pt x="518" y="1308" on="0"/>
        <pt x="465" y="1229" on="1"/>
        <pt x="412" y="1229" on="1"/>
      </contour>
    </TTGlyph>
    <TTGlyph name="ccaron" xMin="119" yMin="-20" xMax="901" yMax="1569">
      <component glyphName="c" x="0" y="0" flags="0x204"/>
      <component glyphName="caron" x="-9" y="0" flags="0x4"/>
    </TTGlyph>
    <TTGlyph name="ccedilla" xMin="119" yMin="-492" xMax="901" yMax="1108">
      <component glyphName="c" x="0" y="0" flags="0x204"/>
      <component glyphName="cedilla" x="330" y="0" flags="0x4"/>
    </TTGlyph>
    <TTGlyph name="ccircumflex" xMin="119" yMin="-20" xMax="901" yMax="1569">
      <component glyphName="c" x="0" y="0" flags="0x204"/>
      <component glyphName="circumflex" x="-9" y="0" flags="0x4"/>
    </TTGlyph>
    <TTGlyph name="cdot" xMin="119" yMin="-20" xMax="901" yMax="1485">
      <component glyphName="c" x="0" y="0" flags="0x204"/>
      <component glyphName="dotaccent" x="344" y="0" flags="0x4"/>
    </TTGlyph>
    <TTGlyph name="cedilla" xMin="43" yMin="-492" xMax="393" yMax="0">
      <contour>
        <pt x="393" y="-291" on="1"/>
        <pt x="393" y="-391" on="0"/>
        <pt x="258" y="-492" on="0"/>
        <pt x="137" y="-492" on="1"/>
        <pt x="69" y="-492" on="0"/>
        <pt x="43" y="-481" on="1"/>
        <pt x="43" y="-393" on="1"/>
        <pt x="73" y="-403" on="0"/>
        <pt x="135" y="-403" on="1"/>
        <pt x="213" y="-403" on="0"/>
        <pt x="295" y="-347" on="0"/>
        <pt x="295" y="-295" on="1"/>
        <pt x="295" y="-201" on="0"/>
        <pt x="102" y="-174" on="1"/>
        <pt x="195" y="0" on="1"/>
        <pt x="291" y="0" on="1"/>
        <pt x="225" y="-117" on="1"/>
        <pt x="393" y="-154" on="0"/>
      </contour>
    </TTGlyph>
    <TTGlyph name="cent" xMin="211" yMin="-20" xMax="973" yMax="1483">
      <contour>
        <pt x="602" y="190" on="1"/>
        <pt x="416" y="220" on="0"/>
        <pt x="211" y="510" on="0"/>
        <pt x="211" y="745" on="1"/>
        <pt x="211" y="977" on="0"/>
        <pt x="416" y="1276" on="0"/>
        <pt x="602" y="1309" on="1"/>
        <pt x="602" y="1483" on="1"/>
        <pt x="684" y="1483" on="1"/>
        <pt x="684" y="1317" on="1"/>
        <pt x="698" y="1317" on="1"/>
        <pt x="829" y="1317" on="0"/>
        <pt x="973" y="1262" on="1"/>
        <pt x="942" y="1178" on="1"/>
        <pt x="808" y="1229" on="0"/>
        <pt x="705" y="1229" on="1"/>
        <pt x="518" y="1229" on="0"/>
        <pt x="315" y="984" on="0"/>
        <pt x="315" y="748" on="1"/>
        <pt x="315" y="523" on="0"/>
        <pt x="516" y="274" on="0"/>
        <pt x="696" y="274" on="1"/>
        <pt x="827" y="274" on="0"/>
        <pt x="963" y="332" on="1"/>
        <pt x="963" y="240" on="1"/>
        <pt x="853" y="184" on="0"/>
        <pt x="696" y="184" on="1"/>
        <pt x="684" y="184" on="1"/>
        <pt x="684" y="-20" on="1"/>
        <pt x="602" y="-20" on="1"/>
      </contour>
    </TTGlyph>
    <TTGlyph name="chi" xMin="-20" yMin="-492" xMax="1034" yMax="1102">
      <contour>
        <pt x="143" y="1102" on="1"/>
        <pt x="183" y="1102" on="0"/>
        <pt x="239" y="1073" on="0"/>
        <pt x="283" y="1015" on="0"/>
        <pt x="323" y="919" on="0"/>
        <pt x="520" y="422" on="1"/>
        <pt x="864" y="1087" on="1"/>
        <pt x="975" y="1087" on="1"/>
        <pt x="569" y="322" on="1"/>
        <pt x="762" y="-150" on="1"/>
        <pt x="816" y="-284" on="0"/>
        <pt x="866" y="-372" on="0"/>
        <pt x="918" y="-410" on="0"/>
        <pt x="954" y="-410" on="1"/>
        <pt x="996" y="-410" on="0"/>
        <pt x="1034" y="-401" on="1"/>
        <pt x="1034" y="-477" on="1"/>
        <pt x="997" y="-492" on="0"/>
        <pt x="938" y="-492" on="1"/>
        <pt x="880" y="-492" on="0"/>
        <pt x="799" y="-443" on="0"/>
        <pt x="732" y="-338" on="0"/>
        <pt x="676" y="-197" on="1"/>
        <pt x="506" y="231" on="1"/>
        <pt x="92" y="-492" on="1"/>
        <pt x="-20" y="-492" on="1"/>
        <pt x="457" y="334" on="1"/>
        <pt x="229" y="897" on="1"/>
        <pt x="202" y="964" on="0"/>
        <pt x="150" y="1022" on="0"/>
        <pt x="115" y="1022" on="1"/>
        <pt x="86" y="1022" on="0"/>
        <pt x="49" y="1014" on="1"/>
        <pt x="49" y="1085" on="1"/>
        <pt x="95" y="1102" on="0"/>
      </contour>
    </TTGlyph>
    <TTGlyph name="circumflex" xMin="299" yMin="1241" xMax="881" yMax="1569">
      <contour>
        <pt x="299" y="1257" on="1"/>
        <pt x="361" y="1324" on="0"/>
        <pt x="500" y="1502" on="0"/>
        <pt x="541" y="1569" on="1"/>
        <pt x="639" y="1569" on="1"/>
        <pt x="707" y="1449" on="0"/>
        <pt x="881" y="1257" on="1"/>
        <pt x="881" y="1241" on="1"/>
        <pt x="811" y="1241" on="1"/>
        <pt x="689" y="1342" on="0"/>
        <pt x="590" y="1448" on="1"/>
        <pt x="482" y="1334" on="0"/>
        <pt x="369" y="1241" on="1"/>
        <pt x="299" y="1241" on="1"/>
      </contour>
    </TTGlyph>
    <TTGlyph name="circumflexacutecomb" xMin="-891" yMin="1241" xMax="-141" yMax="1663">
      <contour>
        <pt x="-551" y="1518" on="1"/>
        <pt x="-450" y="1383" on="0"/>
        <pt x="-322" y="1257" on="1"/>
        <pt x="-322" y="1241" on="1"/>
        <pt x="-389" y="1241" on="1"/>
        <pt x="-517" y="1334" on="0"/>
        <pt x="-606" y="1417" on="1"/>
        <pt x="-695" y="1334" on="0"/>
        <pt x="-823" y="1241" on="1"/>
        <pt x="-891" y="1241" on="1"/>
        <pt x="-891" y="1257" on="1"/>
        <pt x="-750" y="1393" on="0"/>
        <pt x="-657" y="1518" on="1"/>
      </contour>
      <contour>
        <pt x="-401" y="1452" on="1"/>
        <pt x="-359" y="1506" on="0"/>
        <pt x="-312" y="1578" on="0"/>
        <pt x="-266" y="1663" on="1"/>
        <pt x="-141" y="1663" on="1"/>
        <pt x="-141" y="1647" on="1"/>
        <pt x="-231" y="1526" on="0"/>
        <pt x="-334" y="1436" on="1"/>
        <pt x="-401" y="1436" on="1"/>
      </contour>
    </TTGlyph>
    <TTGlyph name="circumflexgravecomb" xMin="-1067" yMin="1241" xMax="-322" yMax="1663">
      <contour>
        <pt x="-551" y="1518" on="1"/>
        <pt x="-450" y="1383" on="0"/>
        <pt x="-322" y="1257" on="1"/>
        <pt x="-322" y="1241" on="1"/>
        <pt x="-389" y="1241" on="1"/>
        <pt x="-517" y="1334" on="0"/>
        <pt x="-606" y="1417" on="1"/>
        <pt x="-695" y="1334" on="0"/>
        <pt x="-823" y="1241" on="1"/>
        <pt x="-891" y="1241" on="1"/>
        <pt x="-891" y="1257" on="1"/>
        <pt x="-750" y="1393" on="0"/>
        <pt x="-657" y="1518" on="1"/>
      </contour>
      <contour>
        <pt x="-807" y="1436" on="1"/>
        <pt x="-874" y="1436" on="1"/>
        <pt x="-989" y="1536" on="0"/>
        <pt x="-1067" y="1647" on="1"/>
        <pt x="-1067" y="1663" on="1"/>
        <pt x="-942" y="1663" on="1"/>
        <pt x="-895" y="1577" on="0"/>
        <pt x="-851" y="1510" on="0"/>
        <pt x="-807" y="1452" on="1"/>
      </contour>
    </TTGlyph>
    <TTGlyph name="circumflexhookcomb" xMin="-891" yMin="1241" xMax="-139" yMax="1784">
      <contour>
        <pt x="-139" y="1649" on="1"/>
        <pt x="-139" y="1542" on="0"/>
        <pt x="-270" y="1513" on="1"/>
        <pt x="-274" y="1432" on="1"/>
        <pt x="-342" y="1432" on="1"/>
        <pt x="-352" y="1563" on="1"/>
        <pt x="-289" y="1574" on="0"/>
        <pt x="-227" y="1608" on="0"/>
        <pt x="-227" y="1647" on="1"/>
        <pt x="-227" y="1684" on="0"/>
        <pt x="-285" y="1710" on="0"/>
        <pt x="-332" y="1710" on="1"/>
        <pt x="-363" y="1710" on="0"/>
        <pt x="-403" y="1704" on="1"/>
        <pt x="-403" y="1776" on="1"/>
        <pt x="-369" y="1784" on="0"/>
        <pt x="-317" y="1784" on="1"/>
        <pt x="-233" y="1784" on="0"/>
        <pt x="-139" y="1712" on="0"/>
      </contour>
      <contour>
        <pt x="-551" y="1518" on="1"/>
        <pt x="-450" y="1383" on="0"/>
        <pt x="-322" y="1257" on="1"/>
        <pt x="-322" y="1241" on="1"/>
        <pt x="-389" y="1241" on="1"/>
        <pt x="-517" y="1334" on="0"/>
        <pt x="-606" y="1417" on="1"/>
        <pt x="-695" y="1334" on="0"/>
        <pt x="-823" y="1241" on="1"/>
        <pt x="-891" y="1241" on="1"/>
        <pt x="-891" y="1257" on="1"/>
        <pt x="-750" y="1393" on="0"/>
        <pt x="-657" y="1518" on="1"/>
      </contour>
    </TTGlyph>
    <TTGlyph name="circumflextildecomb" xMin="-907" yMin="1241" xMax="-291" yMax="1808">
      <contour>
        <pt x="-471" y="1597" on="1"/>
        <pt x="-510" y="1597" on="0"/>
        <pt x="-581" y="1637" on="0"/>
        <pt x="-645" y="1684" on="0"/>
        <pt x="-703" y="1724" on="0"/>
        <pt x="-729" y="1724" on="1"/>
        <pt x="-809" y="1724" on="0"/>
        <pt x="-834" y="1595" on="1"/>
        <pt x="-907" y="1595" on="1"/>
        <pt x="-893" y="1692" on="0"/>
        <pt x="-801" y="1806" on="0"/>
        <pt x="-723" y="1806" on="1"/>
        <pt x="-684" y="1806" on="0"/>
        <pt x="-615" y="1767" on="0"/>
        <pt x="-552" y="1720" on="0"/>
        <pt x="-494" y="1681" on="0"/>
        <pt x="-465" y="1681" on="1"/>
        <pt x="-390" y="1681" on="0"/>
        <pt x="-367" y="1808" on="1"/>
        <pt x="-291" y="1808" on="1"/>
        <pt x="-302" y="1707" on="0"/>
        <pt x="-397" y="1597" on="0"/>
      </contour>
      <contour>
        <pt x="-551" y="1518" on="1"/>
        <pt x="-450" y="1383" on="0"/>
        <pt x="-322" y="1257" on="1"/>
        <pt x="-322" y="1241" on="1"/>
        <pt x="-389" y="1241" on="1"/>
        <pt x="-517" y="1334" on="0"/>
        <pt x="-606" y="1417" on="1"/>
        <pt x="-695" y="1334" on="0"/>
        <pt x="-823" y="1241" on="1"/>
        <pt x="-891" y="1241" on="1"/>
        <pt x="-891" y="1257" on="1"/>
        <pt x="-750" y="1393" on="0"/>
        <pt x="-657" y="1518" on="1"/>
      </contour>
    </TTGlyph>
    <TTGlyph name="colon" xMin="162" yMin="-20" xMax="324" yMax="1069">
      <contour>
        <pt x="162" y="78" on="1"/>
        <pt x="162" y="176" on="0"/>
        <pt x="242" y="176" on="1"/>
        <pt x="324" y="176" on="0"/>
        <pt x="324" y="78" on="1"/>
        <pt x="324" y="-20" on="0"/>
        <pt x="242" y="-20" on="1"/>
        <pt x="162" y="-20" on="0"/>
      </contour>
      <contour>
        <pt x="162" y="971" on="1"/>
        <pt x="162" y="1069" on="0"/>
        <pt x="242" y="1069" on="1"/>
        <pt x="324" y="1069" on="0"/>
        <pt x="324" y="971" on="1"/>
        <pt x="324" y="918" on="0"/>
        <pt x="277" y="872" on="0"/>
        <pt x="242" y="872" on="1"/>
        <pt x="208" y="872" on="0"/>
        <pt x="162" y="918" on="0"/>
      </contour>
    </TTGlyph>
    <TTGlyph name="comma" xMin="68" yMin="-264" xMax="307" yMax="238">
      <contour>
        <pt x="295" y="238" on="1"/>
        <pt x="307" y="217" on="1"/>
        <pt x="232" y="-48" on="0"/>
        <pt x="133" y="-264" on="1"/>
        <pt x="68" y="-264" on="1"/>
        <pt x="145" y="11" on="0"/>
        <pt x="178" y="238" on="1"/>
      </contour>
    </TTGlyph>
    <TTGlyph name="commaaccent" xMin="395" yMin="-453" xMax="594" yMax="-125">
      <contour>
        <pt x="395" y="-436" on="1"/>
        <pt x="420" y="-382" on="0"/>
        <pt x="470" y="-200" on="0"/>
        <pt x="481" y="-125" on="1"/>
        <pt x="594" y="-125" on="1"/>
        <pt x="594" y="-139" on="1"/>
        <pt x="571" y="-221" on="0"/>
        <pt x="490" y="-392" on="0"/>
        <pt x="449" y="-453" on="1"/>
        <pt x="395" y="-453" on="1"/>
      </contour>
    </TTGlyph>
    <TTGlyph name="commaaccentrotate" xMin="408" yMin="1241" xMax="606" yMax="1569">
      <contour>
        <pt x="606" y="1552" on="1"/>
        <pt x="579" y="1494" on="0"/>
        <pt x="526" y="1292" on="0"/>
        <pt x="520" y="1241" on="1"/>
        <pt x="408" y="1241" on="1"/>
        <pt x="408" y="1255" on="1"/>
        <pt x="428" y="1332" on="0"/>
        <pt x="511" y="1508" on="0"/>
        <pt x="553" y="1569" on="1"/>
        <pt x="606" y="1569" on="1"/>
      </contour>
    </TTGlyph>
    <TTGlyph name="copyright" xMin="100" yMin="-20" xMax="1604" yMax="1483">
      <contour>
        <pt x="897" y="1092" on="1"/>
        <pt x="755" y="1092" on="0"/>
        <pt x="594" y="903" on="0"/>
        <pt x="594" y="733" on="1"/>
        <pt x="594" y="547" on="0"/>
        <pt x="743" y="369" on="0"/>
        <pt x="889" y="369" on="1"/>
        <pt x="973" y="369" on="0"/>
        <pt x="1087" y="412" on="1"/>
        <pt x="1087" y="324" on="1"/>
        <pt x="985" y="279" on="0"/>
        <pt x="879" y="279" on="1"/>
        <pt x="692" y="279" on="0"/>
        <pt x="489" y="509" on="0"/>
        <pt x="489" y="725" on="1"/>
        <pt x="489" y="933" on="0"/>
        <pt x="711" y="1182" on="0"/>
        <pt x="897" y="1182" on="1"/>
        <pt x="1016" y="1182" on="0"/>
        <pt x="1124" y="1130" on="1"/>
        <pt x="1087" y="1047" on="1"/>
        <pt x="989" y="1092" on="0"/>
      </contour>
      <contour>
        <pt x="100" y="731" on="1"/>
        <pt x="100" y="931" on="0"/>
        <pt x="300" y="1281" on="0"/>
        <pt x="650" y="1483" on="0"/>
        <pt x="852" y="1483" on="1"/>
        <pt x="1052" y="1483" on="0"/>
        <pt x="1402" y="1283" on="0"/>
        <pt x="1604" y="933" on="0"/>
        <pt x="1604" y="731" on="1"/>
        <pt x="1604" y="534" on="0"/>
        <pt x="1410" y="188" on="0"/>
        <pt x="1060" y="-20" on="0"/>
        <pt x="852" y="-20" on="1"/>
        <pt x="645" y="-20" on="0"/>
        <pt x="295" y="187" on="0"/>
        <pt x="100" y="533" on="0"/>
      </contour>
      <contour>
        <pt x="193" y="731" on="1"/>
        <pt x="193" y="553" on="0"/>
        <pt x="370" y="250" on="0"/>
        <pt x="674" y="72" on="0"/>
        <pt x="852" y="72" on="1"/>
        <pt x="1030" y="72" on="0"/>
        <pt x="1333" y="249" on="0"/>
        <pt x="1511" y="553" on="0"/>
        <pt x="1511" y="731" on="1"/>
        <pt x="1511" y="905" on="0"/>
        <pt x="1340" y="1207" on="0"/>
        <pt x="1033" y="1391" on="0"/>
        <pt x="852" y="1391" on="1"/>
        <pt x="676" y="1391" on="0"/>
        <pt x="371" y="1214" on="0"/>
        <pt x="193" y="906" on="0"/>
      </contour>
    </TTGlyph>
    <TTGlyph name="currency" xMin="127" yMin="266" xMax="1040" yMax="1182">
      <contour>
        <pt x="991" y="723" on="1"/>
        <pt x="991" y="572" on="0"/>
        <pt x="901" y="467" on="1"/>
        <pt x="1040" y="326" on="1"/>
        <pt x="981" y="266" on="1"/>
        <pt x="844" y="408" on="1"/>
        <pt x="734" y="315" on="0"/>
        <pt x="584" y="315" on="1"/>
        <pt x="431" y="315" on="0"/>
        <pt x="324" y="408" on="1"/>
        <pt x="186" y="266" on="1"/>
        <pt x="127" y="326" on="1"/>
        <pt x="266" y="467" on="1"/>
        <pt x="176" y="573" on="0"/>
        <pt x="176" y="723" on="1"/>
        <pt x="176" y="870" on="0"/>
        <pt x="266" y="981" on="1"/>
        <pt x="127" y="1122" on="1"/>
        <pt x="186" y="1182" on="1"/>
        <pt x="324" y="1040" on="1"/>
        <pt x="427" y="1133" on="0"/>
        <pt x="584" y="1133" on="1"/>
        <pt x="739" y="1133" on="0"/>
        <pt x="844" y="1040" on="1"/>
        <pt x="981" y="1182" on="1"/>
        <pt x="1040" y="1122" on="1"/>
        <pt x="901" y="981" on="1"/>
        <pt x="991" y="870" on="0"/>
      </contour>
      <contour>
        <pt x="584" y="395" on="1"/>
        <pt x="718" y="395" on="0"/>
        <pt x="907" y="586" on="0"/>
        <pt x="907" y="723" on="1"/>
        <pt x="907" y="859" on="0"/>
        <pt x="717" y="1053" on="0"/>
        <pt x="584" y="1053" on="1"/>
        <pt x="450" y="1053" on="0"/>
        <pt x="260" y="859" on="0"/>
        <pt x="260" y="723" on="1"/>
        <pt x="260" y="587" on="0"/>
        <pt x="449" y="395" on="0"/>
      </contour>
    </TTGlyph>
    <TTGlyph name="cyrillicbighookLC" xMin="49" yMin="-369" xMax="330" yMax="94">
      <contour>
        <pt x="211" y="94" on="1"/>
        <pt x="330" y="94" on="1"/>
        <pt x="330" y="-150" on="1"/>
        <pt x="330" y="-254" on="0"/>
        <pt x="238" y="-369" on="0"/>
        <pt x="147" y="-369" on="1"/>
        <pt x="91" y="-369" on="0"/>
        <pt x="49" y="-348" on="1"/>
        <pt x="49" y="-256" on="1"/>
        <pt x="94" y="-274" on="0"/>
        <pt x="133" y="-274" on="1"/>
        <pt x="231" y="-274" on="0"/>
        <pt x="231" y="-150" on="1"/>
        <pt x="231" y="0" on="1"/>
        <pt x="211" y="0" on="1"/>
      </contour>
    </TTGlyph>
    <TTGlyph name="cyrillicbighookUC" xMin="49" yMin="-369" xMax="330" yMax="94">
      <contour>
        <pt x="211" y="94" on="1"/>
        <pt x="330" y="94" on="1"/>
        <pt x="330" y="-150" on="1"/>
        <pt x="330" y="-254" on="0"/>
        <pt x="238" y="-369" on="0"/>
        <pt x="147" y="-369" on="1"/>
        <pt x="91" y="-369" on="0"/>
        <pt x="49" y="-348" on="1"/>
        <pt x="49" y="-256" on="1"/>
        <pt x="94" y="-274" on="0"/>
        <pt x="133" y="-274" on="1"/>
        <pt x="231" y="-274" on="0"/>
        <pt x="231" y="-150" on="1"/>
        <pt x="231" y="0" on="1"/>
        <pt x="211" y="0" on="1"/>
      </contour>
    </TTGlyph>
    <TTGlyph name="cyrillicbreve" xMin="272" yMin="1241" xMax="909" yMax="1522">
      <contour>
        <pt x="590" y="1241" on="1"/>
        <pt x="441" y="1241" on="0"/>
        <pt x="285" y="1374" on="0"/>
        <pt x="272" y="1522" on="1"/>
        <pt x="360" y="1522" on="1"/>
        <pt x="375" y="1412" on="0"/>
        <pt x="481" y="1321" on="0"/>
        <pt x="592" y="1321" on="1"/>
        <pt x="702" y="1321" on="0"/>
        <pt x="809" y="1415" on="0"/>
        <pt x="821" y="1522" on="1"/>
        <pt x="909" y="1522" on="1"/>
        <pt x="888" y="1241" on="0"/>
      </contour>
    </TTGlyph>
    <TTGlyph name="cyrillichookleft" xMin="59" yMin="-446" xMax="346" yMax="0">
      <contour>
        <pt x="248" y="-248" on="1"/>
        <pt x="248" y="-176" on="0"/>
        <pt x="177" y="-63" on="0"/>
        <pt x="104" y="0" on="1"/>
        <pt x="195" y="0" on="1"/>
        <pt x="346" y="-118" on="0"/>
        <pt x="346" y="-260" on="1"/>
        <pt x="346" y="-347" on="0"/>
        <pt x="244" y="-446" on="0"/>
        <pt x="158" y="-446" on="1"/>
        <pt x="102" y="-446" on="0"/>
        <pt x="59" y="-430" on="1"/>
        <pt x="59" y="-346" on="1"/>
        <pt x="93" y="-358" on="0"/>
        <pt x="141" y="-358" on="1"/>
        <pt x="248" y="-358" on="0"/>
      </contour>
    </TTGlyph>
    <TTGlyph name="d" xMin="119" yMin="-20" xMax="1036" yMax="1556">
      <contour>
        <pt x="580" y="1108" on="1"/>
        <pt x="698" y="1108" on="0"/>
        <pt x="870" y="1022" on="0"/>
        <pt x="938" y="918" on="1"/>
        <pt x="944" y="918" on="1"/>
        <pt x="938" y="1044" on="0"/>
        <pt x="938" y="1165" on="1"/>
        <pt x="938" y="1556" on="1"/>
        <pt x="1036" y="1556" on="1"/>
        <pt x="1036" y="0" on="1"/>
        <pt x="971" y="0" on="1"/>
        <pt x="946" y="166" on="1"/>
        <pt x="938" y="166" on="1"/>
        <pt x="814" y="-20" on="0"/>
        <pt x="582" y="-20" on="1"/>
        <pt x="357" y="-20" on="0"/>
        <pt x="119" y="260" on="0"/>
        <pt x="119" y="528" on="1"/>
        <pt x="119" y="810" on="0"/>
        <pt x="355" y="1108" on="0"/>
      </contour>
      <contour>
        <pt x="580" y="1018" on="1"/>
        <pt x="402" y="1018" on="0"/>
        <pt x="223" y="768" on="0"/>
        <pt x="223" y="530" on="1"/>
        <pt x="223" y="68" on="0"/>
        <pt x="582" y="68" on="1"/>
        <pt x="766" y="68" on="0"/>
        <pt x="938" y="282" on="0"/>
        <pt x="938" y="528" on="1"/>
        <pt x="938" y="545" on="1"/>
        <pt x="938" y="797" on="0"/>
        <pt x="769" y="1018" on="0"/>
      </contour>
    </TTGlyph>
    <TTGlyph name="dagger" xMin="123" yMin="0" xMax="883" yMax="1556">
      <contour>
        <pt x="883" y="1055" on="1"/>
        <pt x="524" y="1075" on="1"/>
        <pt x="551" y="0" on="1"/>
        <pt x="434" y="0" on="1"/>
        <pt x="461" y="1075" on="1"/>
        <pt x="123" y="1055" on="1"/>
        <pt x="123" y="1167" on="1"/>
        <pt x="461" y="1139" on="1"/>
        <pt x="434" y="1556" on="1"/>
        <pt x="551" y="1556" on="1"/>
        <pt x="524" y="1139" on="1"/>
        <pt x="883" y="1167" on="1"/>
      </contour>
    </TTGlyph>
    <TTGlyph name="daggerdbl" xMin="123" yMin="0" xMax="883" yMax="1556">
      <contour>
        <pt x="524" y="461" on="1"/>
        <pt x="883" y="485" on="1"/>
        <pt x="883" y="373" on="1"/>
        <pt x="524" y="397" on="1"/>
        <pt x="551" y="0" on="1"/>
        <pt x="434" y="0" on="1"/>
        <pt x="461" y="397" on="1"/>
        <pt x="123" y="373" on="1"/>
        <pt x="123" y="485" on="1"/>
        <pt x="461" y="461" on="1"/>
        <pt x="444" y="786" on="1"/>
        <pt x="461" y="1079" on="1"/>
        <pt x="123" y="1055" on="1"/>
        <pt x="123" y="1167" on="1"/>
        <pt x="461" y="1143" on="1"/>
        <pt x="434" y="1556" on="1"/>
        <pt x="551" y="1556" on="1"/>
        <pt x="524" y="1143" on="1"/>
        <pt x="883" y="1167" on="1"/>
        <pt x="883" y="1055" on="1"/>
        <pt x="524" y="1079" on="1"/>
        <pt x="541" y="786" on="1"/>
      </contour>
    </TTGlyph>
    <TTGlyph name="dasiaoxia" xMin="174" yMin="1128" xMax="678" yMax="1470">
      <contour>
        <pt x="440" y="1151" on="1"/>
        <pt x="527" y="1330" on="0"/>
        <pt x="563" y="1462" on="1"/>
        <pt x="678" y="1462" on="1"/>
        <pt x="678" y="1444" on="1"/>
        <pt x="647" y="1377" on="0"/>
        <pt x="541" y="1201" on="0"/>
        <pt x="492" y="1135" on="1"/>
        <pt x="440" y="1135" on="1"/>
      </contour>
      <contour>
        <pt x="174" y="1255" on="1"/>
        <pt x="174" y="1339" on="0"/>
        <pt x="277" y="1441" on="0"/>
        <pt x="379" y="1470" on="1"/>
        <pt x="379" y="1415" on="1"/>
        <pt x="252" y="1377" on="0"/>
        <pt x="252" y="1309" on="1"/>
        <pt x="252" y="1285" on="0"/>
        <pt x="281" y="1263" on="0"/>
        <pt x="317" y="1245" on="0"/>
        <pt x="346" y="1221" on="0"/>
        <pt x="346" y="1196" on="1"/>
        <pt x="346" y="1165" on="0"/>
        <pt x="306" y="1128" on="0"/>
        <pt x="274" y="1128" on="1"/>
        <pt x="228" y="1128" on="0"/>
        <pt x="174" y="1198" on="0"/>
      </contour>
    </TTGlyph>
    <TTGlyph name="dcaron" xMin="119" yMin="-20" xMax="1339" yMax="1556">
      <component glyphName="d" x="0" y="0" flags="0x204"/>
      <component glyphName="caroncommaaccent" x="729" y="0" flags="0x4"/>
    </TTGlyph>
    <TTGlyph name="dcroat" xMin="119" yMin="-20" xMax="1192" yMax="1556">
      <contour>
        <pt x="580" y="1108" on="1"/>
        <pt x="698" y="1108" on="0"/>
        <pt x="870" y="1022" on="0"/>
        <pt x="938" y="918" on="1"/>
        <pt x="944" y="918" on="1"/>
        <pt x="938" y="1044" on="0"/>
        <pt x="938" y="1165" on="1"/>
        <pt x="938" y="1272" on="1"/>
        <pt x="465" y="1272" on="1"/>
        <pt x="465" y="1354" on="1"/>
        <pt x="938" y="1354" on="1"/>
        <pt x="938" y="1556" on="1"/>
        <pt x="1036" y="1556" on="1"/>
        <pt x="1036" y="1354" on="1"/>
        <pt x="1192" y="1354" on="1"/>
        <pt x="1192" y="1272" on="1"/>
        <pt x="1036" y="1272" on="1"/>
        <pt x="1036" y="0" on="1"/>
        <pt x="971" y="0" on="1"/>
        <pt x="946" y="166" on="1"/>
        <pt x="938" y="166" on="1"/>
        <pt x="814" y="-20" on="0"/>
        <pt x="582" y="-20" on="1"/>
        <pt x="357" y="-20" on="0"/>
        <pt x="119" y="260" on="0"/>
        <pt x="119" y="528" on="1"/>
        <pt x="119" y="810" on="0"/>
        <pt x="355" y="1108" on="0"/>
      </contour>
      <contour>
        <pt x="580" y="1018" on="1"/>
        <pt x="402" y="1018" on="0"/>
        <pt x="223" y="768" on="0"/>
        <pt x="223" y="530" on="1"/>
        <pt x="223" y="68" on="0"/>
        <pt x="582" y="68" on="1"/>
        <pt x="766" y="68" on="0"/>
        <pt x="938" y="282" on="0"/>
        <pt x="938" y="528" on="1"/>
        <pt x="938" y="545" on="1"/>
        <pt x="938" y="797" on="0"/>
        <pt x="769" y="1018" on="0"/>
      </contour>
    </TTGlyph>
    <TTGlyph name="degree" xMin="139" yMin="885" xMax="737" yMax="1483">
      <contour>
        <pt x="139" y="1184" on="1"/>
        <pt x="139" y="1316" on="0"/>
        <pt x="312" y="1483" on="0"/>
        <pt x="438" y="1483" on="1"/>
        <pt x="564" y="1483" on="0"/>
        <pt x="737" y="1316" on="0"/>
        <pt x="737" y="1184" on="1"/>
        <pt x="737" y="1052" on="0"/>
        <pt x="564" y="885" on="0"/>
        <pt x="438" y="885" on="1"/>
        <pt x="308" y="885" on="0"/>
        <pt x="139" y="1051" on="0"/>
      </contour>
      <contour>
        <pt x="229" y="1184" on="1"/>
        <pt x="229" y="1093" on="0"/>
        <pt x="351" y="967" on="0"/>
        <pt x="438" y="967" on="1"/>
        <pt x="524" y="967" on="0"/>
        <pt x="647" y="1091" on="0"/>
        <pt x="647" y="1184" on="1"/>
        <pt x="647" y="1276" on="0"/>
        <pt x="527" y="1401" on="0"/>
        <pt x="438" y="1401" on="1"/>
        <pt x="348" y="1401" on="0"/>
        <pt x="229" y="1273" on="0"/>
      </contour>
    </TTGlyph>
</ttFont>
